<?xml version="1.0" standalone="no"?>
<!DOCTYPE svg PUBLIC "-//W3C//DTD SVG 20010904//EN"
 "http://www.w3.org/TR/2001/REC-SVG-20010904/DTD/svg10.dtd">
<svg version="1.0" xmlns="http://www.w3.org/2000/svg"
 width="700.000000pt" height="393.000000pt" viewBox="0 0 700.000000 393.000000"
 preserveAspectRatio="xMidYMid meet">
<metadata>
Created by potrace 1.16, written by Peter Selinger 2001-2019
</metadata>
<g transform="translate(0.000000,393.000000) scale(0.100000,-0.100000)"
fill="#000000" stroke="none">
<path d="M260 3927 c0 -21 -25 -132 -37 -167 -25 -69 -32 -74 -75 -45 -44 30
-54 31 -67 8 -6 -10 -11 -14 -11 -9 0 5 -11 -1 -24 -13 -14 -13 -29 -20 -35
-16 -8 4 -11 -114 -11 -402 l0 -409 103 4 c109 4 157 17 157 43 0 11 8 17 23
17 37 1 106 18 122 32 9 8 23 27 32 44 21 41 30 46 83 46 37 0 51 6 82 34 21
19 45 37 55 40 10 2 36 10 58 15 23 6 60 29 87 54 43 40 55 45 125 56 103 16
168 33 343 87 80 25 204 63 275 85 72 22 148 48 170 59 22 11 47 20 55 20 8 1
47 12 85 26 63 23 66 25 28 21 -24 -3 -43 -1 -43 4 0 5 13 9 29 9 45 0 49 20
4 21 -33 1 -35 2 -13 8 24 7 24 8 -7 12 -21 4 -33 1 -33 -6 0 -15 -43 -55 -59
-55 -9 0 -9 7 2 28 8 15 27 65 42 112 30 93 51 140 63 140 4 0 45 -16 91 -35
45 -19 92 -35 104 -35 12 0 78 -18 146 -40 68 -22 129 -39 134 -37 5 1 -8 16
-29 32 -22 16 -62 53 -90 82 -52 55 -81 73 -177 112 -45 19 -68 22 -124 18
-37 -3 -68 -6 -68 -7 0 -1 -54 -4 -120 -6 -143 -5 -185 -11 -185 -27 0 -8 -4
-6 -11 3 -8 11 -12 12 -16 2 -12 -31 -103 -56 -103 -28 0 7 -11 21 -25 30 -14
9 -23 21 -20 26 10 17 -71 11 -85 -6 -11 -13 -10 -16 9 -21 l22 -6 -21 -22
c-18 -19 -21 -36 -23 -126 -2 -85 -6 -103 -17 -100 -8 2 -19 4 -25 5 -5 1 -10
4 -11 6 -3 18 -27 50 -37 50 -7 0 -6 -4 3 -10 24 -15 2 -12 -30 5 -16 8 -57
16 -92 17 -41 1 -67 7 -78 17 -8 9 -31 22 -51 29 -30 10 -41 10 -68 -4 -27
-14 -30 -18 -19 -32 11 -14 10 -15 -7 -8 -41 17 -53 17 -87 3 -32 -14 -38 -13
-74 7 -21 11 -43 27 -47 34 -11 16 -37 15 -74 -3 -25 -12 -36 -13 -57 -4 -14
7 -24 15 -22 18 2 3 -6 7 -17 7 -26 2 -82 12 -117 21 -14 3 -28 6 -32 5 -4 -1
-4 8 1 21 6 15 4 26 -5 35 -8 7 -14 26 -14 42 0 23 -5 30 -20 30 -11 0 -20 -1
-20 -3z"/>
<path d="M2102 3708 c3 -7 17 -16 34 -21 28 -8 46 -15 97 -37 12 -5 92 -37
177 -71 85 -33 164 -65 175 -70 69 -31 294 -122 313 -126 46 -11 20 16 -35 37
-32 11 -67 25 -78 30 -28 13 -204 84 -300 121 -44 17 -111 44 -149 60 -38 16
-73 29 -77 29 -5 0 -28 9 -52 19 -70 31 -109 42 -105 29z"/>
<path d="M2755 3212 c2 -16 12 -46 21 -67 9 -22 18 -82 21 -144 15 -286 -116
-481 -527 -781 -33 -25 -78 -63 -100 -85 -51 -53 -95 -89 -198 -159 -48 -32
-113 -78 -144 -102 -32 -24 -75 -55 -97 -68 -22 -14 -55 -41 -74 -59 -18 -19
-46 -43 -62 -53 -26 -17 -29 -17 -38 -2 -9 14 -14 12 -40 -13 -16 -16 -43 -37
-61 -46 -36 -18 -56 -38 -75 -75 -8 -16 -16 -26 -19 -24 -2 3 -14 -4 -25 -15
-16 -15 -34 -19 -67 -18 -46 2 -59 -3 -227 -89 -40 -21 -94 -64 -154 -123 -51
-50 -105 -96 -121 -101 -17 -6 -28 -17 -28 -29 0 -10 -6 -19 -14 -19 -7 0 -19
-13 -25 -28 -7 -16 -42 -55 -78 -88 -36 -32 -82 -85 -103 -116 -36 -55 -107
-122 -142 -134 -22 -8 -28 -25 -34 -103 -6 -78 -34 -140 -81 -182 -37 -32 -46
-66 -34 -121 9 -37 -10 -130 -27 -136 -6 -2 -16 -20 -23 -40 -7 -20 -18 -43
-26 -51 -23 -23 4 -31 83 -26 100 7 337 14 287 8 -24 -2 -43 -9 -43 -14 0 -12
192 -1 200 11 8 12 71 23 127 21 41 -1 53 2 53 14 0 12 7 14 26 9 18 -5 25 -3
21 4 -4 5 6 15 23 21 17 5 30 17 30 25 0 27 73 67 116 65 53 -3 84 15 85 49 1
46 9 75 27 101 37 51 37 53 25 58 -7 3 -13 9 -13 15 0 6 7 7 16 4 8 -3 13 -2
10 2 -3 5 11 15 29 24 56 25 65 11 67 -105 1 -91 7 -113 24 -86 4 8 12 2 21
-15 27 -52 35 -36 67 141 10 51 14 98 11 103 -4 6 -1 18 6 26 10 13 8 19 -14
38 -15 13 -27 28 -27 35 0 6 -7 11 -16 11 -10 0 -14 -6 -10 -15 3 -8 1 -15 -4
-15 -5 0 -12 -11 -16 -25 -3 -14 -10 -25 -14 -25 -15 0 -30 28 -28 51 2 19 -1
24 -18 22 -21 -2 -54 40 -41 53 4 4 -2 14 -12 23 -10 9 -22 31 -25 49 -4 17
-12 32 -18 32 -5 0 -8 6 -5 13 4 14 96 18 114 5 20 -16 56 10 49 35 -3 12 -6
25 -6 30 0 4 -7 7 -15 7 -9 0 -19 8 -22 18 -4 9 -11 20 -17 24 -13 9 82 35
174 48 41 5 93 13 115 18 51 10 149 -5 198 -30 39 -20 131 -82 155 -105 7 -7
16 -13 20 -13 4 0 58 -5 121 -10 97 -8 116 -7 129 6 10 11 17 12 22 4 9 -15
60 -2 60 16 0 8 7 14 15 14 9 0 21 11 27 25 12 27 38 34 38 10 0 -20 6 -19 29
4 10 10 25 21 32 24 12 5 11 8 -1 19 -8 7 -19 21 -25 30 -71 115 -88 126 -179
116 -32 -4 -43 -2 -43 8 0 8 4 14 9 14 17 0 7 28 -22 55 -16 15 -26 33 -23 39
3 6 3 8 -2 4 -4 -4 -21 6 -37 22 -15 17 -33 30 -39 30 -6 0 -8 8 -4 19 4 13
-5 25 -36 45 -28 19 -38 31 -31 39 5 7 6 38 2 72 -5 46 -4 62 7 68 7 5 11 13
7 18 -3 6 5 20 18 33 46 46 78 87 78 99 0 16 71 77 90 77 37 1 95 29 95 47 0
10 4 21 9 25 10 7 133 1 147 -7 4 -3 10 -1 14 5 3 5 1 10 -4 10 -26 0 -8 27
29 43 22 9 40 22 40 28 0 6 5 9 12 7 7 -3 24 8 38 23 29 32 73 51 95 42 9 -3
22 2 30 13 20 28 31 8 16 -29 -24 -61 -25 -67 -3 -67 27 0 72 20 72 32 0 5
-14 7 -31 3 -31 -7 -32 -7 -15 16 19 28 20 52 4 78 -9 16 -16 18 -32 10 -21
-10 -21 -10 -2 5 11 9 25 16 32 16 6 0 23 9 38 21 21 17 24 24 16 40 -6 11
-22 19 -38 20 -21 1 -18 3 13 9 43 9 71 -4 45 -20 -11 -7 -12 -10 -2 -10 14 0
49 30 35 30 -4 0 -1 6 7 13 8 7 22 21 30 31 13 18 13 19 -1 14 -12 -5 -16 1
-16 22 0 28 0 28 17 7 14 -16 18 -18 25 -6 5 8 5 11 0 7 -14 -13 -36 42 -24
61 8 13 9 11 5 -9 -3 -14 -3 -19 0 -12 3 6 10 9 16 6 5 -4 5 3 -2 16 -6 12 -9
32 -6 43 6 25 -18 62 -39 62 -8 0 -14 3 -12 6 4 12 -37 51 -68 66 l-30 14 30
-7 c17 -4 38 -8 47 -8 10 -1 21 -5 24 -9 4 -4 13 -7 21 -7 7 0 31 -11 53 -25
22 -14 46 -25 54 -25 7 0 19 -7 26 -15 7 -8 17 -12 23 -8 5 3 7 2 4 -4 -3 -5
-21 -8 -39 -6 -27 3 -29 1 -13 -6 11 -5 14 -10 7 -10 -7 -1 -10 -5 -7 -11 3
-5 25 -10 48 -10 33 0 43 4 44 18 1 9 31 94 66 187 35 94 74 201 87 238 25 78
20 93 -39 102 -20 4 -45 10 -56 15 -11 5 -48 18 -83 30 -69 24 -80 21 -139
-33 -13 -11 -25 -18 -28 -15 -3 3 12 60 34 127 22 67 37 129 34 138 -4 11 -3
14 5 9 8 -5 12 0 12 13 0 10 3 26 6 35 3 9 1 16 -5 16 -6 0 -11 -7 -11 -15 0
-17 -35 -21 -45 -5 -8 13 -48 13 -61 0 -7 -7 -22 -6 -47 5 -55 23 -68 20 -62
-13z"/>
<path d="M3641 2717 c-5 -12 -27 -65 -49 -118 -29 -71 -37 -100 -29 -108 19
-19 27 -13 52 44 l24 55 35 -16 34 -17 -19 -45 c-21 -48 -19 -72 5 -72 21 0
111 230 94 241 -21 14 -31 5 -46 -39 -8 -24 -20 -42 -28 -42 -13 0 -50 15 -62
25 -2 2 3 16 11 32 28 54 29 70 7 76 -15 4 -23 -1 -29 -16z"/>
<path d="M3807 2554 c-52 -60 -53 -139 -1 -163 35 -15 48 -14 75 8 22 18 22
20 6 26 -9 4 -23 2 -31 -4 -29 -24 -65 14 -46 49 10 19 11 19 57 -1 52 -22 63
-16 63 36 0 73 -76 103 -123 49z"/>
<path d="M3937 2414 c-26 -63 -45 -119 -42 -125 12 -18 33 -9 45 21 12 28 13
29 36 13 52 -34 113 20 122 107 4 43 2 50 -21 65 -15 9 -31 14 -37 10 -5 -3
-17 1 -26 9 -8 9 -19 16 -23 16 -4 0 -28 -52 -54 -116z"/>
<path d="M4165 2436 c-26 -19 -8 -43 21 -28 27 13 44 4 44 -24 0 -23 -3 -24
-35 -18 -48 9 -80 -1 -93 -30 -22 -48 17 -92 69 -79 14 4 20 2 16 -4 -8 -13
23 -27 33 -16 13 15 50 125 50 147 0 45 -69 79 -105 52z"/>
<path d="M780 2411 c0 -5 19 -23 43 -39 98 -67 114 -79 152 -112 160 -140 221
-226 268 -380 34 -110 49 -183 45 -230 -4 -69 15 -64 30 8 21 99 12 182 -29
267 -10 22 -23 52 -28 66 -11 32 -126 185 -166 221 -16 15 -36 28 -42 28 -7 0
-12 4 -10 9 2 8 -135 111 -147 111 -3 0 -28 14 -54 30 -53 32 -62 35 -62 21z"/>
<path d="M4676 2214 c-24 -24 -19 -55 15 -90 21 -21 29 -38 25 -49 -8 -21 -36
-16 -50 10 -22 40 -46 46 -46 12 0 -50 83 -85 120 -52 29 26 25 62 -11 96 -19
17 -29 35 -25 44 8 21 33 19 46 -5 10 -18 40 -29 40 -14 0 11 -23 49 -34 56
-19 13 -64 9 -80 -8z"/>
<path d="M4957 2171 c-13 -14 -52 -61 -87 -105 -49 -61 -60 -80 -49 -87 21
-13 27 -11 45 16 18 28 28 30 64 12 21 -10 24 -19 22 -48 -3 -30 1 -37 17 -42
12 -3 21 -4 21 -3 0 1 7 56 15 121 8 66 15 127 15 136 0 29 -36 29 -63 0z"/>
<path d="M5325 2052 c-12 -12 -3 -29 20 -40 l24 -11 -43 -105 c-41 -100 -42
-106 -24 -112 11 -3 21 -4 24 -2 2 3 21 47 43 99 37 91 39 94 68 92 19 -2 33
3 36 11 4 10 -17 23 -68 44 -41 16 -77 27 -80 24z"/>
<path d="M6160 1917 c0 -51 -64 -246 -137 -415 -39 -92 -118 -238 -133 -247
-5 -3 -63 15 -127 40 -65 26 -163 64 -218 86 -87 34 -348 137 -585 231 -41 16
-102 39 -135 50 -33 11 -64 24 -70 28 -18 13 -45 20 -45 11 0 -4 48 -27 108
-50 216 -86 355 -142 657 -267 296 -122 352 -145 400 -168 67 -32 142 -62 245
-99 72 -26 100 -31 180 -31 137 -1 171 18 309 169 10 11 21 32 25 48 3 15 10
27 15 27 22 0 35 242 14 269 -7 9 -13 27 -13 41 0 31 -35 90 -53 90 -7 0 -24
12 -37 28 -14 15 -32 27 -40 27 -8 0 -14 6 -12 13 2 9 -4 11 -18 7 -11 -4 -20
-2 -20 4 0 6 -3 10 -7 9 -5 -1 -30 8 -58 21 -27 12 -59 26 -70 31 -11 5 -51
23 -88 39 -82 37 -87 37 -87 8z"/>
<path d="M5452 1904 c-52 -36 -70 -134 -32 -169 25 -23 76 -24 98 -1 15 15 15
18 2 26 -9 6 -19 5 -24 0 -27 -27 -74 8 -60 44 8 20 15 20 58 0 48 -23 66 -14
66 35 0 31 -6 44 -26 60 -32 25 -52 26 -82 5z"/>
<path d="M5607 1839 c-35 -27 -34 -54 3 -89 31 -29 39 -55 18 -63 -21 -7 -39
4 -49 30 -11 31 -35 24 -31 -8 5 -46 67 -71 107 -45 35 23 33 62 -7 103 -25
26 -29 35 -19 47 15 18 38 11 46 -15 7 -22 35 -26 35 -5 0 20 -31 53 -56 60
-13 4 -30 -1 -47 -15z"/>
<path d="M2388 853 c-10 -2 -18 -9 -18 -14 0 -7 104 -268 130 -324 5 -11 33
-83 63 -160 122 -315 140 -355 159 -355 17 0 17 3 -3 52 -11 29 -28 71 -38 93
-10 22 -21 54 -25 70 -4 17 -18 57 -31 90 -80 204 -120 309 -145 380 -30 85
-67 176 -72 174 -2 -1 -11 -3 -20 -6z"/>
</g>
</svg>
