<?xml version="1.0" standalone="no"?>
<!DOCTYPE svg PUBLIC "-//W3C//DTD SVG 20010904//EN"
 "http://www.w3.org/TR/2001/REC-SVG-20010904/DTD/svg10.dtd">
<svg version="1.0" xmlns="http://www.w3.org/2000/svg"
 width="640.000000pt" height="360.000000pt" viewBox="0 0 640.000000 360.000000"
 preserveAspectRatio="xMidYMid meet">
<metadata>
Created by potrace 1.16, written by Peter Selinger 2001-2019
</metadata>
<g transform="translate(0.000000,360.000000) scale(0.100000,-0.100000)"
fill="#000000" stroke="none">
<path d="M3264 2414 c-56 -20 -111 -76 -145 -149 -24 -49 -29 -73 -29 -133 0
-118 33 -164 131 -182 59 -11 157 9 182 39 8 9 22 58 31 110 21 114 17 121
-66 121 -75 0 -98 -12 -98 -50 0 -27 3 -30 34 -30 19 0 37 -3 39 -7 2 -5 0
-27 -5 -50 -9 -42 -10 -43 -52 -43 -80 0 -109 73 -71 181 33 92 107 127 168
79 32 -25 48 -25 76 1 30 28 25 75 -11 102 -36 27 -128 32 -184 11z"/>
<path d="M5067 2422 c-35 -4 -42 -18 -62 -130 -10 -51 -19 -92 -20 -90 -2 2
-15 46 -30 98 -15 52 -33 98 -39 102 -15 10 -68 10 -84 -1 -15 -9 -106 -417
-98 -438 3 -7 17 -13 31 -13 47 0 63 16 75 77 6 32 16 76 22 98 l10 40 24 -90
c12 -49 23 -93 23 -97 2 -18 36 -38 66 -38 66 0 73 15 115 245 21 116 36 213
34 217 -9 15 -39 24 -67 20z"/>
<path d="M1340 2400 c-11 -11 -20 -23 -20 -27 0 -11 -48 -289 -61 -352 -11
-58 -5 -71 36 -71 35 0 46 15 64 86 l17 69 49 7 c135 19 216 199 126 280 -29
26 -38 28 -111 28 -67 0 -83 -3 -100 -20z"/>
<path d="M1713 2409 c-25 -9 -26 -12 -77 -241 -40 -177 -43 -203 -20 -212 9
-3 62 -6 119 -6 112 0 120 4 131 58 8 39 -19 55 -87 50 -53 -3 -55 -1 -43 61
6 29 9 31 51 31 63 0 83 13 83 55 l0 35 -61 0 c-53 0 -60 2 -56 18 3 9 8 29
11 45 6 26 9 27 65 27 66 0 91 15 91 56 0 26 8 24 -125 30 -33 1 -70 -2 -82
-7z"/>
<path d="M2240 2410 c-9 -6 -23 -50 -35 -117 l-20 -108 -24 90 c-30 116 -42
135 -86 135 -18 0 -40 -6 -47 -13 -7 -8 -33 -107 -57 -222 -46 -220 -46 -224
5 -225 40 0 54 22 71 118 9 50 19 92 23 92 4 0 15 -37 25 -82 26 -122 36 -138
93 -138 36 0 68 26 77 62 28 118 71 395 63 406 -12 14 -66 16 -88 2z"/>
<path d="M2548 2410 c-105 -32 -189 -167 -191 -310 -1 -67 17 -107 62 -137 85
-57 241 0 241 89 0 38 -31 45 -81 19 -52 -28 -75 -26 -95 4 -32 48 4 203 55
242 22 17 63 16 87 -2 42 -32 74 -14 74 41 0 20 -9 29 -42 44 -46 21 -68 23
-110 10z"/>
<path d="M3693 2408 c-29 -39 -214 -430 -209 -443 8 -23 62 -19 86 7 11 12 25
37 32 55 11 31 15 33 59 33 l48 0 7 -47 c8 -61 18 -73 60 -73 48 0 78 32 70
73 -3 18 -10 66 -16 107 -27 211 -40 284 -52 291 -20 13 -74 11 -85 -3z"/>
<path d="M4208 2406 c-8 -7 -19 -47 -26 -90 l-13 -76 -55 0 -55 0 7 38 c3 20
10 55 14 76 5 22 7 44 4 48 -7 11 -71 10 -78 0 -3 -5 -17 -62 -31 -128 -14
-65 -35 -158 -46 -206 -10 -47 -16 -93 -13 -102 4 -10 18 -16 40 -16 38 0 58
23 69 80 21 109 22 110 70 110 25 0 45 -3 45 -7 0 -5 -7 -35 -15 -68 -26 -108
-20 -125 44 -125 46 0 59 19 76 115 8 50 25 142 36 205 11 63 21 120 23 126
11 31 -69 48 -96 20z"/>
<path d="M4513 2408 c-18 -24 -213 -420 -213 -433 0 -8 9 -16 19 -20 38 -12
66 5 94 56 27 47 30 49 73 49 35 0 44 -4 45 -17 5 -82 10 -90 56 -99 26 -5 37
-1 58 20 16 16 24 33 21 44 -3 9 -15 96 -26 192 -27 218 -28 220 -79 220 -21
0 -43 -6 -48 -12z"/>
<path d="M2822 2401 c-15 -9 -105 -391 -100 -425 4 -26 33 -34 136 -35 75 -1
85 1 107 24 28 27 33 70 9 79 -9 3 -40 6 -70 6 -59 0 -61 3 -48 69 6 30 8 31
58 31 58 0 71 6 80 36 13 42 -2 54 -64 54 -63 0 -60 -5 -45 63 5 25 8 27 61
27 71 0 94 12 94 50 l0 30 -102 0 c-57 0 -109 -4 -116 -9z"/>
<path d="M948 1833 c-14 -2 -31 -10 -36 -16 -9 -12 -54 -248 -56 -297 -1 -16
5 -26 17 -28 27 -5 43 13 56 63 10 40 15 45 47 51 74 14 134 97 119 164 -11
49 -69 74 -147 63z"/>
<path d="M3577 1825 c-8 -8 -18 -38 -22 -67 -4 -29 -11 -59 -15 -67 -8 -16 -9
-14 -30 69 -15 56 -26 70 -56 70 -32 0 -38 -15 -69 -165 -36 -168 -36 -160 -1
-160 34 0 42 11 57 90 l12 60 10 -35 c24 -89 33 -114 48 -123 24 -15 68 0 79
28 15 40 53 282 47 299 -8 20 -41 21 -60 1z"/>
<path d="M4224 1821 c-22 -10 -50 -31 -62 -46 -28 -35 -52 -116 -55 -183 -2
-44 2 -55 27 -81 34 -35 83 -41 139 -17 70 29 121 119 121 210 0 74 -15 103
-59 122 -44 18 -61 17 -111 -5z m74 -100 c5 -48 -15 -122 -40 -148 -79 -84
-111 80 -35 175 6 7 24 12 41 10 27 -3 31 -7 34 -37z"/>
<path d="M4840 1831 c-66 -20 -102 -65 -126 -154 -23 -88 -19 -134 16 -169 29
-28 35 -30 86 -26 33 3 66 13 82 25 71 52 115 210 77 279 -25 46 -75 63 -135
45z m55 -91 c8 -25 -2 -93 -20 -137 -15 -36 -47 -57 -75 -48 -41 13 -34 122
11 179 26 33 74 36 84 6z"/>
<path d="M5250 1830 c-22 -5 -27 -15 -41 -85 l-16 -80 -17 60 c-26 93 -33 105
-58 105 -13 0 -29 -4 -36 -8 -9 -7 -81 -287 -82 -323 0 -11 35 -16 57 -8 16 6
24 22 33 73 8 36 17 63 21 61 3 -3 10 -26 14 -51 11 -77 23 -94 65 -94 21 0
43 6 49 14 12 15 61 260 61 307 0 30 -14 38 -50 29z"/>
<path d="M1180 1815 c-21 -25 -81 -307 -68 -322 11 -14 155 -19 174 -5 15 10
24 40 18 57 -4 11 -21 15 -56 15 -47 0 -50 1 -44 23 3 12 6 28 6 35 0 7 14 12
39 12 42 0 65 18 59 47 -2 13 -14 19 -46 21 -45 3 -47 7 -32 46 8 23 15 26 60
26 49 0 50 1 50 30 l0 30 -74 0 c-53 0 -77 -4 -86 -15z"/>
<path d="M1428 1818 c-24 -19 -84 -318 -66 -329 38 -25 63 3 79 86 l13 70 19
-78 c17 -67 23 -78 45 -84 45 -11 76 8 83 52 4 22 17 91 29 153 12 63 19 120
16 128 -4 10 -17 14 -38 12 -31 -3 -34 -6 -46 -63 -21 -93 -23 -95 -44 -25
-19 62 -38 90 -63 90 -6 0 -18 -6 -27 -12z"/>
<path d="M1713 1818 c-7 -9 -5 -41 5 -105 14 -77 14 -102 4 -153 -14 -68 -11
-80 23 -80 34 0 52 23 65 84 7 32 32 89 61 138 62 103 65 122 22 126 -28 3
-35 -2 -56 -35 -13 -21 -27 -47 -31 -58 -6 -16 -11 -10 -25 35 -17 57 -45 77
-68 48z"/>
<path d="M1994 1819 c-7 -11 -29 -103 -60 -248 -19 -90 -18 -91 87 -91 83 0
103 11 97 52 -3 20 -10 23 -51 26 -48 3 -48 4 -45 35 3 30 6 32 45 35 75 5 85
72 12 72 -34 0 -39 3 -39 23 0 36 13 46 65 49 39 2 51 7 53 22 2 10 -2 22 -10
27 -20 13 -146 11 -154 -2z"/>
<path d="M2243 1818 c-5 -7 -24 -82 -43 -166 -39 -178 -40 -175 57 -169 95 7
149 53 145 126 0 20 -2 47 -2 61 -1 14 2 40 6 57 9 46 -2 78 -31 91 -34 16
-120 15 -132 0z"/>
<path d="M2525 1683 c-87 -172 -93 -188 -70 -197 23 -9 50 8 72 47 16 26 26
33 49 33 25 -1 30 -6 39 -41 9 -35 14 -40 41 -43 57 -6 60 10 36 179 -12 83
-24 154 -27 160 -4 5 -19 9 -35 9 -28 0 -34 -9 -105 -147z"/>
<path d="M2832 1817 c-6 -7 -23 -71 -38 -142 -40 -193 -39 -181 -14 -188 31
-8 57 23 65 77 12 77 31 67 36 -19 3 -50 14 -65 49 -65 46 0 55 20 41 100 -10
65 -10 73 9 98 36 49 27 126 -17 143 -35 13 -119 11 -131 -4z"/>
<path d="M3194 1822 c-12 -7 -164 -305 -164 -321 0 -5 10 -11 23 -15 21 -6 43
11 72 57 6 9 23 17 39 19 26 3 30 -1 40 -37 10 -34 16 -40 42 -43 55 -5 59 11
40 166 -23 186 -21 182 -54 182 -15 0 -32 -4 -38 -8z"/>
<path d="M3931 1813 c-61 -30 -111 -131 -111 -225 0 -38 6 -54 28 -79 25 -28
35 -32 74 -32 85 2 154 62 114 101 -16 16 -18 16 -47 -1 -17 -9 -39 -17 -50
-17 -26 0 -41 42 -33 89 16 93 63 137 111 106 31 -21 53 -13 53 19 0 51 -73
71 -139 39z"/>
<path d="M4482 1817 c-6 -6 -22 -68 -37 -137 -14 -69 -29 -138 -32 -154 -7
-33 7 -45 43 -38 16 3 26 13 30 31 20 89 26 104 35 90 5 -8 9 -30 9 -49 1 -68
8 -80 51 -80 51 0 56 14 41 103 -11 61 -10 72 3 87 41 45 39 114 -4 147 -21
16 -126 17 -139 0z"/>
<path d="M5450 1813 c-43 -78 -150 -298 -150 -308 0 -41 61 -25 83 21 14 29
22 34 52 34 30 0 35 -3 35 -24 0 -43 10 -56 44 -56 61 0 62 3 42 162 -23 178
-27 188 -66 188 -18 0 -34 -7 -40 -17z"/>
<path d="M2055 1408 c-10 -31 -45 -191 -45 -209 0 -20 12 -23 80 -19 19 1 38
7 42 13 15 24 8 37 -21 37 -38 0 -41 6 -31 60 22 125 22 130 0 130 -11 0 -23
-6 -25 -12z"/>
<path d="M2254 1413 c-12 -9 -62 -214 -56 -231 2 -7 27 -12 62 -12 49 0 61 3
70 20 15 28 5 40 -34 40 -30 0 -33 2 -28 25 3 20 10 25 33 25 18 0 32 6 36 15
7 20 2 24 -30 27 -21 2 -27 8 -27 25 0 19 5 23 34 23 31 0 66 23 53 36 -9 9
-101 15 -113 7z"/>
<path d="M2447 1414 c-4 -4 -7 -58 -7 -120 0 -105 1 -113 20 -119 27 -9 46 8
60 51 6 19 16 34 21 34 6 0 8 -9 4 -19 -3 -11 -3 -31 1 -45 5 -20 12 -26 34
-26 25 0 31 9 78 116 29 64 49 120 46 125 -3 5 -14 9 -25 9 -15 0 -27 -16 -48
-62 l-28 -61 -5 56 c-5 65 -9 71 -35 63 -12 -4 -28 -31 -43 -72 l-25 -67 -5
69 c-4 52 -9 70 -20 72 -9 1 -19 0 -23 -4z"/>
<path d="M2781 1301 c-52 -104 -58 -120 -43 -126 12 -4 25 3 44 25 30 37 59
37 68 0 6 -27 34 -38 54 -21 10 9 10 30 -1 113 -16 124 -17 128 -42 128 -16 0
-34 -27 -80 -119z"/>
<path d="M3016 1404 c-9 -23 1 -34 30 -34 20 0 24 -4 20 -17 -12 -38 -27 -165
-21 -171 3 -3 13 -2 22 4 15 9 32 63 47 147 6 30 11 37 30 37 26 0 51 24 41
40 -3 5 -41 10 -85 10 -62 0 -79 -3 -84 -16z"/>
<path d="M3352 1411 c-17 -10 -53 -168 -45 -199 16 -64 126 -51 163 19 13 23
39 171 33 182 -2 4 -15 7 -28 7 -24 0 -28 -11 -50 -141 -6 -41 -27 -64 -50
-55 -19 7 -19 52 -1 128 15 67 10 80 -22 59z"/>
<path d="M3573 1408 c-10 -14 -36 -155 -37 -203 -1 -27 2 -30 34 -33 82 -6
150 64 150 154 0 45 -4 56 -26 73 -30 24 -106 29 -121 9z"/>
<path d="M3816 1304 c-39 -76 -56 -118 -49 -125 14 -14 39 -2 51 27 17 36 60
33 64 -3 2 -22 9 -29 31 -31 37 -4 41 11 28 105 -21 147 -20 143 -44 143 -18
0 -33 -21 -81 -116z"/>
<path d="M4056 1404 c-16 -42 -46 -218 -38 -226 18 -18 42 4 48 43 9 57 21 56
29 -1 6 -47 9 -50 35 -50 35 0 39 11 28 72 -7 38 -6 53 7 70 22 33 19 74 -7
92 -30 21 -94 21 -102 0z"/>
<path d="M4334 1408 c-5 -7 -32 -60 -60 -118 -35 -70 -48 -107 -41 -112 15 -9
44 8 52 32 4 14 15 20 36 20 26 0 29 -3 29 -30 0 -27 3 -30 30 -30 29 0 30 1
29 48 0 26 -6 81 -13 122 -10 64 -15 75 -33 78 -12 2 -25 -3 -29 -10z"/>
<path d="M5185 481 c-3 -5 6 -23 20 -39 13 -16 22 -32 18 -36 -6 -5 -5 -108 0
-146 1 -8 10 -26 20 -40 18 -26 7 -40 -17 -21 -11 9 -19 6 -35 -15 -12 -15
-21 -35 -21 -45 0 -10 -10 -24 -22 -30 -13 -7 -32 -22 -43 -34 -24 -27 -142
-65 -202 -65 -38 0 -43 3 -43 23 -1 20 -2 20 -11 4 -6 -9 -14 -15 -20 -12 -5
4 -9 -1 -9 -9 0 -22 155 -23 196 -1 37 19 73 19 80 0 5 -13 24 -15 100 -14 84
1 92 3 82 18 -15 24 20 95 49 99 l23 3 -25 23 c-27 25 -33 56 -11 56 8 0 17
15 20 34 6 31 11 35 49 42 l42 8 -50 6 c-48 5 -50 6 -58 43 -7 30 -13 37 -27
32 -22 -7 -38 13 -17 21 15 5 12 44 -3 44 -6 0 -22 11 -67 50 -7 6 -14 6 -18
1z"/>
</g>
</svg>
