<?xml version="1.0" standalone="no"?>
<!DOCTYPE svg PUBLIC "-//W3C//DTD SVG 20010904//EN"
 "http://www.w3.org/TR/2001/REC-SVG-20010904/DTD/svg10.dtd">
<svg version="1.0" xmlns="http://www.w3.org/2000/svg"
 width="653.000000pt" height="366.000000pt" viewBox="0 0 653.000000 366.000000"
 preserveAspectRatio="xMidYMid meet">
<metadata>
Created by potrace 1.16, written by Peter Selinger 2001-2019
</metadata>
<g transform="translate(0.000000,366.000000) scale(0.100000,-0.100000)"
fill="#000000" stroke="none">
<path d="M1624 3651 c5 -8 136 -13 466 -15 52 -1 109 1 125 4 17 3 53 3 80 -1
28 -5 137 -10 243 -13 107 -2 195 -6 197 -8 2 -2 11 -41 20 -88 17 -84 22
-269 7 -280 -4 -3 -8 -20 -9 -39 -1 -19 -4 -35 -6 -37 -9 -10 -87 -13 -87 -4
0 5 -5 10 -10 10 -6 0 -9 -20 -8 -46 l3 -46 47 4 c31 3 45 1 42 -6 -3 -7 -24
-10 -54 -8 -48 4 -50 5 -45 30 l5 27 -12 -25 c-7 -14 -19 -31 -27 -39 -11 -13
-10 -17 9 -33 12 -10 20 -18 16 -18 -3 0 2 -9 11 -20 10 -11 27 -20 40 -20 12
0 28 -9 36 -21 11 -15 16 -17 20 -7 3 7 5 -3 4 -22 -1 -23 2 -34 11 -33 6 2
12 -4 12 -12 0 -8 -5 -15 -11 -15 -5 0 -7 -5 -4 -10 4 -6 8 -47 10 -91 2 -53
9 -87 18 -97 9 -10 15 -37 16 -69 0 -70 -29 -103 -93 -103 -105 0 -172 -63
-183 -174 -6 -55 3 -133 14 -122 3 3 12 1 19 -4 9 -8 12 -6 10 7 0 10 -5 21
-10 24 -5 4 2 24 15 45 13 22 31 52 39 68 24 47 83 41 127 -12 27 -33 29 -52
6 -53 -13 0 -11 -3 7 -11 24 -11 22 -12 -22 -18 -57 -7 -68 -16 -42 -34 18
-14 18 -15 2 -21 -22 -9 -23 -25 -2 -25 8 0 13 -4 10 -9 -3 -5 0 -14 7 -20 13
-10 11 -65 -8 -164 l-5 -28 37 36 c43 42 63 34 63 -26 0 -29 -5 -41 -21 -50
-23 -12 -85 -4 -106 13 -21 17 -15 -3 13 -39 14 -18 32 -33 41 -33 17 0 111
-73 126 -98 15 -23 87 134 87 188 l0 45 33 -37 c21 -23 50 -42 82 -52 78 -25
127 -57 158 -104 28 -41 29 -42 90 -44 120 -3 132 -4 155 -12 35 -12 26 -22
-30 -38 -48 -13 -55 -18 -77 -61 -35 -71 -32 -126 11 -217 25 -53 35 -85 32
-110 -2 -19 -4 -65 -4 -102 -1 -52 -4 -66 -15 -62 -18 7 -51 123 -59 205 -3
36 -13 85 -20 110 -14 44 -14 44 -12 -51 2 -52 9 -107 16 -122 16 -34 3 -54
-44 -66 -47 -12 -58 -43 -50 -137 4 -44 8 -111 8 -150 1 -38 7 -92 14 -120 6
-27 16 -102 22 -165 12 -137 16 -131 -118 -174 -48 -16 -93 -33 -99 -38 -7 -6
-39 -12 -70 -14 -32 -1 -114 -8 -183 -13 -191 -16 -383 -14 -427 4 -49 21 -74
20 -67 -3 5 -16 5 -16 -6 0 -6 9 -17 15 -25 12 -9 -4 -17 1 -21 12 -3 11 -10
27 -15 36 -5 10 -9 25 -9 33 0 8 -6 24 -12 35 -10 16 -10 24 -1 40 8 12 9 21
3 25 -23 14 -10 54 24 75 19 11 38 30 41 40 4 11 12 20 20 20 7 0 15 6 18 13
5 14 -10 143 -18 157 -4 6 8 10 27 10 46 0 131 46 152 82 25 42 118 134 143
142 25 8 43 34 67 99 10 26 33 66 52 88 35 42 43 69 22 69 -6 0 -8 -3 -5 -7 9
-9 -22 -43 -40 -43 -7 0 -13 -4 -13 -8 0 -5 -7 -17 -16 -28 -8 -10 -12 -13 -8
-5 5 10 1 11 -15 6 -13 -4 -28 -1 -36 5 -17 14 -20 71 -6 98 12 21 33 144 26
151 -10 9 -34 -34 -35 -62 0 -15 -6 -30 -14 -33 -9 -4 -13 -17 -12 -37 2 -18
1 -23 -1 -12 -5 18 -6 18 -19 -5 l-13 -25 -1 28 c0 16 -5 60 -12 98 -15 93
-31 75 -27 -30 3 -60 1 -81 -8 -81 -7 0 -13 -7 -13 -17 0 -27 -12 -6 -37 64
-12 36 -26 69 -29 72 -13 12 5 -106 26 -172 12 -38 19 -71 16 -74 -3 -4 -6 1
-6 9 0 9 -7 18 -15 22 -8 3 -15 11 -15 18 -1 21 -70 96 -70 76 0 -19 50 -98
62 -98 5 0 7 -4 4 -9 -5 -8 9 -60 25 -93 5 -10 18 -40 28 -68 20 -52 15 -66
-18 -58 -12 3 -18 -20 -24 -84 -1 -9 -4 -15 -8 -13 -3 3 -14 -4 -23 -14 -31
-34 -71 -45 -106 -30 -18 8 -30 21 -30 33 0 10 -5 16 -12 13 -7 -3 -20 -8 -28
-11 -17 -6 -48 31 -54 66 -4 24 -16 27 -72 14 -30 -7 -30 -6 -46 51 -9 32 -19
73 -22 91 -9 55 -38 104 -71 123 l-32 19 -6 116 c-4 64 -4 135 0 159 4 32 0
55 -15 87 -11 24 -23 55 -26 70 -3 15 -22 39 -42 54 -29 23 -37 25 -45 13 -7
-11 -9 -11 -9 4 0 23 -19 22 -41 -5 -23 -26 -27 -57 -4 -38 17 14 36 5 29 -15
-4 -10 4 -15 28 -17 28 -3 23 -5 -31 -15 -35 -7 -86 -25 -115 -41 -64 -36 -98
-98 -102 -187 -3 -44 -1 -52 5 -30 13 49 50 114 70 125 11 5 30 10 43 9 19 -1
17 -3 -9 -11 -34 -11 -45 -28 -18 -28 20 0 19 -10 -2 -26 -17 -13 -17 -13 0
-14 14 0 17 -5 12 -20 -3 -11 -2 -20 3 -20 13 0 11 -15 -7 -57 -11 -27 -11
-39 -1 -63 7 -16 14 -30 16 -30 5 0 54 50 54 55 0 3 -9 5 -20 5 -13 0 -18 5
-13 16 7 18 49 15 45 -4 -1 -6 5 -12 13 -12 8 0 15 -4 15 -10 0 -5 -7 -10 -15
-10 -13 0 -13 -4 -3 -23 7 -12 17 -25 21 -28 14 -10 -16 -49 -36 -49 -10 0
-32 7 -48 16 -17 8 -40 17 -51 19 -19 4 -91 63 -136 113 -34 38 -36 21 -3 -25
32 -45 98 -100 152 -127 45 -23 69 -71 46 -93 -13 -14 -18 -13 -45 7 -17 12
-35 19 -41 16 -6 -4 -11 -2 -11 3 0 6 -8 11 -19 11 -10 0 -24 7 -31 15 -7 8
-16 15 -20 15 -14 0 2 -40 22 -54 13 -9 16 -16 9 -21 -6 -3 -8 -11 -5 -17 5
-7 0 -9 -14 -6 -12 4 -22 3 -22 -1 0 -4 -36 -5 -81 -3 -94 5 -133 -3 -125 -23
3 -8 1 -17 -3 -20 -5 -2 -12 -21 -15 -40 -4 -20 -11 -33 -15 -30 -27 16 -28
-92 -1 -120 54 -56 60 -65 46 -65 -8 0 -16 5 -18 12 -6 18 -28 0 -29 -25 -1
-13 -4 -7 -8 13 l-6 35 -18 -50 c-10 -27 -27 -66 -37 -85 -10 -20 -21 -48 -24
-64 -6 -32 -24 -58 -36 -51 -4 3 -10 -2 -13 -10 -11 -27 -66 -47 -98 -36 -23
8 -29 7 -29 -5 0 -7 -4 -14 -10 -14 -5 0 -10 -7 -10 -15 0 -9 -12 -28 -28 -43
-15 -15 -32 -36 -37 -47 -13 -25 -61 -35 -52 -11 5 13 0 13 -41 -2 -45 -16
-49 -22 -90 -105 -47 -95 -99 -281 -94 -334 l3 -33 354 0 353 0 7 65 c4 36 5
75 1 88 -7 28 4 157 14 157 5 0 6 -10 3 -22 -3 -17 -2 -19 5 -9 7 10 14 11 31
2 25 -14 28 -46 5 -55 -12 -4 -14 -13 -10 -32 5 -18 2 -31 -11 -42 -13 -13
-19 -34 -20 -84 l-2 -68 384 0 385 0 0 40 c0 43 14 54 25 19 6 -18 40 -25 37
-6 0 4 -9 44 -18 88 -15 67 -22 82 -41 90 -22 8 -23 11 -18 110 2 56 9 107 14
113 11 13 -42 253 -59 270 -17 17 -11 25 30 46 55 28 70 26 70 -10 0 -20 -8
-35 -25 -46 -30 -20 -31 -33 -6 -65 11 -15 22 -49 25 -84 4 -33 12 -95 18
-138 l12 -77 37 0 c23 0 41 6 46 15 7 12 17 8 52 -25 23 -22 46 -40 50 -40 4
0 11 -12 17 -27 7 -21 6 -31 -6 -43 -8 -8 -24 -48 -35 -88 -10 -39 -22 -72
-25 -72 -14 0 -31 53 -20 64 5 5 10 25 10 42 0 44 -46 79 -84 64 -25 -9 -26
-12 -26 -105 l0 -95 29 0 c27 0 29 2 25 33 l-5 32 20 -32 c17 -27 27 -33 57
-33 28 0 37 5 41 21 10 35 46 20 57 -24 l10 -38 573 1 c357 1 571 5 568 11 -4
5 -1 9 4 9 6 0 11 -4 11 -10 0 -5 5 -10 10 -10 6 0 10 7 10 16 0 8 5 12 10 9
6 -4 8 -11 5 -16 -4 -5 1 -9 10 -9 9 0 13 5 10 10 -3 6 -1 10 4 10 6 0 11 -4
11 -8 0 -5 32 -10 72 -10 57 -1 74 2 84 16 13 16 13 16 14 0 0 -15 9 -18 45
-18 28 0 45 4 45 12 0 9 3 9 12 0 9 -9 223 -12 899 -12 816 0 888 1 891 16 3
15 24 17 188 16 102 -1 222 -2 267 -2 70 0 81 -2 77 -15 -6 -14 12 -15 135
-14 136 1 141 2 141 21 0 19 -2 20 -17 7 -10 -8 -30 -16 -45 -17 -22 -3 -28 2
-38 33 -7 20 -10 48 -7 63 6 29 -14 55 -36 46 -8 -3 -21 2 -30 10 -23 24 -37
19 -49 -15 -7 -20 -14 -27 -20 -21 -7 7 -7 61 -2 154 5 79 8 148 9 153 0 6 -7
10 -15 10 -22 1 -15 54 9 71 10 8 18 21 17 29 -3 18 -16 32 -16 17 0 -7 -4
-12 -10 -12 -5 0 -10 6 -10 13 0 11 -63 15 -322 20 -308 7 -576 22 -587 33 -3
3 0 14 7 24 17 28 -3 25 -23 -2 l-17 -23 7 24 c5 15 2 27 -6 33 -11 6 -9 8 6
6 17 -2 21 4 25 37 3 25 8 35 13 27 5 -6 5 -17 2 -22 -3 -6 -3 -19 0 -31 5
-16 9 -18 21 -8 11 9 12 14 3 19 -7 5 -8 16 -4 30 8 26 21 17 30 -22 5 -18 3
-28 -4 -28 -6 0 -11 -7 -11 -15 0 -20 23 -19 43 3 19 21 35 98 18 88 -6 -4
-11 -15 -11 -24 0 -14 -3 -14 -18 4 -43 53 -96 51 -107 -2 -5 -30 -8 -33 -20
-20 -18 17 -20 30 -4 20 9 -5 10 1 5 20 -4 15 -2 26 4 26 21 0 9 20 -15 26
-14 3 -25 12 -25 20 0 7 -10 20 -22 28 -21 15 -21 16 -3 16 17 0 18 2 5 11
-11 7 -4 8 27 4 36 -6 42 -4 48 15 5 15 1 26 -12 35 -10 9 -13 14 -5 15 6 0
12 5 12 11 0 7 -11 9 -30 5 -19 -3 -30 -1 -30 5 0 7 -12 10 -28 7 -25 -3 -28
-1 -24 18 2 12 -2 25 -9 29 -8 6 -10 4 -4 -5 5 -9 4 -11 -3 -6 -7 4 -12 18
-12 32 0 13 -4 24 -10 24 -5 0 -10 5 -10 11 0 5 4 8 9 5 5 -3 12 1 15 10 10
25 7 74 -4 74 -5 0 -10 -9 -10 -21 0 -27 -16 -16 -22 15 -4 22 -1 25 26 28
l31 4 -25 11 c-32 14 -60 0 -60 -30 0 -13 -9 -40 -19 -60 -19 -38 -19 -38 1
-31 17 5 19 3 13 -18 -7 -22 -7 -22 8 -3 14 19 15 18 9 -10 -3 -16 -11 -36
-19 -43 -7 -7 -13 -22 -13 -32 0 -10 -5 -22 -11 -25 -5 -4 -8 -12 -6 -18 6
-17 -43 -47 -76 -47 -20 0 -33 9 -48 32 -21 35 -21 73 -1 135 10 32 10 33 -36
58 -26 14 -75 39 -109 55 -35 17 -63 34 -63 39 0 19 35 21 82 5 39 -12 52 -13
63 -4 20 17 19 59 -3 117 -12 33 -16 64 -12 100 8 75 27 88 35 23 5 -42 13
-49 31 -26 26 36 17 74 -23 95 -19 9 -26 8 -41 -7 -18 -18 -20 -18 -30 -2 -10
17 -66 21 -90 6 -6 -3 -14 -1 -18 5 -4 6 -19 9 -36 5 -23 -5 -28 -3 -22 7 11
14 11 37 2 53 -4 6 -12 31 -17 56 -6 24 -13 51 -16 60 -5 13 32 14 311 12 174
-2 318 -4 320 -6 2 -2 -1 -69 -5 -148 -5 -80 -6 -148 -2 -152 6 -7 499 -21
1026 -31 l120 -2 -3 -67 -2 -68 55 0 55 0 0 473 -1 472 -34 -37 -34 -37 -35
42 c-18 23 -43 61 -55 84 l-20 41 68 65 c38 36 78 68 89 72 20 6 20 15 21 600
1 399 -2 595 -9 595 -5 0 -10 7 -10 15 0 8 5 15 10 15 6 0 10 5 10 10 0 6 -62
10 -165 10 l-165 0 0 -24 0 -25 -182 3 c-101 2 -272 4 -381 5 -190 1 -199 2
-204 21 -5 20 -14 20 -1910 20 -1153 0 -1902 -4 -1899 -9z m1197 -184 c45 -26
50 -27 55 -12 9 23 31 18 38 -9 4 -15 15 -26 27 -28 12 -2 27 -12 33 -23 6
-11 12 -22 14 -25 2 -2 7 2 12 9 7 12 13 11 37 -5 15 -10 33 -19 38 -19 6 -1
9 -7 7 -15 -2 -8 -7 -46 -12 -85 -5 -38 -12 -88 -16 -109 -5 -33 -4 -38 10
-33 11 5 20 -1 27 -16 8 -20 9 -19 5 7 -6 41 2 56 30 56 21 0 24 -3 18 -27 -6
-28 -6 -28 15 4 14 23 26 31 38 27 15 -5 15 -4 3 4 -12 9 -12 14 0 36 22 42
46 33 78 -29 12 -22 21 -34 22 -27 0 6 9 12 20 12 19 0 26 -19 21 -57 -1 -8 5
-10 15 -6 14 5 16 2 10 -23 -10 -40 -35 -76 -49 -71 -7 2 -15 17 -18 33 l-7
29 -1 -27 c-1 -21 -5 -26 -18 -21 -10 3 -7 -3 7 -12 55 -40 80 -69 80 -96 0
-15 -5 -29 -11 -31 -9 -3 -9 -9 0 -25 6 -12 8 -30 4 -40 -3 -10 -3 -15 2 -11
4 4 14 3 22 -3 14 -12 13 -22 14 223 1 51 3 96 6 101 3 5 14 0 25 -10 16 -14
20 -14 16 -3 -3 8 -1 23 4 34 7 12 7 16 0 12 -6 -3 -13 -2 -17 4 -4 6 -11 8
-16 5 -5 -4 -9 13 -8 37 0 29 3 37 8 25 6 -17 8 -16 19 7 6 15 20 26 31 26 22
0 46 -50 37 -78 -4 -11 -3 -23 2 -25 14 -10 29 7 35 42 9 42 24 62 43 54 19
-7 18 -51 -2 -109 -10 -30 -14 -62 -10 -86 3 -21 3 -38 -2 -38 -4 0 -9 -31
-10 -70 -2 -46 1 -70 8 -70 7 0 11 14 10 33 -4 62 -1 82 11 70 6 -6 11 -43 12
-82 0 -52 4 -71 14 -71 10 0 11 5 3 19 -11 22 -14 88 -3 77 4 -4 7 -21 8 -39
0 -28 3 -32 24 -29 24 4 24 3 18 -55 -5 -45 -3 -54 5 -38 16 28 30 36 53 28
29 -8 35 -22 30 -73 -4 -35 -3 -39 4 -20 5 14 9 39 10 55 1 18 10 38 23 49 15
13 19 14 15 4 -3 -8 -1 -21 3 -29 7 -11 10 -10 16 4 4 12 13 15 30 11 20 -5
24 -2 24 16 0 15 5 20 18 18 14 -3 16 -12 14 -53 -2 -28 -5 -59 -8 -70 -5 -20
-5 -20 10 -1 22 27 33 12 15 -20 -17 -33 -38 -42 -53 -23 -13 17 -36 23 -36 9
0 -6 6 -10 13 -10 21 -1 57 -37 57 -58 0 -34 -37 -34 -61 -1 -11 16 -17 29
-13 29 5 0 3 5 -4 12 -15 15 -16 45 0 50 6 2 8 10 4 17 -6 9 -12 5 -22 -14
-11 -21 -11 -35 -2 -73 15 -59 43 -100 52 -76 4 9 11 12 18 7 7 -4 18 -8 23
-8 14 0 18 -101 6 -122 -6 -10 -11 -12 -11 -5 0 6 -10 12 -23 12 -15 0 -29 11
-41 32 -18 29 -20 30 -32 13 -13 -18 -14 -18 -14 1 0 12 -3 24 -7 28 -12 11
-10 116 2 116 6 0 3 5 -5 10 -8 5 -10 10 -5 10 6 0 4 4 -4 9 -8 5 -32 8 -53 7
-21 -2 -41 1 -44 5 -3 5 -13 2 -22 -7 -15 -15 -14 -18 4 -31 19 -14 19 -15 -1
-11 -16 2 -21 -3 -23 -31 -4 -40 5 -81 17 -81 13 0 20 36 10 51 -11 18 0 32
16 19 7 -6 11 -19 8 -29 -3 -10 0 -22 6 -25 15 -10 14 -63 -1 -69 -10 -4 -10
-8 1 -15 7 -5 9 -12 4 -15 -6 -4 -19 1 -29 11 -24 21 -118 82 -128 82 -4 0
-22 11 -39 24 -18 13 -43 27 -57 31 -33 10 -40 22 -40 68 0 41 -5 44 -38 21
-12 -8 -22 -11 -22 -7 0 12 -70 32 -76 21 -6 -10 -64 -6 -84 7 -9 5 -15 4 -18
-3 -6 -18 -49 -14 -57 6 -6 16 -7 16 -16 -1 -13 -22 -29 -13 -30 16 0 22 0 22
-10 -1 -10 -25 -5 -42 12 -42 14 0 32 -20 49 -55 8 -16 23 -30 33 -30 23 0 17
-19 -6 -20 -36 -3 -41 -45 -10 -90 13 -19 13 -19 13 3 0 12 5 22 10 22 6 0 10
-15 10 -34 0 -36 12 -46 56 -46 19 0 28 -8 39 -32 l13 -33 4 30 c3 26 7 30 33
30 27 0 30 -4 37 -40 4 -22 8 -58 9 -80 1 -35 3 -31 14 29 12 67 34 101 60 93
15 -5 28 -178 18 -240 -6 -37 -13 -53 -26 -55 -15 -3 -17 5 -17 54 0 66 -14
63 -27 -6 -14 -70 -37 -60 -44 20 -5 64 -10 55 -13 -25 -1 -33 -5 -40 -21 -40
-19 0 -20 8 -23 105 -3 96 -4 102 -16 75 -9 -20 -10 -39 -4 -56 5 -15 8 -49 6
-75 -3 -41 -6 -49 -23 -49 -17 0 -20 8 -23 45 -4 72 -16 80 -22 15 -4 -53 -8
-60 -27 -63 -23 -3 -23 -3 -24 140 -1 79 -1 147 0 151 1 5 -3 6 -9 2 -5 -3
-10 -1 -10 4 0 6 -7 11 -16 11 -13 0 -12 -4 4 -27 17 -25 19 -41 14 -138 -5
-115 -13 -138 -54 -148 -13 -4 -28 3 -44 18 -22 22 -24 32 -24 123 0 98 13
162 32 162 6 0 8 7 4 15 -3 8 0 15 7 15 8 0 6 4 -3 10 -8 5 -11 10 -7 10 5 0
-1 12 -12 26 -12 15 -21 32 -21 40 0 19 -63 26 -152 15 -5 -1 -8 -8 -8 -16 0
-34 -19 -12 -24 28 -8 66 -15 880 -8 945 6 56 6 56 12 19 4 -20 9 -38 11 -40z
m1194 -271 c-1 -22 0 -51 3 -64 4 -23 4 -23 18 4 8 14 14 33 14 41 0 26 30 72
51 78 33 11 70 -32 76 -86 3 -35 -2 -56 -24 -99 -31 -60 -67 -79 -100 -54 -28
21 -29 18 -32 -42 -1 -35 -8 -62 -18 -72 -14 -14 -15 -3 -9 124 3 76 6 162 6
189 0 34 3 45 9 36 5 -7 8 -32 6 -55z m986 -2 l5 -29 8 25 c9 28 35 60 48 60
4 0 8 -15 9 -32 0 -31 1 -32 11 -10 6 13 19 21 27 20 22 -4 25 -49 7 -112 -9
-30 -16 -68 -16 -85 0 -17 -4 -31 -9 -31 -16 0 -22 33 -16 94 7 69 -10 61 -21
-10 -7 -50 -18 -69 -34 -59 -8 5 -10 26 -5 69 7 69 -3 62 -30 -21 -11 -33 -23
-53 -33 -53 -12 0 -14 10 -9 63 4 34 10 79 13 100 4 25 3 37 -5 37 -6 0 -11
-16 -11 -35 0 -19 -4 -35 -10 -35 -16 0 -12 53 6 78 14 21 18 22 37 9 12 -8
24 -27 28 -43z m-723 14 c2 -20 -5 -35 -25 -54 l-28 -26 28 7 c19 5 28 3 33
-8 5 -13 9 -12 26 5 11 11 26 17 35 14 8 -3 22 -6 30 -6 13 0 14 -9 9 -52 -5
-34 -4 -49 2 -43 6 6 12 39 14 75 3 62 2 65 -21 68 -13 2 -28 -1 -34 -7 -15
-15 -27 -14 -27 4 0 21 37 37 69 30 21 -4 30 -2 35 11 5 13 9 14 21 4 8 -7 15
-21 15 -31 0 -27 34 -24 53 4 15 21 16 21 16 2 1 -29 -18 -45 -50 -45 -34 0
-39 -7 -45 -72 l-6 -53 23 34 c30 44 36 24 9 -28 -19 -39 -38 -50 -54 -34 -3
4 -26 8 -49 9 -23 1 -48 3 -54 3 -7 1 -13 9 -13 19 0 15 -3 14 -18 -5 -12 -15
-28 -21 -55 -21 -20 0 -39 3 -42 8 -8 13 21 154 39 188 22 42 59 42 64 0z
m-423 -7 c3 -10 3 -25 0 -33 -9 -24 21 -29 41 -7 29 32 74 18 74 -23 0 -23 -9
-23 -26 0 -10 13 -15 14 -25 5 -9 -9 -9 -18 1 -42 10 -26 16 -30 36 -25 19 5
23 3 18 -10 -3 -9 -10 -16 -15 -16 -5 0 -9 -13 -9 -30 0 -33 -40 -68 -62 -54
-32 20 -58 49 -58 66 0 10 -4 18 -10 18 -5 0 -10 -7 -10 -15 0 -12 -13 -15
-60 -14 -35 1 -64 7 -71 15 -8 10 -14 9 -30 -7 -46 -46 -78 -5 -59 78 11 45
17 53 37 53 12 0 28 -8 34 -19 12 -17 13 -17 30 0 14 14 24 16 41 10 20 -8 23
-15 20 -61 -2 -34 1 -49 8 -45 5 3 10 23 10 44 0 40 16 97 33 119 14 18 45 15
52 -7z m788 -3 c2 -7 0 -26 -4 -43 -4 -16 -9 -46 -12 -65 l-6 -35 19 43 c18
40 22 43 52 40 33 -3 33 -3 30 -50 -2 -29 1 -48 7 -48 6 0 11 11 11 24 0 33
17 76 30 76 5 0 10 -7 10 -15 0 -20 10 -19 25 2 19 26 35 8 24 -30 -14 -49
-11 -66 6 -43 25 33 29 9 5 -29 -25 -41 -43 -35 -43 14 0 17 -4 28 -9 25 -4
-3 -8 -11 -8 -18 0 -30 -29 -40 -84 -29 -82 14 -91 4 -82 -96 4 -50 3 -82 -4
-86 -10 -6 -16 78 -11 151 3 37 -11 50 -29 29 -11 -14 -15 -14 -31 1 -23 20
-24 43 -5 89 9 22 22 35 37 37 16 2 25 13 31 36 8 32 32 44 41 20z m665 -34
c-3 -25 0 -34 14 -37 22 -6 23 -21 3 -40 -12 -12 -12 -21 -4 -46 12 -34 5 -66
-11 -56 -6 4 -17 21 -25 38 -13 31 -14 31 -20 9 -7 -20 -13 -22 -59 -19 -66 4
-76 11 -76 51 0 42 33 87 51 69 6 -6 18 -9 27 -6 13 5 14 -2 8 -48 -4 -36 -3
-49 3 -39 5 8 13 37 16 65 11 75 32 109 63 98 9 -4 13 -17 10 -39z m101 -41
c22 -5 23 -9 17 -54 -4 -28 -3 -49 3 -49 11 0 21 25 21 55 0 30 10 55 21 55 5
0 9 -7 9 -17 0 -14 2 -14 20 2 29 26 43 9 30 -35 -13 -44 -13 -63 0 -55 5 3
14 24 20 45 12 45 35 62 66 50 19 -8 21 -14 16 -56 -7 -61 13 -52 22 11 8 48
20 58 32 23 6 -20 7 -21 17 -2 28 51 50 36 36 -25 -5 -24 -7 -52 -4 -62 4 -13
1 -19 -9 -19 -9 0 -18 12 -22 28 -10 47 -12 48 -19 14 -8 -32 -8 -33 -59 -30
-28 1 -57 6 -64 11 -8 7 -19 4 -32 -8 -26 -23 -35 -14 -35 36 0 34 -1 37 -8
17 -16 -41 -25 -53 -39 -50 -7 2 -32 4 -55 4 l-43 1 0 47 c0 25 5 51 12 58 14
14 15 14 47 5z m-1296 -261 c11 -10 17 -30 18 -61 0 -25 3 -40 6 -33 2 6 12
12 20 12 13 0 15 -9 10 -50 -7 -58 8 -59 20 -2 4 20 7 41 8 46 0 17 25 18 31
2 6 -15 8 -15 20 1 11 15 16 16 33 5 19 -11 21 -10 21 18 0 24 4 30 21 30 21
0 21 -9 3 -125 -4 -27 -4 -28 7 -10 7 11 13 21 15 23 8 10 44 -26 44 -45 0
-29 -20 -40 -35 -20 -8 11 -15 13 -22 6 -10 -10 -43 -2 -43 11 0 4 -11 19 -25
34 l-25 27 -15 -34 c-10 -25 -22 -36 -42 -40 -30 -6 -53 7 -53 29 0 20 -8 17
-33 -11 -12 -14 -34 -26 -49 -27 -26 -2 -33 -10 -29 -32 1 -4 2 -33 2 -62 1
-39 5 -54 15 -54 15 0 19 -12 7 -24 -14 -13 -10 -46 6 -46 11 -1 9 -4 -7 -13
-17 -10 -20 -15 -10 -25 7 -7 18 -12 25 -12 7 0 17 -9 23 -19 13 -25 13 -98 0
-106 -7 -4 -7 -12 0 -25 34 -63 -8 -140 -76 -140 l-37 0 6 233 c4 127 7 275 7
328 0 85 2 97 17 95 12 -1 19 11 25 38 11 54 5 67 -15 31 l-16 -30 -1 33 c0
58 75 85 123 44z m722 22 c21 -9 45 -56 45 -92 0 -42 -37 -119 -66 -139 -20
-13 -30 -14 -50 -5 -39 18 -47 55 -25 110 11 26 22 59 25 74 6 27 30 58 46 58
5 0 16 -3 25 -6z m-296 -46 c5 -13 5 -31 -1 -40 -7 -14 -5 -18 12 -18 24 0 27
-31 5 -50 -11 -9 -12 -17 -5 -30 6 -10 10 -28 10 -40 0 -33 -34 -21 -41 15
l-6 30 -7 -27 c-9 -30 -33 -37 -42 -13 -4 8 -1 45 6 82 11 68 32 113 51 113 5
0 13 -10 18 -22z m113 -59 c14 -8 18 -17 14 -34 -3 -13 -2 -26 3 -30 13 -7
-19 -63 -39 -70 -9 -3 -16 -20 -18 -46 -1 -22 -9 -55 -16 -72 -14 -30 -14 -27
-17 63 -3 140 0 163 23 183 24 20 24 20 50 6z m268 -16 c1 -17 1 -17 11 0 5 9
19 17 29 17 15 0 20 -7 20 -27 l1 -28 15 28 c10 19 21 27 31 23 8 -3 22 -6 30
-6 13 0 15 -9 10 -50 -7 -61 8 -67 18 -7 4 23 11 49 16 57 7 12 10 11 15 -7 3
-13 8 -23 11 -23 3 0 13 10 23 23 26 31 34 16 23 -42 -7 -34 -7 -53 1 -61 7
-7 3 -10 -12 -10 -19 0 -22 6 -22 38 l-1 37 -17 -35 c-16 -33 -20 -35 -71 -35
-46 -1 -55 2 -64 22 -6 13 -16 23 -24 23 -7 0 -13 5 -13 10 0 21 -17 9 -31
-22 -8 -18 -18 -32 -24 -30 -10 3 -10 84 0 110 7 18 25 15 25 -5z m350 2 c17
-21 7 -137 -14 -171 -12 -17 -25 -24 -39 -22 -20 3 -22 8 -20 51 2 26 -1 47
-6 47 -10 0 7 79 22 98 13 17 42 15 57 -3z m122 -47 c-4 -47 -3 -51 10 -40 9
7 21 33 28 57 14 50 30 60 30 19 l0 -26 18 22 c14 17 23 20 46 14 27 -7 28 -8
22 -56 -9 -62 14 -63 28 -2 14 65 18 72 26 44 l6 -25 15 23 c31 49 50 17 27
-48 -9 -26 -9 -35 0 -38 19 -6 14 -22 -8 -22 -17 0 -20 7 -21 43 l-2 42 -10
-37 -10 -38 -64 1 c-62 1 -63 2 -72 33 l-9 31 -1 -33 c-2 -66 -42 -129 -75
-116 -19 7 -19 55 0 61 7 2 10 -6 6 -24 -3 -19 -1 -25 5 -18 17 16 25 76 10
74 -41 -5 -55 32 -32 87 20 49 33 35 27 -28z m-1053 -324 c17 -39 14 -64 -9
-64 -14 0 -20 -7 -20 -22 0 -21 1 -21 13 -3 13 17 14 17 19 -3 9 -34 -2 -73
-21 -70 -13 3 -17 -10 -21 -72 -5 -72 -6 -75 -30 -75 l-25 0 3 121 c3 114 2
122 -16 126 -11 3 -22 14 -25 24 -2 11 -2 5 0 -13 17 -142 22 -248 10 -255
-23 -14 -34 -8 -43 25 -11 38 -36 42 -44 8 -3 -14 -11 -26 -18 -29 -15 -5 -16
43 -1 163 13 108 31 157 53 149 9 -3 16 -1 16 5 0 16 31 13 51 -5 17 -15 60
-12 58 4 -5 30 35 19 50 -14z m-794 -61 c3 -32 10 -76 15 -98 8 -34 6 -44 -15
-71 -23 -30 -75 -64 -97 -64 -14 0 7 210 28 278 2 6 17 12 33 12 29 0 30 -2
36 -57z m391 32 c31 -48 6 -265 -31 -265 -7 0 -15 9 -18 20 -3 11 -2 20 3 20
13 0 19 56 13 129 -7 80 -26 92 -30 20 -2 -24 -6 -59 -9 -78 -5 -31 -6 -32
-19 -15 -17 22 -20 130 -5 168 14 37 72 37 96 1z m582 -17 c10 -21 11 -52 4
-134 -10 -121 -21 -137 -82 -132 l-35 3 -1 130 c-2 171 -3 167 54 163 40 -3
49 -7 60 -30z m123 1 c4 -15 10 -81 14 -148 7 -119 7 -121 -14 -121 -17 0 -21
6 -21 30 0 17 -5 30 -12 30 -9 0 -13 -21 -14 -68 -3 -152 -4 -172 -14 -172 -6
0 -10 36 -10 89 0 81 -2 90 -20 96 -24 8 -24 6 -6 92 8 37 17 99 21 136 l7 68
31 -3 c23 -2 32 -9 38 -29z m170 19 c3 -65 0 -290 -4 -294 -3 -3 -14 -3 -25 0
-15 5 -22 23 -32 81 -7 41 -16 75 -20 75 -4 0 -8 -30 -9 -67 -2 -63 -13 -89
-33 -77 -10 6 -10 89 -1 202 6 81 6 82 34 82 25 0 28 -4 34 -50 9 -63 25 -56
25 11 0 37 4 49 15 49 8 0 15 -6 16 -12z m137 -1 c6 -7 13 -37 16 -67 2 -30 5
-62 6 -70 1 -8 8 14 16 50 19 88 20 90 48 90 l25 0 -5 -92 c-11 -199 -10 -193
-29 -197 -16 -3 -17 3 -11 68 9 91 -8 94 -20 4 -8 -58 -12 -68 -29 -68 -17 0
-21 9 -26 60 -4 48 -6 52 -7 20 -3 -58 -12 -85 -30 -85 -13 0 -14 18 -8 142 4
78 9 145 12 150 8 12 30 10 42 -5z m223 -32 c4 -16 9 -81 12 -142 5 -91 3
-113 -8 -113 -8 0 -15 12 -17 28 -2 19 -9 28 -26 30 -18 3 -23 -2 -28 -27 -7
-35 -34 -42 -34 -9 0 21 37 231 46 256 8 25 47 9 55 -23z m91 -18 c-2 -26 -1
-47 2 -47 3 0 17 23 31 50 14 28 30 50 35 50 14 0 13 -12 -6 -56 -16 -38 -15
-104 2 -201 5 -25 3 -33 -8 -33 -10 0 -19 19 -27 55 -7 30 -16 55 -21 55 -5 0
-12 -25 -15 -55 -6 -46 -11 -55 -27 -55 -18 0 -19 6 -13 133 8 153 9 160 32
155 15 -3 17 -12 15 -51z m189 -13 c20 -186 21 -224 5 -224 -9 0 -17 6 -17 13
-1 6 -2 19 -3 27 0 8 -11 16 -23 18 -17 2 -23 -3 -28 -27 -7 -33 -35 -43 -35
-13 0 45 49 255 61 263 25 16 34 3 40 -57z m118 6 c6 -28 12 -61 13 -73 1 -12
4 9 7 47 4 46 11 71 20 74 11 4 13 -18 9 -130 -2 -74 -8 -139 -12 -146 -16
-27 -33 2 -40 68 -3 37 -10 78 -14 91 -7 19 -10 13 -15 -32 -4 -30 -7 -71 -7
-91 0 -27 -4 -38 -15 -38 -12 0 -15 15 -15 73 0 39 3 102 7 140 5 61 8 67 29
67 19 0 24 -8 33 -50z m178 -90 c7 -77 9 -138 3 -144 -13 -13 -30 2 -30 28 0
12 -3 26 -6 29 -12 11 -44 -13 -44 -33 0 -20 -17 -36 -27 -26 -6 5 31 238 43
274 2 7 14 12 26 10 22 -3 24 -10 35 -138z m98 75 c9 -83 25 -94 25 -18 0 62
11 90 29 79 7 -5 10 -29 6 -69 -2 -34 -7 -97 -11 -139 -4 -55 -10 -78 -19 -78
-18 0 -26 24 -32 103 -7 77 -23 101 -23 34 0 -77 -12 -137 -26 -137 -16 0 -18
52 -8 198 7 87 8 92 30 92 20 0 23 -6 29 -65z m-325 -455 c23 -23 27 -75 6
-83 -19 -8 -26 1 -26 33 0 37 -21 54 -44 37 -15 -11 -20 -36 -26 -148 -7 -117
-6 -136 8 -146 24 -20 42 -15 52 13 15 38 12 91 -6 108 -20 21 -10 36 24 36
l28 0 -4 -72 c-4 -91 -23 -122 -75 -124 -52 -3 -60 25 -55 184 3 101 7 135 21
155 21 33 68 36 97 7z m182 -7 c18 -22 13 -124 -6 -139 -14 -10 -14 -15 -2
-38 9 -19 12 -48 9 -94 -7 -94 -23 -102 -23 -12 0 85 -6 98 -40 102 -24 3 -25
1 -28 -65 -2 -44 -7 -65 -14 -61 -6 4 -8 -1 -3 -15 5 -15 2 -21 -10 -21 -14 0
-15 15 -10 133 6 118 13 232 14 232 50 0 103 -10 113 -22z m162 -65 c4 -46 9
-123 12 -173 3 -49 7 -96 9 -103 3 -9 -2 -12 -13 -10 -11 2 -19 15 -22 38 -4
27 -10 36 -28 38 -32 5 -52 -15 -52 -49 0 -19 -5 -29 -15 -29 -8 0 -15 3 -15
8 1 33 53 312 65 350 3 6 15 12 28 12 23 0 24 -4 31 -82z m419 45 c9 -21 9
-27 -1 -31 -7 -2 -10 -8 -6 -13 3 -5 1 -9 -4 -9 -5 0 -12 14 -16 31 -3 18 -10
28 -16 24 -6 -4 -19 -1 -28 6 -9 7 -14 10 -10 5 4 -4 3 -18 -2 -31 -13 -33 5
-89 46 -142 30 -40 33 -49 27 -86 -12 -77 -56 -116 -93 -82 -11 10 -17 22 -14
26 3 5 0 9 -5 9 -15 0 -14 37 0 46 7 4 10 1 7 -7 -6 -17 23 -48 49 -53 17 -4
20 2 22 40 2 43 -32 134 -50 134 -15 0 -27 58 -19 100 9 48 21 60 68 60 26 0
35 -6 45 -27z m-1789 -113 c11 -22 24 -40 29 -40 10 0 36 -29 37 -41 0 -3 -24
-4 -52 -2 -45 2 -50 1 -30 -9 21 -11 30 -27 15 -29 -5 0 -17 -3 -28 -5 -11 -3
-30 -6 -42 -7 -25 -2 -26 -3 -13 -32 9 -19 9 -19 16 3 6 20 11 23 38 18 17 -4
38 -7 46 -8 8 0 21 -5 28 -11 14 -11 17 -41 2 -32 -6 4 -7 -1 -3 -10 3 -10 0
-21 -8 -25 -11 -7 -10 -13 6 -30 25 -28 9 -55 -32 -56 -18 0 -44 -12 -63 -27
-17 -15 -39 -27 -49 -27 -9 0 -40 24 -68 53 -46 47 -52 58 -58 109 -7 57 -7
58 21 68 16 6 39 9 51 5 13 -3 23 -1 23 5 0 5 -18 10 -40 10 -36 0 -40 2 -40
26 0 35 27 90 55 112 14 12 43 18 81 20 l59 2 19 -40z m-290 5 c-4 -15 -2 -25
5 -25 21 0 11 -39 -16 -64 -19 -18 -29 -22 -35 -13 -5 8 -9 7 -13 -4 -6 -16
-34 -22 -36 -7 -3 18 -5 24 -14 39 -14 22 -86 69 -107 69 -18 0 -24 11 -11 23
3 4 57 7 120 7 l113 0 -6 -25z m-294 -276 c11 -57 22 -122 25 -144 2 -22 7
-50 11 -62 4 -14 2 -23 -5 -23 -6 0 -11 -9 -11 -20 0 -11 -4 -20 -10 -20 -5 0
-7 7 -4 15 5 11 -1 15 -25 15 -29 0 -43 -14 -20 -22 6 -2 7 -12 1 -27 -9 -24
-9 -24 -15 8 -6 28 -9 31 -27 21 -21 -11 -36 -51 -27 -73 3 -7 -3 -13 -13 -14
-10 -1 -20 7 -23 18 -4 15 -14 19 -47 19 -52 0 -142 41 -167 75 -10 14 -30 42
-45 62 -37 48 -39 115 -4 138 19 13 28 14 50 4 14 -7 26 -16 26 -21 0 -5 -5
-6 -11 -2 -6 3 4 -16 23 -44 18 -27 34 -48 36 -47 2 2 3 30 3 64 0 33 5 64 10
67 19 12 22 2 27 -88 3 -45 22 -32 23 15 0 63 13 120 26 124 9 3 12 -16 11
-71 -1 -42 2 -79 5 -83 4 -3 7 10 7 29 0 83 13 158 27 158 12 0 13 -18 10 -95
-2 -52 -1 -95 4 -95 4 0 13 26 19 58 6 31 13 70 16 85 3 16 11 26 17 24 7 -3
10 -11 8 -18 -2 -8 -5 -30 -6 -49 -3 -58 -16 -140 -24 -145 -8 -4 -2 -65 5
-65 2 0 14 10 27 23 21 21 22 28 20 197 -1 156 0 172 12 144 8 -18 23 -78 35
-135z m-2342 -272 c4 -50 22 -47 22 3 0 41 21 57 34 25 3 -8 1 -15 -4 -15 -13
0 -13 -37 0 -45 13 -8 13 -35 -1 -35 -5 0 -7 6 -4 13 4 6 -1 3 -9 -7 -9 -11
-16 -16 -16 -12 0 4 -5 4 -11 0 -8 -4 -8 -9 0 -17 6 -6 11 -22 11 -36 0 -15 4
-32 9 -39 10 -16 2 -62 -11 -62 -5 0 -6 5 -2 12 4 7 3 8 -4 4 -7 -4 -11 -24
-11 -44 1 -20 3 -29 6 -20 2 9 18 23 34 30 16 7 32 21 35 30 7 24 21 23 29 -1
3 -11 12 -22 20 -25 19 -7 19 -45 0 -70 -8 -11 -15 -27 -15 -36 0 -9 -8 -25
-19 -34 -18 -16 -19 -16 -25 9 -5 21 -10 24 -20 16 -7 -6 -16 -8 -19 -4 -4 3
-7 -3 -7 -14 0 -12 5 -23 12 -25 20 -7 -29 -48 -57 -48 -16 0 -29 9 -38 27
-14 25 -14 24 -9 -25 2 -29 0 -52 -5 -52 -5 0 -30 -20 -56 -45 -27 -25 -55
-45 -63 -45 -18 0 -18 4 2 41 19 37 10 107 -9 73 -6 -10 -12 -21 -12 -24 0 -3
-6 -14 -13 -25 -12 -18 -13 -15 -9 21 5 41 41 104 60 104 5 0 31 10 57 22 46
21 48 24 43 53 -8 40 -24 71 -62 119 -54 68 -32 93 28 31 32 -33 51 -44 51
-27 0 4 -7 34 -15 67 -19 81 -19 135 0 135 10 0 15 -10 15 -34 0 -19 5 -38 10
-41 11 -7 13 2 10 57 -3 68 32 81 38 15z m2702 -154 c0 -27 55 -237 85 -325
22 -66 155 -579 155 -600 0 -5 -39 -8 -87 -8 -64 0 -99 6 -128 19 -63 29 -72
45 -79 147 -4 50 -11 106 -17 125 -5 19 -12 81 -13 139 -2 58 -9 156 -15 219
-15 150 -9 189 41 251 42 53 58 62 58 33z m-280 -48 c19 -10 30 -11 30 -5 0 6
5 8 10 5 14 -9 12 -25 -3 -25 -17 0 -59 -44 -51 -53 3 -3 -3 -18 -15 -33 -20
-25 -20 -29 -6 -50 21 -32 19 -61 -4 -69 -11 -3 -23 -15 -26 -25 -7 -21 10
-60 26 -60 6 0 6 -7 -1 -20 -7 -14 -7 -20 0 -20 5 0 10 -7 10 -15 0 -19 -23
-19 -85 1 -65 21 -81 30 -78 43 2 5 6 36 9 68 10 86 19 103 52 103 37 0 52 17
52 56 0 18 4 34 9 36 5 2 12 17 15 35 6 28 4 32 -16 36 -17 3 -15 5 10 6 18 0
46 -6 62 -14z m-2720 -240 c0 -2 -11 -21 -25 -41 -14 -20 -30 -55 -36 -76 -7
-27 -15 -38 -24 -34 -7 2 -16 -2 -19 -10 -3 -8 -2 -14 2 -14 4 0 8 -12 7 -27
0 -31 56 -72 78 -55 15 12 87 23 87 14 0 -7 -41 -21 -125 -42 -40 -10 -65 -10
-123 0 -82 13 -90 22 -99 110 -4 42 -3 44 11 26 9 -11 16 -29 16 -39 0 -24 45
-67 70 -67 10 0 21 -6 23 -12 6 -16 9 20 7 84 -1 39 1 46 16 45 11 -1 20 6 22
17 7 33 53 98 73 103 10 3 19 9 19 14 0 5 5 9 10 9 6 0 10 -2 10 -5z m563
-140 c3 -16 10 -55 16 -85 6 -30 11 -86 11 -125 1 -38 1 -79 1 -90 0 -11 6
-30 14 -42 8 -12 15 -26 15 -30 0 -4 -5 -1 -10 7 -8 11 -10 3 -8 -30 2 -27 8
-44 15 -43 7 2 6 -7 -4 -27 -8 -17 -18 -30 -23 -30 -20 0 -28 43 -34 195 -3
88 -9 205 -12 260 -3 66 -2 95 4 85 6 -8 12 -28 15 -45z"/>
<path d="M3109 3037 c-14 -19 -19 -20 -33 -8 -10 8 -16 9 -16 3 0 -12 -79 -10
-98 2 -12 7 -42 -3 -42 -14 0 -4 -12 -11 -26 -14 -19 -5 -33 -1 -48 13 -24 23
-45 29 -28 9 5 -7 9 -41 8 -74 -1 -47 1 -61 11 -57 7 3 10 10 6 17 -3 6 -1 6
8 -1 7 -7 23 -13 34 -13 23 0 55 -28 55 -48 0 -6 12 -10 28 -9 l27 2 -2 -65
-2 -65 13 40 c12 37 16 40 48 39 34 0 36 1 52 56 24 81 46 191 40 201 -8 14
-18 10 -35 -14z"/>
<path d="M303 3522 c-26 -17 3 -162 32 -162 7 0 11 -16 11 -42 -1 -30 3 -43
13 -43 13 0 17 -16 24 -101 1 -17 7 -37 14 -45 9 -11 32 -95 47 -169 2 -9 -3
-21 -11 -28 -9 -9 -12 -29 -8 -70 12 -117 14 -122 40 -120 25 2 25 3 19 83 -3
44 -9 89 -14 100 -7 18 -19 95 -50 325 -5 36 -11 110 -14 165 -3 85 -7 100
-23 106 -24 10 -65 10 -80 1z"/>
<path d="M126 3488 c2 -18 9 -76 14 -128 28 -258 52 -482 58 -540 l7 -65 60
-3 61 -3 12 189 c11 185 9 230 -12 244 -5 4 -13 28 -17 55 -5 41 -7 35 -9 -42
-4 -160 -14 -258 -27 -263 -9 -2 -13 11 -13 45 0 41 -7 100 -36 298 -4 22 -8
51 -10 65 -2 14 -9 50 -16 80 -10 47 -13 52 -19 30 l-7 -25 -1 28 c-1 15 -5
27 -11 27 -5 0 -10 7 -10 16 0 9 5 12 12 8 7 -4 8 -3 4 4 -4 7 -16 12 -26 12
-15 0 -18 -6 -14 -32z"/>
<path d="M516 3487 c-20 -83 -28 -218 -22 -367 4 -91 6 -211 6 -266 0 -93 2
-102 20 -107 17 -4 20 0 20 31 0 21 -5 57 -11 81 -5 25 -6 47 -1 50 5 3 10 31
11 61 1 30 9 100 17 155 8 55 19 145 24 200 8 92 7 103 -12 137 -26 45 -44 54
-52 25z"/>
<path d="M640 3498 c0 -7 7 -40 15 -73 12 -50 12 -94 4 -260 -6 -110 -8 -250
-4 -311 l7 -111 75 -7 c42 -3 105 -6 140 -6 l63 0 0 45 c0 28 -5 48 -13 51 -7
2 -49 8 -92 12 -67 6 -80 10 -79 25 0 9 1 61 2 116 l2 98 58 7 58 7 3 44 c1
31 -2 45 -11 46 -29 3 -63 -3 -66 -12 -2 -5 -14 -1 -27 7 -29 19 -48 95 -43
173 l3 54 88 -2 88 -2 -3 53 -3 53 -132 3 c-103 2 -133 0 -133 -10z"/>
<path d="M980 3273 c0 -126 5 -299 12 -385 12 -154 13 -158 35 -158 22 0 23 3
24 88 l2 87 10 -87 9 -88 61 0 c77 0 118 28 141 97 32 93 11 242 -39 281 -25
20 -33 42 -15 42 6 0 19 15 30 33 15 24 20 50 20 106 0 96 -16 145 -57 181
-32 29 -37 30 -133 30 l-100 0 0 -227z m183 95 c16 -18 18 -36 15 -91 -4 -78
-21 -100 -73 -95 l-30 3 -3 94 c-1 52 0 101 3 108 8 21 66 8 88 -19z m8 -314
c27 -24 28 -183 2 -207 -20 -17 -72 -25 -91 -14 -13 9 -18 228 -4 241 11 12
72 -1 93 -20z"/>
<path d="M1349 3478 c-2 -13 -3 -188 -1 -390 l3 -368 50 0 51 0 -4 390 -3 390
-46 0 c-41 0 -47 -3 -50 -22z"/>
<path d="M1521 3119 c2 -246 7 -386 14 -395 7 -10 20 -13 43 -8 l32 7 0 271
c0 151 4 264 9 256 5 -8 21 -76 35 -150 15 -74 33 -157 41 -185 7 -27 21 -84
30 -126 l16 -77 51 0 50 0 -5 392 -6 391 -43 0 -43 0 4 -234 c2 -170 0 -232
-8 -227 -6 4 -11 21 -11 37 0 30 -6 58 -54 260 -15 59 -26 121 -26 138 l0 31
-66 0 -66 0 3 -381z"/>
<path d="M1989 3493 c0 -4 -3 -21 -5 -38 -2 -16 -11 -82 -19 -145 -9 -63 -20
-146 -26 -183 -13 -91 -41 -345 -43 -382 -1 -28 2 -30 38 -33 47 -4 56 7 56
70 0 73 4 78 70 78 66 0 66 0 69 -84 1 -33 5 -64 7 -68 5 -8 81 -4 90 5 6 6
-21 211 -52 402 -13 83 -30 202 -37 265 l-13 115 -67 3 c-37 2 -67 -1 -68 -5z
m95 -358 c8 -88 13 -161 11 -163 -2 -2 -22 -6 -46 -9 l-42 -6 7 99 c4 54 12
121 17 148 5 27 9 65 9 86 0 20 3 40 7 44 13 13 22 -36 37 -199z"/>
<path d="M2291 3491 c-8 -5 -11 -112 -9 -401 3 -436 -2 -406 69 -391 l34 7 0
164 0 165 34 -3 c59 -5 61 -10 61 -166 0 -168 5 -180 67 -170 l41 6 -4 127
c-7 193 -9 210 -34 237 l-23 24 26 49 c23 41 27 61 27 131 0 45 -7 105 -15
134 -21 72 -49 87 -169 91 -51 2 -98 0 -105 -4z m168 -127 c22 -16 23 -22 19
-97 -4 -69 -8 -82 -29 -98 -13 -10 -34 -19 -46 -19 -22 0 -23 3 -23 108 0 60
3 112 7 115 12 12 48 7 72 -9z"/>
<path d="M1046 2408 c-10 -125 -1 -118 -147 -118 -86 0 -97 -2 -101 -18 -5
-18 6 -19 165 -25 94 -4 172 -8 173 -10 2 -2 7 -137 11 -301 9 -330 11 -316
-56 -311 -18 2 -37 8 -41 15 -5 8 -9 8 -13 -4 -3 -8 -1 -17 6 -20 7 -2 5 -5
-5 -5 -9 -1 -20 4 -23 9 -4 6 -58 10 -131 10 -93 0 -124 3 -124 13 0 19 12 31
55 60 46 31 108 36 158 12 l32 -16 -23 20 c-31 27 -80 35 -130 22 -30 -9 -53
-25 -84 -62 l-42 -50 -78 4 c-93 6 -118 1 -118 -23 0 -25 70 -32 333 -35 191
-1 217 1 217 14 1 13 2 13 11 -1 12 -21 52 -24 68 -4 8 10 10 71 6 217 -3 112
-2 254 2 316 5 62 5 125 1 142 -9 32 -50 53 -83 41 -19 -7 -20 -2 -25 104 l-5
111 -9 -107z"/>
<path d="M956 1089 c-78 -92 -90 -265 -16 -246 35 9 25 -31 -12 -47 -29 -13
-30 -14 -10 -15 24 -1 24 -3 4 -61 -3 -8 -2 -12 3 -8 4 4 19 1 34 -6 16 -8 34
-10 46 -5 29 11 97 11 90 -1 -3 -5 -1 -10 4 -10 7 0 11 31 11 84 l0 84 30 12
c38 16 36 44 -3 48 -16 2 -27 9 -27 19 0 22 -57 10 -86 -18 -21 -20 -24 -20
-55 -5 -18 9 -38 16 -46 16 -7 0 -13 1 -13 3 1 1 7 25 14 52 22 86 110 122
158 65 10 -13 19 -16 23 -10 4 6 1 18 -6 27 -16 19 -85 63 -98 63 -5 0 -25
-19 -45 -41z"/>
<path d="M5779 748 c-1 -18 -3 -25 -6 -15 -6 24 -59 23 -72 -1 -17 -33 -2 -62
33 -63 17 -1 42 -3 56 -4 14 -2 31 4 38 13 11 14 13 14 25 -2 15 -20 59 -14
56 7 -1 7 0 21 1 32 1 14 5 10 14 -15 9 -23 10 -39 3 -47 -6 -9 -6 -13 2 -13
6 0 19 16 29 37 l19 36 7 -26 c5 -20 13 -27 32 -27 23 0 25 3 22 42 -2 30 -8
42 -20 44 -10 1 -20 -2 -23 -6 -3 -5 -12 -7 -19 -4 -9 3 -17 -4 -22 -18 -7
-22 -7 -22 -15 -2 -4 12 -17 24 -28 27 -18 4 -21 1 -21 -30 0 -23 -4 -33 -12
-30 -14 5 -14 9 -3 47 7 22 6 23 -9 11 -9 -7 -16 -21 -17 -30 0 -9 -5 -4 -11
12 -14 38 -28 34 -21 -8 5 -28 2 -35 -11 -35 -14 0 -16 7 -10 50 5 34 3 50 -5
50 -6 0 -12 -15 -12 -32z"/>
<path d="M418 663 l-67 -4 5 -152 c5 -182 10 -237 22 -249 10 -10 9 -10 122
-6 l75 3 -2 115 c-1 63 -5 157 -8 208 l-7 92 -36 -2 c-21 -1 -67 -3 -104 -5z"/>
<path d="M6373 485 c-1 -42 -4 -82 -7 -90 -3 -8 -1 -15 3 -15 5 0 11 5 13 12
3 9 6 9 12 0 4 -7 2 -12 -3 -12 -14 0 -14 -77 -1 -85 6 -4 7 -23 4 -46 -6 -37
-5 -39 20 -39 22 0 26 -4 26 -30 0 -27 3 -30 30 -30 26 0 30 3 30 29 0 16 6
44 14 62 10 24 15 79 15 177 l2 142 -78 0 -78 0 -2 -75z"/>
</g>
</svg>
