<svg width="84" height="109" viewBox="0 0 84 109" fill="none" xmlns="http://www.w3.org/2000/svg">
<g filter="url(#filter0_d)">
<rect x="9" y="4" width="66" height="66" rx="15" fill="#48C1F0"/>
</g>
<g filter="url(#filter1_d)">
<path d="M30 22V20.75C29.3096 20.75 28.75 21.3096 28.75 22H30ZM55 52V53.25C55.6904 53.25 56.25 52.6904 56.25 52H55ZM30 52H28.75C28.75 52.6904 29.3096 53.25 30 53.25V52ZM46.0714 22L46.9243 21.0862C46.6929 20.8701 46.388 20.75 46.0714 20.75V22ZM55 30.3333H56.25C56.25 29.9869 56.1062 29.6559 55.8529 29.4195L55 30.3333ZM35.3571 44.0833C34.6668 44.0833 34.1071 44.643 34.1071 45.3333C34.1071 46.0237 34.6668 46.5833 35.3571 46.5833V44.0833ZM49.6429 46.5833C50.3332 46.5833 50.8929 46.0237 50.8929 45.3333C50.8929 44.643 50.3332 44.0833 49.6429 44.0833V46.5833ZM35.3571 37.4167C34.6668 37.4167 34.1071 37.9763 34.1071 38.6667C34.1071 39.357 34.6668 39.9167 35.3571 39.9167V37.4167ZM46.0714 39.9167C46.7618 39.9167 47.3214 39.357 47.3214 38.6667C47.3214 37.9763 46.7618 37.4167 46.0714 37.4167V39.9167ZM55 50.75H30V53.25H55V50.75ZM31.25 52V22H28.75V52H31.25ZM30 23.25H46.0714V20.75H30V23.25ZM53.75 30.3333V52H56.25V30.3333H53.75ZM45.2185 22.9138L54.1471 31.2472L55.8529 29.4195L46.9243 21.0862L45.2185 22.9138ZM43.0357 22V28.6667H45.5357V22H43.0357ZM47.8571 33.25H55V30.75H47.8571V33.25ZM43.0357 28.6667C43.0357 31.2778 45.277 33.25 47.8571 33.25V30.75C46.4924 30.75 45.5357 29.7374 45.5357 28.6667H43.0357ZM35.3571 46.5833H49.6429V44.0833H35.3571V46.5833ZM35.3571 39.9167H46.0714V37.4167H35.3571V39.9167Z" fill="white"/>
</g>
<path d="M12.4701 82.456H15.8781C16.7581 82.456 17.4421 82.668 17.9301 83.092C18.4261 83.516 18.6741 84.1 18.6741 84.844C18.6741 85.588 18.4261 86.176 17.9301 86.608C17.4341 87.032 16.7501 87.244 15.8781 87.244H13.4541V91H12.4701V82.456ZM15.7941 86.428C16.4261 86.428 16.9021 86.292 17.2221 86.02C17.5421 85.748 17.7021 85.356 17.7021 84.844C17.7021 84.332 17.5421 83.944 17.2221 83.68C16.9021 83.408 16.4261 83.272 15.7941 83.272H13.4541V86.428H15.7941ZM25.031 87.952H20.603C20.611 88.72 20.787 89.3 21.131 89.692C21.483 90.084 21.991 90.28 22.655 90.28C23.359 90.28 24.007 90.044 24.599 89.572L24.923 90.28C24.659 90.528 24.319 90.724 23.903 90.868C23.495 91.012 23.075 91.084 22.643 91.084C21.699 91.084 20.959 90.808 20.423 90.256C19.887 89.696 19.619 88.932 19.619 87.964C19.619 87.348 19.739 86.804 19.979 86.332C20.219 85.852 20.555 85.48 20.987 85.216C21.419 84.952 21.911 84.82 22.463 84.82C23.263 84.82 23.891 85.084 24.347 85.612C24.803 86.132 25.031 86.852 25.031 87.772V87.952ZM22.475 85.576C21.971 85.576 21.559 85.728 21.239 86.032C20.927 86.336 20.727 86.764 20.639 87.316H24.155C24.107 86.748 23.939 86.316 23.651 86.02C23.371 85.724 22.979 85.576 22.475 85.576ZM29.5183 84.82C30.9663 84.82 31.6903 85.616 31.6903 87.208V91H30.7183V87.256C30.7183 86.696 30.6063 86.288 30.3823 86.032C30.1583 85.768 29.8063 85.636 29.3263 85.636C28.7663 85.636 28.3183 85.808 27.9823 86.152C27.6463 86.496 27.4783 86.96 27.4783 87.544V91H26.5063V86.656C26.5063 86.032 26.4743 85.468 26.4103 84.964H27.3343L27.4303 86.044C27.6143 85.652 27.8903 85.352 28.2583 85.144C28.6263 84.928 29.0463 84.82 29.5183 84.82ZM38.8418 82.168V91H37.8818V89.908C37.7058 90.284 37.4378 90.576 37.0778 90.784C36.7258 90.984 36.3138 91.084 35.8418 91.084C35.3138 91.084 34.8458 90.952 34.4378 90.688C34.0378 90.424 33.7258 90.056 33.5018 89.584C33.2778 89.104 33.1658 88.552 33.1658 87.928C33.1658 87.304 33.2738 86.76 33.4898 86.296C33.7138 85.824 34.0298 85.46 34.4378 85.204C34.8458 84.948 35.3138 84.82 35.8418 84.82C36.3138 84.82 36.7258 84.924 37.0778 85.132C37.4298 85.332 37.6938 85.616 37.8698 85.984V82.168H38.8418ZM36.0338 90.28C36.6258 90.28 37.0818 90.08 37.4018 89.68C37.7218 89.272 37.8818 88.696 37.8818 87.952C37.8818 87.216 37.7218 86.648 37.4018 86.248C37.0818 85.84 36.6258 85.636 36.0338 85.636C35.4418 85.636 34.9778 85.836 34.6418 86.236C34.3138 86.636 34.1498 87.2 34.1498 87.928C34.1498 88.672 34.3138 89.252 34.6418 89.668C34.9778 90.076 35.4418 90.28 36.0338 90.28ZM46.0372 84.964V91H45.0772V89.908C44.9012 90.284 44.6332 90.576 44.2732 90.784C43.9212 90.984 43.5092 91.084 43.0372 91.084C42.5012 91.084 42.0292 90.956 41.6212 90.7C41.2212 90.444 40.9092 90.084 40.6852 89.62C40.4692 89.148 40.3612 88.6 40.3612 87.976C40.3612 87.352 40.4732 86.804 40.6972 86.332C40.9212 85.852 41.2332 85.48 41.6332 85.216C42.0412 84.952 42.5092 84.82 43.0372 84.82C43.5092 84.82 43.9212 84.924 44.2732 85.132C44.6252 85.34 44.8932 85.632 45.0772 86.008V84.964H46.0372ZM43.2292 90.28C43.8212 90.28 44.2772 90.08 44.5972 89.68C44.9172 89.272 45.0772 88.696 45.0772 87.952C45.0772 87.208 44.9172 86.636 44.5972 86.236C44.2772 85.836 43.8212 85.636 43.2292 85.636C42.6372 85.636 42.1732 85.844 41.8372 86.26C41.5092 86.668 41.3452 87.24 41.3452 87.976C41.3452 88.712 41.5092 89.28 41.8372 89.68C42.1652 90.08 42.6292 90.28 43.2292 90.28ZM49.2125 85.732V89.032C49.2125 89.48 49.3045 89.796 49.4885 89.98C49.6725 90.156 49.9325 90.244 50.2685 90.244C50.4925 90.244 50.7085 90.208 50.9165 90.136V90.964C50.6685 91.044 50.3885 91.084 50.0765 91.084C49.5005 91.084 49.0485 90.924 48.7205 90.604C48.4005 90.276 48.2405 89.796 48.2405 89.164V85.732H47.0645V84.964H48.2405V83.416L49.2125 83.068V84.964H50.9405V85.732H49.2125ZM57.4278 84.964V91H56.4678V89.908C56.2918 90.284 56.0238 90.576 55.6638 90.784C55.3118 90.984 54.8998 91.084 54.4278 91.084C53.8918 91.084 53.4198 90.956 53.0118 90.7C52.6118 90.444 52.2998 90.084 52.0758 89.62C51.8598 89.148 51.7518 88.6 51.7518 87.976C51.7518 87.352 51.8638 86.804 52.0878 86.332C52.3118 85.852 52.6238 85.48 53.0238 85.216C53.4318 84.952 53.8998 84.82 54.4278 84.82C54.8998 84.82 55.3118 84.924 55.6638 85.132C56.0158 85.34 56.2838 85.632 56.4678 86.008V84.964H57.4278ZM54.6198 90.28C55.2118 90.28 55.6678 90.08 55.9878 89.68C56.3078 89.272 56.4678 88.696 56.4678 87.952C56.4678 87.208 56.3078 86.636 55.9878 86.236C55.6678 85.836 55.2118 85.636 54.6198 85.636C54.0278 85.636 53.5638 85.844 53.2278 86.26C52.8998 86.668 52.7358 87.24 52.7358 87.976C52.7358 88.712 52.8998 89.28 53.2278 89.68C53.5558 90.08 54.0198 90.28 54.6198 90.28ZM64.6231 84.964V91H63.6631V89.908C63.4871 90.284 63.2191 90.576 62.8591 90.784C62.5071 90.984 62.0951 91.084 61.6231 91.084C61.0871 91.084 60.6151 90.956 60.2071 90.7C59.8071 90.444 59.4951 90.084 59.2711 89.62C59.0551 89.148 58.9471 88.6 58.9471 87.976C58.9471 87.352 59.0591 86.804 59.2831 86.332C59.5071 85.852 59.8191 85.48 60.2191 85.216C60.6271 84.952 61.0951 84.82 61.6231 84.82C62.0951 84.82 62.5071 84.924 62.8591 85.132C63.2111 85.34 63.4791 85.632 63.6631 86.008V84.964H64.6231ZM61.8151 90.28C62.4071 90.28 62.8631 90.08 63.1831 89.68C63.5031 89.272 63.6631 88.696 63.6631 87.952C63.6631 87.208 63.5031 86.636 63.1831 86.236C62.8631 85.836 62.4071 85.636 61.8151 85.636C61.2231 85.636 60.7591 85.844 60.4231 86.26C60.0951 86.668 59.9311 87.24 59.9311 87.976C59.9311 88.712 60.0951 89.28 60.4231 89.68C60.7511 90.08 61.2151 90.28 61.8151 90.28ZM69.5144 84.82C70.9624 84.82 71.6864 85.616 71.6864 87.208V91H70.7144V87.256C70.7144 86.696 70.6024 86.288 70.3784 86.032C70.1544 85.768 69.8024 85.636 69.3224 85.636C68.7624 85.636 68.3144 85.808 67.9784 86.152C67.6424 86.496 67.4744 86.96 67.4744 87.544V91H66.5024V86.656C66.5024 86.032 66.4704 85.468 66.4064 84.964H67.3304L67.4264 86.044C67.6104 85.652 67.8864 85.352 68.2544 85.144C68.6224 84.928 69.0424 84.82 69.5144 84.82ZM18.8542 106L14.4502 101.932V106H13.4662V97.456H14.4502V101.38L18.6502 97.456H19.9102L15.4462 101.62L20.1382 106H18.8542ZM25.945 102.952H21.517C21.525 103.72 21.701 104.3 22.045 104.692C22.397 105.084 22.905 105.28 23.569 105.28C24.273 105.28 24.921 105.044 25.513 104.572L25.837 105.28C25.573 105.528 25.233 105.724 24.817 105.868C24.409 106.012 23.989 106.084 23.557 106.084C22.613 106.084 21.873 105.808 21.337 105.256C20.801 104.696 20.533 103.932 20.533 102.964C20.533 102.348 20.653 101.804 20.893 101.332C21.133 100.852 21.469 100.48 21.901 100.216C22.333 99.952 22.825 99.82 23.377 99.82C24.177 99.82 24.805 100.084 25.261 100.612C25.717 101.132 25.945 101.852 25.945 102.772V102.952ZM23.389 100.576C22.885 100.576 22.473 100.728 22.153 101.032C21.841 101.336 21.641 101.764 21.553 102.316H25.069C25.021 101.748 24.853 101.316 24.565 101.02C24.285 100.724 23.893 100.576 23.389 100.576ZM29.4604 106.084C28.4444 106.084 27.6404 105.824 27.0484 105.304L27.3724 104.584C27.7004 104.84 28.0324 105.024 28.3684 105.136C28.7044 105.248 29.0804 105.304 29.4964 105.304C29.9524 105.304 30.2964 105.228 30.5284 105.076C30.7684 104.916 30.8884 104.688 30.8884 104.392C30.8884 104.152 30.8084 103.96 30.6484 103.816C30.4884 103.672 30.2244 103.56 29.8564 103.48L28.8364 103.24C28.3324 103.128 27.9404 102.928 27.6604 102.64C27.3884 102.352 27.2524 102.008 27.2524 101.608C27.2524 101.08 27.4644 100.652 27.8884 100.324C28.3124 99.988 28.8724 99.82 29.5684 99.82C29.9924 99.82 30.3924 99.888 30.7684 100.024C31.1444 100.16 31.4604 100.356 31.7164 100.612L31.3924 101.32C30.8244 100.848 30.2164 100.612 29.5684 100.612C29.1364 100.612 28.8004 100.696 28.5604 100.864C28.3284 101.024 28.2124 101.252 28.2124 101.548C28.2124 101.796 28.2844 101.992 28.4284 102.136C28.5804 102.28 28.8204 102.392 29.1484 102.472L30.1684 102.724C30.7284 102.852 31.1444 103.052 31.4164 103.324C31.6884 103.588 31.8244 103.936 31.8244 104.368C31.8244 104.888 31.6124 105.304 31.1884 105.616C30.7644 105.928 30.1884 106.084 29.4604 106.084ZM38.4255 102.952H33.9975C34.0055 103.72 34.1815 104.3 34.5255 104.692C34.8775 105.084 35.3855 105.28 36.0495 105.28C36.7535 105.28 37.4015 105.044 37.9935 104.572L38.3175 105.28C38.0535 105.528 37.7135 105.724 37.2975 105.868C36.8895 106.012 36.4695 106.084 36.0375 106.084C35.0935 106.084 34.3535 105.808 33.8175 105.256C33.2815 104.696 33.0135 103.932 33.0135 102.964C33.0135 102.348 33.1335 101.804 33.3735 101.332C33.6135 100.852 33.9495 100.48 34.3815 100.216C34.8135 99.952 35.3055 99.82 35.8575 99.82C36.6575 99.82 37.2855 100.084 37.7415 100.612C38.1975 101.132 38.4255 101.852 38.4255 102.772V102.952ZM35.8695 100.576C35.3655 100.576 34.9535 100.728 34.6335 101.032C34.3215 101.336 34.1215 101.764 34.0335 102.316H37.5495C37.5015 101.748 37.3335 101.316 37.0455 101.02C36.7655 100.724 36.3735 100.576 35.8695 100.576ZM42.9128 99.82C44.3608 99.82 45.0848 100.616 45.0848 102.208V106H44.1128V102.256C44.1128 101.696 44.0008 101.288 43.7768 101.032C43.5528 100.768 43.2008 100.636 42.7208 100.636C42.1608 100.636 41.7128 100.808 41.3768 101.152C41.0408 101.496 40.8728 101.96 40.8728 102.544V106H39.9008V97.168H40.8728V100.948C41.0648 100.58 41.3368 100.3 41.6888 100.108C42.0488 99.916 42.4568 99.82 42.9128 99.82ZM52.2364 99.964V106H51.2764V104.908C51.1004 105.284 50.8324 105.576 50.4724 105.784C50.1204 105.984 49.7084 106.084 49.2364 106.084C48.7004 106.084 48.2284 105.956 47.8204 105.7C47.4204 105.444 47.1084 105.084 46.8844 104.62C46.6684 104.148 46.5604 103.6 46.5604 102.976C46.5604 102.352 46.6724 101.804 46.8964 101.332C47.1204 100.852 47.4324 100.48 47.8324 100.216C48.2404 99.952 48.7084 99.82 49.2364 99.82C49.7084 99.82 50.1204 99.924 50.4724 100.132C50.8244 100.34 51.0924 100.632 51.2764 101.008V99.964H52.2364ZM49.4284 105.28C50.0204 105.28 50.4764 105.08 50.7964 104.68C51.1164 104.272 51.2764 103.696 51.2764 102.952C51.2764 102.208 51.1164 101.636 50.7964 101.236C50.4764 100.836 50.0204 100.636 49.4284 100.636C48.8364 100.636 48.3724 100.844 48.0364 101.26C47.7084 101.668 47.5444 102.24 47.5444 102.976C47.5444 103.712 47.7084 104.28 48.0364 104.68C48.3644 105.08 48.8284 105.28 49.4284 105.28ZM55.4117 100.732V104.032C55.4117 104.48 55.5037 104.796 55.6877 104.98C55.8717 105.156 56.1317 105.244 56.4677 105.244C56.6917 105.244 56.9077 105.208 57.1157 105.136V105.964C56.8677 106.044 56.5877 106.084 56.2757 106.084C55.6997 106.084 55.2477 105.924 54.9197 105.604C54.5997 105.276 54.4397 104.796 54.4397 104.164V100.732H53.2637V99.964H54.4397V98.416L55.4117 98.068V99.964H57.1397V100.732H55.4117ZM63.627 99.964V106H62.667V104.908C62.491 105.284 62.223 105.576 61.863 105.784C61.511 105.984 61.099 106.084 60.627 106.084C60.091 106.084 59.619 105.956 59.211 105.7C58.811 105.444 58.499 105.084 58.275 104.62C58.059 104.148 57.951 103.6 57.951 102.976C57.951 102.352 58.063 101.804 58.287 101.332C58.511 100.852 58.823 100.48 59.223 100.216C59.631 99.952 60.099 99.82 60.627 99.82C61.099 99.82 61.511 99.924 61.863 100.132C62.215 100.34 62.483 100.632 62.667 101.008V99.964H63.627ZM60.819 105.28C61.411 105.28 61.867 105.08 62.187 104.68C62.507 104.272 62.667 103.696 62.667 102.952C62.667 102.208 62.507 101.636 62.187 101.236C61.867 100.836 61.411 100.636 60.819 100.636C60.227 100.636 59.763 100.844 59.427 101.26C59.099 101.668 58.935 102.24 58.935 102.976C58.935 103.712 59.099 104.28 59.427 104.68C59.755 105.08 60.219 105.28 60.819 105.28ZM68.5183 99.82C69.9663 99.82 70.6903 100.616 70.6903 102.208V106H69.7183V102.256C69.7183 101.696 69.6063 101.288 69.3823 101.032C69.1583 100.768 68.8063 100.636 68.3263 100.636C67.7663 100.636 67.3183 100.808 66.9823 101.152C66.6463 101.496 66.4783 101.96 66.4783 102.544V106H65.5063V101.656C65.5063 101.032 65.4743 100.468 65.4103 99.964H66.3343L66.4303 101.044C66.6143 100.652 66.8903 100.352 67.2583 100.144C67.6263 99.928 68.0463 99.82 68.5183 99.82Z" fill="black"/>
<defs>
<filter id="filter0_d" x="0" y="0" width="84" height="84" filterUnits="userSpaceOnUse" color-interpolation-filters="sRGB">
<feFlood flood-opacity="0" result="BackgroundImageFix"/>
<feColorMatrix in="SourceAlpha" type="matrix" values="0 0 0 0 0 0 0 0 0 0 0 0 0 0 0 0 0 0 127 0"/>
<feOffset dy="5"/>
<feGaussianBlur stdDeviation="4.5"/>
<feColorMatrix type="matrix" values="0 0 0 0 0 0 0 0 0 0 0 0 0 0 0 0 0 0 0.25 0"/>
<feBlend mode="normal" in2="BackgroundImageFix" result="effect1_dropShadow"/>
<feBlend mode="normal" in="SourceGraphic" in2="effect1_dropShadow" result="shape"/>
</filter>
<filter id="filter1_d" x="24.75" y="20.75" width="35.5" height="40.5" filterUnits="userSpaceOnUse" color-interpolation-filters="sRGB">
<feFlood flood-opacity="0" result="BackgroundImageFix"/>
<feColorMatrix in="SourceAlpha" type="matrix" values="0 0 0 0 0 0 0 0 0 0 0 0 0 0 0 0 0 0 127 0"/>
<feOffset dy="4"/>
<feGaussianBlur stdDeviation="2"/>
<feColorMatrix type="matrix" values="0 0 0 0 0 0 0 0 0 0 0 0 0 0 0 0 0 0 0.25 0"/>
<feBlend mode="normal" in2="BackgroundImageFix" result="effect1_dropShadow"/>
<feBlend mode="normal" in="SourceGraphic" in2="effect1_dropShadow" result="shape"/>
</filter>
</defs>
</svg>
