<svg width="84" height="94" viewBox="0 0 84 94" fill="none" xmlns="http://www.w3.org/2000/svg">
<g filter="url(#filter0_d)">
<rect x="9" y="4" width="66" height="66" rx="15" fill="#48C1F0"/>
</g>
<g filter="url(#filter1_d)">
<path opacity="0.15" d="M42.5 35.7917C45.3305 35.7917 47.625 33.4971 47.625 30.6667C47.625 27.8362 45.3305 25.5417 42.5 25.5417C39.6695 25.5417 37.375 27.8362 37.375 30.6667C37.375 33.4971 39.6695 35.7917 42.5 35.7917Z" fill="white"/>
<path d="M52.75 49.4583V47.75C52.75 43.9761 49.6906 40.9167 45.9167 40.9167H39.0833C35.3094 40.9167 32.25 43.9761 32.25 47.75V49.4583M61.2917 49.4583V47.75C61.2917 43.9761 58.2323 40.9167 54.4583 40.9167H53.6042M23.7083 49.4583V47.75C23.7083 43.9761 26.7677 40.9167 30.5417 40.9167H31.3958M51.0417 35.7917C53.8721 35.7917 56.1667 33.4971 56.1667 30.6667C56.1667 27.8362 53.8721 25.5417 51.0417 25.5417M33.9583 35.7917C31.1279 35.7917 28.8333 33.4971 28.8333 30.6667C28.8333 27.8362 31.1279 25.5417 33.9583 25.5417M47.625 30.6667C47.625 33.4971 45.3305 35.7917 42.5 35.7917C39.6695 35.7917 37.375 33.4971 37.375 30.6667C37.375 27.8362 39.6695 25.5417 42.5 25.5417C45.3305 25.5417 47.625 27.8362 47.625 30.6667Z" stroke="white" stroke-width="2.5" stroke-linecap="round" stroke-linejoin="round"/>
</g>
<path d="M19.7565 91L15.3525 86.932V91H14.3685V82.456H15.3525V86.38L19.5525 82.456H20.8125L16.3485 86.62L21.0405 91H19.7565ZM24.2914 91.084C23.7234 91.084 23.2234 90.956 22.7914 90.7C22.3594 90.444 22.0234 90.08 21.7834 89.608C21.5514 89.136 21.4354 88.584 21.4354 87.952C21.4354 87.32 21.5514 86.768 21.7834 86.296C22.0234 85.824 22.3594 85.46 22.7914 85.204C23.2234 84.948 23.7234 84.82 24.2914 84.82C24.8594 84.82 25.3594 84.948 25.7914 85.204C26.2234 85.46 26.5554 85.824 26.7874 86.296C27.0274 86.768 27.1474 87.32 27.1474 87.952C27.1474 88.584 27.0274 89.136 26.7874 89.608C26.5554 90.08 26.2234 90.444 25.7914 90.7C25.3594 90.956 24.8594 91.084 24.2914 91.084ZM24.2914 90.28C24.8914 90.28 25.3514 90.084 25.6714 89.692C25.9914 89.292 26.1514 88.712 26.1514 87.952C26.1514 87.216 25.9874 86.648 25.6594 86.248C25.3314 85.84 24.8754 85.636 24.2914 85.636C23.6994 85.636 23.2394 85.84 22.9114 86.248C22.5834 86.648 22.4194 87.216 22.4194 87.952C22.4194 88.712 22.5794 89.292 22.8994 89.692C23.2274 90.084 23.6914 90.28 24.2914 90.28ZM31.6746 84.82C33.1226 84.82 33.8466 85.616 33.8466 87.208V91H32.8746V87.256C32.8746 86.696 32.7626 86.288 32.5386 86.032C32.3146 85.768 31.9626 85.636 31.4826 85.636C30.9226 85.636 30.4746 85.808 30.1386 86.152C29.8026 86.496 29.6346 86.96 29.6346 87.544V91H28.6626V86.656C28.6626 86.032 28.6306 85.468 28.5666 84.964H29.4906L29.5866 86.044C29.7706 85.652 30.0466 85.352 30.4146 85.144C30.7826 84.928 31.2026 84.82 31.6746 84.82ZM37.7221 91.084C36.7061 91.084 35.9021 90.824 35.3101 90.304L35.6341 89.584C35.9621 89.84 36.2941 90.024 36.6301 90.136C36.9661 90.248 37.3421 90.304 37.7581 90.304C38.2141 90.304 38.5581 90.228 38.7901 90.076C39.0301 89.916 39.1501 89.688 39.1501 89.392C39.1501 89.152 39.0701 88.96 38.9101 88.816C38.7501 88.672 38.4861 88.56 38.1181 88.48L37.0981 88.24C36.5941 88.128 36.2021 87.928 35.9221 87.64C35.6501 87.352 35.5141 87.008 35.5141 86.608C35.5141 86.08 35.7261 85.652 36.1501 85.324C36.5741 84.988 37.1341 84.82 37.8301 84.82C38.2541 84.82 38.6541 84.888 39.0301 85.024C39.4061 85.16 39.7221 85.356 39.9781 85.612L39.6541 86.32C39.0861 85.848 38.4781 85.612 37.8301 85.612C37.3981 85.612 37.0621 85.696 36.8221 85.864C36.5901 86.024 36.4741 86.252 36.4741 86.548C36.4741 86.796 36.5461 86.992 36.6901 87.136C36.8421 87.28 37.0821 87.392 37.4101 87.472L38.4301 87.724C38.9901 87.852 39.4061 88.052 39.6781 88.324C39.9501 88.588 40.0861 88.936 40.0861 89.368C40.0861 89.888 39.8741 90.304 39.4501 90.616C39.0261 90.928 38.4501 91.084 37.7221 91.084ZM46.6872 84.964V91H45.7392V89.956C45.5472 90.324 45.2792 90.604 44.9352 90.796C44.5912 90.988 44.2032 91.084 43.7712 91.084C43.0592 91.084 42.5192 90.884 42.1512 90.484C41.7832 90.084 41.5992 89.492 41.5992 88.708V84.964H42.5712V88.684C42.5712 89.228 42.6832 89.628 42.9072 89.884C43.1312 90.14 43.4712 90.268 43.9272 90.268C44.4632 90.268 44.8952 90.096 45.2232 89.752C45.5512 89.4 45.7152 88.94 45.7152 88.372V84.964H46.6872ZM48.561 82.168H49.533V91H48.561V82.168ZM52.7164 85.732V89.032C52.7164 89.48 52.8084 89.796 52.9924 89.98C53.1764 90.156 53.4364 90.244 53.7724 90.244C53.9964 90.244 54.2124 90.208 54.4204 90.136V90.964C54.1724 91.044 53.8924 91.084 53.5804 91.084C53.0044 91.084 52.5524 90.924 52.2244 90.604C51.9044 90.276 51.7444 89.796 51.7444 89.164V85.732H50.5684V84.964H51.7444V83.416L52.7164 83.068V84.964H54.4444V85.732H52.7164ZM60.9317 84.964V91H59.9717V89.908C59.7957 90.284 59.5277 90.576 59.1677 90.784C58.8157 90.984 58.4037 91.084 57.9317 91.084C57.3957 91.084 56.9237 90.956 56.5157 90.7C56.1157 90.444 55.8037 90.084 55.5797 89.62C55.3637 89.148 55.2557 88.6 55.2557 87.976C55.2557 87.352 55.3677 86.804 55.5917 86.332C55.8157 85.852 56.1277 85.48 56.5277 85.216C56.9357 84.952 57.4037 84.82 57.9317 84.82C58.4037 84.82 58.8157 84.924 59.1677 85.132C59.5197 85.34 59.7877 85.632 59.9717 86.008V84.964H60.9317ZM58.1237 90.28C58.7157 90.28 59.1717 90.08 59.4917 89.68C59.8117 89.272 59.9717 88.696 59.9717 87.952C59.9717 87.208 59.8117 86.636 59.4917 86.236C59.1717 85.836 58.7157 85.636 58.1237 85.636C57.5317 85.636 57.0677 85.844 56.7317 86.26C56.4037 86.668 56.2397 87.24 56.2397 87.976C56.2397 88.712 56.4037 89.28 56.7317 89.68C57.0597 90.08 57.5237 90.28 58.1237 90.28ZM64.851 91.084C63.835 91.084 63.031 90.824 62.439 90.304L62.763 89.584C63.091 89.84 63.423 90.024 63.759 90.136C64.095 90.248 64.471 90.304 64.887 90.304C65.343 90.304 65.687 90.228 65.919 90.076C66.159 89.916 66.279 89.688 66.279 89.392C66.279 89.152 66.199 88.96 66.039 88.816C65.879 88.672 65.615 88.56 65.247 88.48L64.227 88.24C63.723 88.128 63.331 87.928 63.051 87.64C62.779 87.352 62.643 87.008 62.643 86.608C62.643 86.08 62.855 85.652 63.279 85.324C63.703 84.988 64.263 84.82 64.959 84.82C65.383 84.82 65.783 84.888 66.159 85.024C66.535 85.16 66.851 85.356 67.107 85.612L66.783 86.32C66.215 85.848 65.607 85.612 64.959 85.612C64.527 85.612 64.191 85.696 63.951 85.864C63.719 86.024 63.603 86.252 63.603 86.548C63.603 86.796 63.675 86.992 63.819 87.136C63.971 87.28 64.211 87.392 64.539 87.472L65.559 87.724C66.119 87.852 66.535 88.052 66.807 88.324C67.079 88.588 67.215 88.936 67.215 89.368C67.215 89.888 67.003 90.304 66.579 90.616C66.155 90.928 65.579 91.084 64.851 91.084ZM68.7641 84.964H69.7361V91H68.7641V84.964ZM69.8561 82.408V83.512H68.6681V82.408H69.8561Z" fill="black"/>
<defs>
<filter id="filter0_d" x="0" y="0" width="84" height="84" filterUnits="userSpaceOnUse" color-interpolation-filters="sRGB">
<feFlood flood-opacity="0" result="BackgroundImageFix"/>
<feColorMatrix in="SourceAlpha" type="matrix" values="0 0 0 0 0 0 0 0 0 0 0 0 0 0 0 0 0 0 127 0"/>
<feOffset dy="5"/>
<feGaussianBlur stdDeviation="4.5"/>
<feColorMatrix type="matrix" values="0 0 0 0 0 0 0 0 0 0 0 0 0 0 0 0 0 0 0.25 0"/>
<feBlend mode="normal" in2="BackgroundImageFix" result="effect1_dropShadow"/>
<feBlend mode="normal" in="SourceGraphic" in2="effect1_dropShadow" result="shape"/>
</filter>
<filter id="filter1_d" x="18" y="17" width="49" height="49" filterUnits="userSpaceOnUse" color-interpolation-filters="sRGB">
<feFlood flood-opacity="0" result="BackgroundImageFix"/>
<feColorMatrix in="SourceAlpha" type="matrix" values="0 0 0 0 0 0 0 0 0 0 0 0 0 0 0 0 0 0 127 0"/>
<feOffset dy="4"/>
<feGaussianBlur stdDeviation="2"/>
<feColorMatrix type="matrix" values="0 0 0 0 0 0 0 0 0 0 0 0 0 0 0 0 0 0 0.25 0"/>
<feBlend mode="normal" in2="BackgroundImageFix" result="effect1_dropShadow"/>
<feBlend mode="normal" in="SourceGraphic" in2="effect1_dropShadow" result="shape"/>
</filter>
</defs>
</svg>
