<svg width="84" height="109" viewBox="0 0 84 109" fill="none" xmlns="http://www.w3.org/2000/svg">
<g filter="url(#filter0_d)">
<rect x="9" y="4" width="66" height="66" rx="15" fill="#48C1F0"/>
</g>
<g clip-path="url(#clip0)">
<path opacity="0.15" d="M42.5 52.625C51.4056 52.625 58.625 45.4056 58.625 36.5C58.625 27.5944 51.4056 20.375 42.5 20.375V36.5H26.375C26.375 45.4056 33.5944 52.625 42.5 52.625Z" fill="white"/>
<g filter="url(#filter1_d)">
<path d="M26.375 36.5C26.375 45.4056 33.5944 52.625 42.5 52.625C51.4056 52.625 58.625 45.4056 58.625 36.5C58.625 27.5944 51.4056 20.375 42.5 20.375M26.375 36.5C26.375 27.5944 33.5944 20.375 42.5 20.375M26.375 36.5H42.5M42.5 20.375V36.5M42.5 36.5L53.8869 47.8869" stroke="white" stroke-width="2.5" stroke-linecap="round" stroke-linejoin="round"/>
</g>
</g>
<path d="M6.8637 91.096C5.5277 91.096 4.4637 90.736 3.6717 90.016L4.0437 89.26C4.4677 89.62 4.8997 89.876 5.3397 90.028C5.7797 90.18 6.2917 90.256 6.8757 90.256C7.5637 90.256 8.0917 90.124 8.4597 89.86C8.8357 89.588 9.0237 89.208 9.0237 88.72C9.0237 88.432 8.9317 88.2 8.7477 88.024C8.5717 87.84 8.3357 87.696 8.0397 87.592C7.7517 87.488 7.3637 87.38 6.8757 87.268C6.2197 87.124 5.6797 86.968 5.2557 86.8C4.8317 86.632 4.4877 86.392 4.2237 86.08C3.9597 85.76 3.8277 85.344 3.8277 84.832C3.8277 84.344 3.9557 83.916 4.2117 83.548C4.4677 83.172 4.8277 82.88 5.2917 82.672C5.7637 82.464 6.3117 82.36 6.9357 82.36C7.5277 82.36 8.0797 82.452 8.5917 82.636C9.1037 82.82 9.5357 83.088 9.8877 83.44L9.5037 84.196C9.1037 83.852 8.6957 83.6 8.2797 83.44C7.8717 83.28 7.4237 83.2 6.9357 83.2C6.2717 83.2 5.7517 83.344 5.3757 83.632C4.9997 83.912 4.8117 84.3 4.8117 84.796C4.8117 85.228 4.9757 85.552 5.3037 85.768C5.6317 85.984 6.1357 86.172 6.8157 86.332C7.5517 86.508 8.1277 86.672 8.5437 86.824C8.9677 86.968 9.3197 87.192 9.5997 87.496C9.8797 87.792 10.0197 88.188 10.0197 88.684C10.0197 89.164 9.8917 89.588 9.6357 89.956C9.3797 90.316 9.0117 90.596 8.5317 90.796C8.0597 90.996 7.5037 91.096 6.8637 91.096ZM12.7691 85.732V89.032C12.7691 89.48 12.8611 89.796 13.0451 89.98C13.2291 90.156 13.4891 90.244 13.8251 90.244C14.0491 90.244 14.2651 90.208 14.4731 90.136V90.964C14.2251 91.044 13.9451 91.084 13.6331 91.084C13.0571 91.084 12.6051 90.924 12.2771 90.604C11.9571 90.276 11.7971 89.796 11.7971 89.164V85.732H10.6211V84.964H11.7971V83.416L12.7691 83.068V84.964H14.4971V85.732H12.7691ZM20.9844 84.964V91H20.0244V89.908C19.8484 90.284 19.5804 90.576 19.2204 90.784C18.8684 90.984 18.4564 91.084 17.9844 91.084C17.4484 91.084 16.9764 90.956 16.5684 90.7C16.1684 90.444 15.8564 90.084 15.6324 89.62C15.4164 89.148 15.3084 88.6 15.3084 87.976C15.3084 87.352 15.4204 86.804 15.6444 86.332C15.8684 85.852 16.1804 85.48 16.5804 85.216C16.9884 84.952 17.4564 84.82 17.9844 84.82C18.4564 84.82 18.8684 84.924 19.2204 85.132C19.5724 85.34 19.8404 85.632 20.0244 86.008V84.964H20.9844ZM18.1764 90.28C18.7684 90.28 19.2244 90.08 19.5444 89.68C19.8644 89.272 20.0244 88.696 20.0244 87.952C20.0244 87.208 19.8644 86.636 19.5444 86.236C19.2244 85.836 18.7684 85.636 18.1764 85.636C17.5844 85.636 17.1204 85.844 16.7844 86.26C16.4564 86.668 16.2924 87.24 16.2924 87.976C16.2924 88.712 16.4564 89.28 16.7844 89.68C17.1124 90.08 17.5764 90.28 18.1764 90.28ZM24.1597 85.732V89.032C24.1597 89.48 24.2517 89.796 24.4357 89.98C24.6197 90.156 24.8797 90.244 25.2157 90.244C25.4397 90.244 25.6557 90.208 25.8637 90.136V90.964C25.6157 91.044 25.3357 91.084 25.0237 91.084C24.4477 91.084 23.9957 90.924 23.6677 90.604C23.3477 90.276 23.1877 89.796 23.1877 89.164V85.732H22.0117V84.964H23.1877V83.416L24.1597 83.068V84.964H25.8877V85.732H24.1597ZM27.059 84.964H28.031V91H27.059V84.964ZM28.151 82.408V83.512H26.963V82.408H28.151ZM31.9584 91.084C30.9424 91.084 30.1384 90.824 29.5464 90.304L29.8704 89.584C30.1984 89.84 30.5304 90.024 30.8664 90.136C31.2024 90.248 31.5784 90.304 31.9944 90.304C32.4504 90.304 32.7944 90.228 33.0264 90.076C33.2664 89.916 33.3864 89.688 33.3864 89.392C33.3864 89.152 33.3064 88.96 33.1464 88.816C32.9864 88.672 32.7224 88.56 32.3544 88.48L31.3344 88.24C30.8304 88.128 30.4384 87.928 30.1584 87.64C29.8864 87.352 29.7504 87.008 29.7504 86.608C29.7504 86.08 29.9624 85.652 30.3864 85.324C30.8104 84.988 31.3704 84.82 32.0664 84.82C32.4904 84.82 32.8904 84.888 33.2664 85.024C33.6424 85.16 33.9584 85.356 34.2144 85.612L33.8904 86.32C33.3224 85.848 32.7144 85.612 32.0664 85.612C31.6344 85.612 31.2984 85.696 31.0584 85.864C30.8264 86.024 30.7104 86.252 30.7104 86.548C30.7104 86.796 30.7824 86.992 30.9264 87.136C31.0784 87.28 31.3184 87.392 31.6464 87.472L32.6664 87.724C33.2264 87.852 33.6424 88.052 33.9144 88.324C34.1864 88.588 34.3224 88.936 34.3224 89.368C34.3224 89.888 34.1104 90.304 33.6864 90.616C33.2624 90.928 32.6864 91.084 31.9584 91.084ZM37.109 85.732V89.032C37.109 89.48 37.201 89.796 37.385 89.98C37.569 90.156 37.829 90.244 38.165 90.244C38.389 90.244 38.605 90.208 38.813 90.136V90.964C38.565 91.044 38.285 91.084 37.973 91.084C37.397 91.084 36.945 90.924 36.617 90.604C36.297 90.276 36.137 89.796 36.137 89.164V85.732H34.961V84.964H36.137V83.416L37.109 83.068V84.964H38.837V85.732H37.109ZM40.0083 84.964H40.9803V91H40.0083V84.964ZM41.1003 82.408V83.512H39.9123V82.408H41.1003ZM46.9356 91L43.8396 88.096V91H42.8676V82.168H43.8396V87.736L46.6836 84.976H47.9196L44.8956 87.868L48.2076 91H46.9356ZM52.2923 82.456H55.1603C56.5283 82.456 57.5843 82.828 58.3283 83.572C59.0803 84.308 59.4563 85.356 59.4563 86.716C59.4563 88.084 59.0803 89.14 58.3283 89.884C57.5843 90.628 56.5283 91 55.1603 91H52.2923V82.456ZM55.1003 90.16C56.2043 90.16 57.0323 89.872 57.5843 89.296C58.1443 88.72 58.4243 87.86 58.4243 86.716C58.4243 84.436 57.3163 83.296 55.1003 83.296H53.2763V90.16H55.1003ZM66.4415 84.964V91H65.4815V89.908C65.3055 90.284 65.0375 90.576 64.6775 90.784C64.3255 90.984 63.9135 91.084 63.4415 91.084C62.9055 91.084 62.4335 90.956 62.0255 90.7C61.6255 90.444 61.3135 90.084 61.0895 89.62C60.8735 89.148 60.7655 88.6 60.7655 87.976C60.7655 87.352 60.8775 86.804 61.1015 86.332C61.3255 85.852 61.6375 85.48 62.0375 85.216C62.4455 84.952 62.9135 84.82 63.4415 84.82C63.9135 84.82 64.3255 84.924 64.6775 85.132C65.0295 85.34 65.2975 85.632 65.4815 86.008V84.964H66.4415ZM63.6335 90.28C64.2255 90.28 64.6815 90.08 65.0015 89.68C65.3215 89.272 65.4815 88.696 65.4815 87.952C65.4815 87.208 65.3215 86.636 65.0015 86.236C64.6815 85.836 64.2255 85.636 63.6335 85.636C63.0415 85.636 62.5775 85.844 62.2415 86.26C61.9135 86.668 61.7495 87.24 61.7495 87.976C61.7495 88.712 61.9135 89.28 62.2415 89.68C62.5695 90.08 63.0335 90.28 63.6335 90.28ZM69.6168 85.732V89.032C69.6168 89.48 69.7088 89.796 69.8928 89.98C70.0768 90.156 70.3368 90.244 70.6728 90.244C70.8968 90.244 71.1128 90.208 71.3208 90.136V90.964C71.0728 91.044 70.7928 91.084 70.4808 91.084C69.9048 91.084 69.4528 90.924 69.1248 90.604C68.8048 90.276 68.6448 89.796 68.6448 89.164V85.732H67.4688V84.964H68.6448V83.416L69.6168 83.068V84.964H71.3448V85.732H69.6168ZM77.8321 84.964V91H76.8721V89.908C76.6961 90.284 76.4281 90.576 76.0681 90.784C75.7161 90.984 75.3041 91.084 74.8321 91.084C74.2961 91.084 73.8241 90.956 73.4161 90.7C73.0161 90.444 72.7041 90.084 72.4801 89.62C72.2641 89.148 72.1561 88.6 72.1561 87.976C72.1561 87.352 72.2681 86.804 72.4921 86.332C72.7161 85.852 73.0281 85.48 73.4281 85.216C73.8361 84.952 74.3041 84.82 74.8321 84.82C75.3041 84.82 75.7161 84.924 76.0681 85.132C76.4201 85.34 76.6881 85.632 76.8721 86.008V84.964H77.8321ZM75.0241 90.28C75.6161 90.28 76.0721 90.08 76.3921 89.68C76.7121 89.272 76.8721 88.696 76.8721 87.952C76.8721 87.208 76.7121 86.636 76.3921 86.236C76.0721 85.836 75.6161 85.636 75.0241 85.636C74.4321 85.636 73.9681 85.844 73.6321 86.26C73.3041 86.668 73.1401 87.24 73.1401 87.976C73.1401 88.712 73.3041 89.28 73.6321 89.68C73.9601 90.08 74.4241 90.28 75.0241 90.28ZM19.3542 106L14.9502 101.932V106H13.9662V97.456H14.9502V101.38L19.1502 97.456H20.4102L15.9462 101.62L20.6382 106H19.3542ZM26.445 102.952H22.017C22.025 103.72 22.201 104.3 22.545 104.692C22.897 105.084 23.405 105.28 24.069 105.28C24.773 105.28 25.421 105.044 26.013 104.572L26.337 105.28C26.073 105.528 25.733 105.724 25.317 105.868C24.909 106.012 24.489 106.084 24.057 106.084C23.113 106.084 22.373 105.808 21.837 105.256C21.301 104.696 21.033 103.932 21.033 102.964C21.033 102.348 21.153 101.804 21.393 101.332C21.633 100.852 21.969 100.48 22.401 100.216C22.833 99.952 23.325 99.82 23.877 99.82C24.677 99.82 25.305 100.084 25.761 100.612C26.217 101.132 26.445 101.852 26.445 102.772V102.952ZM23.889 100.576C23.385 100.576 22.973 100.728 22.653 101.032C22.341 101.336 22.141 101.764 22.053 102.316H25.569C25.521 101.748 25.353 101.316 25.065 101.02C24.785 100.724 24.393 100.576 23.889 100.576ZM29.9604 106.084C28.9444 106.084 28.1404 105.824 27.5484 105.304L27.8724 104.584C28.2004 104.84 28.5324 105.024 28.8684 105.136C29.2044 105.248 29.5804 105.304 29.9964 105.304C30.4524 105.304 30.7964 105.228 31.0284 105.076C31.2684 104.916 31.3884 104.688 31.3884 104.392C31.3884 104.152 31.3084 103.96 31.1484 103.816C30.9884 103.672 30.7244 103.56 30.3564 103.48L29.3364 103.24C28.8324 103.128 28.4404 102.928 28.1604 102.64C27.8884 102.352 27.7524 102.008 27.7524 101.608C27.7524 101.08 27.9644 100.652 28.3884 100.324C28.8124 99.988 29.3724 99.82 30.0684 99.82C30.4924 99.82 30.8924 99.888 31.2684 100.024C31.6444 100.16 31.9604 100.356 32.2164 100.612L31.8924 101.32C31.3244 100.848 30.7164 100.612 30.0684 100.612C29.6364 100.612 29.3004 100.696 29.0604 100.864C28.8284 101.024 28.7124 101.252 28.7124 101.548C28.7124 101.796 28.7844 101.992 28.9284 102.136C29.0804 102.28 29.3204 102.392 29.6484 102.472L30.6684 102.724C31.2284 102.852 31.6444 103.052 31.9164 103.324C32.1884 103.588 32.3244 103.936 32.3244 104.368C32.3244 104.888 32.1124 105.304 31.6884 105.616C31.2644 105.928 30.6884 106.084 29.9604 106.084ZM38.9255 102.952H34.4975C34.5055 103.72 34.6815 104.3 35.0255 104.692C35.3775 105.084 35.8855 105.28 36.5495 105.28C37.2535 105.28 37.9015 105.044 38.4935 104.572L38.8175 105.28C38.5535 105.528 38.2135 105.724 37.7975 105.868C37.3895 106.012 36.9695 106.084 36.5375 106.084C35.5935 106.084 34.8535 105.808 34.3175 105.256C33.7815 104.696 33.5135 103.932 33.5135 102.964C33.5135 102.348 33.6335 101.804 33.8735 101.332C34.1135 100.852 34.4495 100.48 34.8815 100.216C35.3135 99.952 35.8055 99.82 36.3575 99.82C37.1575 99.82 37.7855 100.084 38.2415 100.612C38.6975 101.132 38.9255 101.852 38.9255 102.772V102.952ZM36.3695 100.576C35.8655 100.576 35.4535 100.728 35.1335 101.032C34.8215 101.336 34.6215 101.764 34.5335 102.316H38.0495C38.0015 101.748 37.8335 101.316 37.5455 101.02C37.2655 100.724 36.8735 100.576 36.3695 100.576ZM43.4128 99.82C44.8608 99.82 45.5848 100.616 45.5848 102.208V106H44.6128V102.256C44.6128 101.696 44.5008 101.288 44.2768 101.032C44.0528 100.768 43.7008 100.636 43.2208 100.636C42.6608 100.636 42.2128 100.808 41.8768 101.152C41.5408 101.496 41.3728 101.96 41.3728 102.544V106H40.4008V97.168H41.3728V100.948C41.5648 100.58 41.8368 100.3 42.1888 100.108C42.5488 99.916 42.9568 99.82 43.4128 99.82ZM52.7364 99.964V106H51.7764V104.908C51.6004 105.284 51.3324 105.576 50.9724 105.784C50.6204 105.984 50.2084 106.084 49.7364 106.084C49.2004 106.084 48.7284 105.956 48.3204 105.7C47.9204 105.444 47.6084 105.084 47.3844 104.62C47.1684 104.148 47.0604 103.6 47.0604 102.976C47.0604 102.352 47.1724 101.804 47.3964 101.332C47.6204 100.852 47.9324 100.48 48.3324 100.216C48.7404 99.952 49.2084 99.82 49.7364 99.82C50.2084 99.82 50.6204 99.924 50.9724 100.132C51.3244 100.34 51.5924 100.632 51.7764 101.008V99.964H52.7364ZM49.9284 105.28C50.5204 105.28 50.9764 105.08 51.2964 104.68C51.6164 104.272 51.7764 103.696 51.7764 102.952C51.7764 102.208 51.6164 101.636 51.2964 101.236C50.9764 100.836 50.5204 100.636 49.9284 100.636C49.3364 100.636 48.8724 100.844 48.5364 101.26C48.2084 101.668 48.0444 102.24 48.0444 102.976C48.0444 103.712 48.2084 104.28 48.5364 104.68C48.8644 105.08 49.3284 105.28 49.9284 105.28ZM55.9117 100.732V104.032C55.9117 104.48 56.0037 104.796 56.1877 104.98C56.3717 105.156 56.6317 105.244 56.9677 105.244C57.1917 105.244 57.4077 105.208 57.6157 105.136V105.964C57.3677 106.044 57.0877 106.084 56.7757 106.084C56.1997 106.084 55.7477 105.924 55.4197 105.604C55.0997 105.276 54.9397 104.796 54.9397 104.164V100.732H53.7637V99.964H54.9397V98.416L55.9117 98.068V99.964H57.6397V100.732H55.9117ZM64.127 99.964V106H63.167V104.908C62.991 105.284 62.723 105.576 62.363 105.784C62.011 105.984 61.599 106.084 61.127 106.084C60.591 106.084 60.119 105.956 59.711 105.7C59.311 105.444 58.999 105.084 58.775 104.62C58.559 104.148 58.451 103.6 58.451 102.976C58.451 102.352 58.563 101.804 58.787 101.332C59.011 100.852 59.323 100.48 59.723 100.216C60.131 99.952 60.599 99.82 61.127 99.82C61.599 99.82 62.011 99.924 62.363 100.132C62.715 100.34 62.983 100.632 63.167 101.008V99.964H64.127ZM61.319 105.28C61.911 105.28 62.367 105.08 62.687 104.68C63.007 104.272 63.167 103.696 63.167 102.952C63.167 102.208 63.007 101.636 62.687 101.236C62.367 100.836 61.911 100.636 61.319 100.636C60.727 100.636 60.263 100.844 59.927 101.26C59.599 101.668 59.435 102.24 59.435 102.976C59.435 103.712 59.599 104.28 59.927 104.68C60.255 105.08 60.719 105.28 61.319 105.28ZM69.0183 99.82C70.4663 99.82 71.1903 100.616 71.1903 102.208V106H70.2183V102.256C70.2183 101.696 70.1063 101.288 69.8823 101.032C69.6583 100.768 69.3063 100.636 68.8263 100.636C68.2663 100.636 67.8183 100.808 67.4823 101.152C67.1463 101.496 66.9783 101.96 66.9783 102.544V106H66.0063V101.656C66.0063 101.032 65.9743 100.468 65.9103 99.964H66.8343L66.9303 101.044C67.1143 100.652 67.3903 100.352 67.7583 100.144C68.1263 99.928 68.5463 99.82 69.0183 99.82Z" fill="black"/>
<defs>
<filter id="filter0_d" x="0" y="0" width="84" height="84" filterUnits="userSpaceOnUse" color-interpolation-filters="sRGB">
<feFlood flood-opacity="0" result="BackgroundImageFix"/>
<feColorMatrix in="SourceAlpha" type="matrix" values="0 0 0 0 0 0 0 0 0 0 0 0 0 0 0 0 0 0 127 0"/>
<feOffset dy="5"/>
<feGaussianBlur stdDeviation="4.5"/>
<feColorMatrix type="matrix" values="0 0 0 0 0 0 0 0 0 0 0 0 0 0 0 0 0 0 0.25 0"/>
<feBlend mode="normal" in2="BackgroundImageFix" result="effect1_dropShadow"/>
<feBlend mode="normal" in="SourceGraphic" in2="effect1_dropShadow" result="shape"/>
</filter>
<filter id="filter1_d" x="21.125" y="19.125" width="42.75" height="42.75" filterUnits="userSpaceOnUse" color-interpolation-filters="sRGB">
<feFlood flood-opacity="0" result="BackgroundImageFix"/>
<feColorMatrix in="SourceAlpha" type="matrix" values="0 0 0 0 0 0 0 0 0 0 0 0 0 0 0 0 0 0 127 0"/>
<feOffset dy="4"/>
<feGaussianBlur stdDeviation="2"/>
<feColorMatrix type="matrix" values="0 0 0 0 0 0 0 0 0 0 0 0 0 0 0 0 0 0 0.25 0"/>
<feBlend mode="normal" in2="BackgroundImageFix" result="effect1_dropShadow"/>
<feBlend mode="normal" in="SourceGraphic" in2="effect1_dropShadow" result="shape"/>
</filter>
<clipPath id="clip0">
<rect width="43" height="43" fill="white" transform="translate(21 15)"/>
</clipPath>
</defs>
</svg>
