<svg width="84" height="109" viewBox="0 0 84 109" fill="none" xmlns="http://www.w3.org/2000/svg">
<g filter="url(#filter0_d)">
<rect x="9" y="4" width="66" height="66" rx="15" fill="#48C1F0"/>
</g>
<g clip-path="url(#clip0)">
<path opacity="0.15" d="M54.6242 43.0285V46.9802C54.6303 48.4908 53.2721 49.7523 51.7469 49.6147C38.5834 49.625 28.3751 39.3219 28.3854 26.2467C28.248 24.7297 29.5032 23.3765 31.0119 23.3751H34.9715C35.612 23.3688 36.233 23.5952 36.7187 24.0121C38.0994 25.1972 38.9876 29.2197 38.6459 30.8187C38.3791 32.0672 37.1206 32.9406 36.265 33.7946C38.1439 37.0924 40.8798 39.8229 44.1841 41.6981C45.0397 40.8441 45.9149 39.5881 47.1658 39.3219C48.7706 38.9803 52.8189 39.8697 53.9993 41.2601C54.4179 41.7531 54.6403 42.3825 54.6242 43.0285Z" fill="#001A72"/>
<g filter="url(#filter1_d)">
<path d="M45.1458 28.4792C46.2209 28.6889 47.288 29.163 48.0625 29.9375C48.837 30.712 49.3111 31.7791 49.5208 32.8542M45.875 23.375C48.1085 23.6231 50.1183 24.7036 51.7083 26.2917C53.2984 27.8797 54.3741 29.8918 54.625 32.125M54.6242 43.0285V46.9802C54.6303 48.4908 53.272 49.7523 51.7469 49.6147C38.5834 49.625 28.3751 39.3219 28.3854 26.2467C28.248 24.7297 29.5032 23.3765 31.0119 23.3751H34.9715C35.612 23.3688 36.233 23.5952 36.7187 24.0121C38.0994 25.1972 38.9875 29.2197 38.6458 30.8187C38.3791 32.0672 37.1206 32.9406 36.2649 33.7946C38.1438 37.0924 40.8798 39.8229 44.1841 41.6981C45.0397 40.8441 45.9149 39.5881 47.1658 39.3219C48.7705 38.9803 52.8189 39.8697 53.9993 41.2601C54.4178 41.7531 54.6402 42.3825 54.6242 43.0285Z" stroke="white" stroke-width="2.5" stroke-linecap="round" stroke-linejoin="round"/>
</g>
</g>
<path d="M16.788 91.096C15.98 91.096 15.276 90.92 14.676 90.568C14.084 90.216 13.628 89.712 13.308 89.056C12.988 88.392 12.828 87.612 12.828 86.716C12.828 85.82 12.988 85.048 13.308 84.4C13.628 83.744 14.084 83.24 14.676 82.888C15.276 82.536 15.98 82.36 16.788 82.36C17.38 82.36 17.92 82.452 18.408 82.636C18.904 82.812 19.332 83.08 19.692 83.44L19.32 84.196C18.912 83.844 18.508 83.592 18.108 83.44C17.716 83.288 17.28 83.212 16.8 83.212C15.864 83.212 15.136 83.516 14.616 84.124C14.104 84.732 13.848 85.596 13.848 86.716C13.848 87.844 14.104 88.716 14.616 89.332C15.128 89.94 15.856 90.244 16.8 90.244C17.28 90.244 17.716 90.168 18.108 90.016C18.508 89.864 18.912 89.612 19.32 89.26L19.692 90.016C19.332 90.376 18.904 90.648 18.408 90.832C17.92 91.008 17.38 91.096 16.788 91.096ZM26.4219 84.964V91H25.4619V89.908C25.2859 90.284 25.0179 90.576 24.6579 90.784C24.3059 90.984 23.8939 91.084 23.4219 91.084C22.8859 91.084 22.4139 90.956 22.0059 90.7C21.6059 90.444 21.2939 90.084 21.0699 89.62C20.8539 89.148 20.7459 88.6 20.7459 87.976C20.7459 87.352 20.8579 86.804 21.0819 86.332C21.3059 85.852 21.6179 85.48 22.0179 85.216C22.4259 84.952 22.8939 84.82 23.4219 84.82C23.8939 84.82 24.3059 84.924 24.6579 85.132C25.0099 85.34 25.2779 85.632 25.4619 86.008V84.964H26.4219ZM23.6139 90.28C24.2059 90.28 24.6619 90.08 24.9819 89.68C25.3019 89.272 25.4619 88.696 25.4619 87.952C25.4619 87.208 25.3019 86.636 24.9819 86.236C24.6619 85.836 24.2059 85.636 23.6139 85.636C23.0219 85.636 22.5579 85.844 22.2219 86.26C21.8939 86.668 21.7299 87.24 21.7299 87.976C21.7299 88.712 21.8939 89.28 22.2219 89.68C22.5499 90.08 23.0139 90.28 23.6139 90.28ZM28.3012 82.168H29.2732V91H28.3012V82.168ZM31.1606 82.168H32.1326V91H31.1606V82.168ZM40.9169 91.096C40.1089 91.096 39.4049 90.92 38.8049 90.568C38.2129 90.216 37.7569 89.712 37.4369 89.056C37.1169 88.392 36.9569 87.612 36.9569 86.716C36.9569 85.82 37.1169 85.048 37.4369 84.4C37.7569 83.744 38.2129 83.24 38.8049 82.888C39.4049 82.536 40.1089 82.36 40.9169 82.36C41.5089 82.36 42.0489 82.452 42.5369 82.636C43.0329 82.812 43.4609 83.08 43.8209 83.44L43.4489 84.196C43.0409 83.844 42.6369 83.592 42.2369 83.44C41.8449 83.288 41.4089 83.212 40.9289 83.212C39.9929 83.212 39.2649 83.516 38.7449 84.124C38.2329 84.732 37.9769 85.596 37.9769 86.716C37.9769 87.844 38.2329 88.716 38.7449 89.332C39.2569 89.94 39.9849 90.244 40.9289 90.244C41.4089 90.244 41.8449 90.168 42.2369 90.016C42.6369 89.864 43.0409 89.612 43.4489 89.26L43.8209 90.016C43.4609 90.376 43.0329 90.648 42.5369 90.832C42.0489 91.008 41.5089 91.096 40.9169 91.096ZM50.2868 87.952H45.8588C45.8668 88.72 46.0428 89.3 46.3868 89.692C46.7388 90.084 47.2468 90.28 47.9108 90.28C48.6148 90.28 49.2628 90.044 49.8548 89.572L50.1788 90.28C49.9148 90.528 49.5748 90.724 49.1588 90.868C48.7508 91.012 48.3308 91.084 47.8988 91.084C46.9548 91.084 46.2148 90.808 45.6788 90.256C45.1428 89.696 44.8748 88.932 44.8748 87.964C44.8748 87.348 44.9948 86.804 45.2348 86.332C45.4748 85.852 45.8108 85.48 46.2428 85.216C46.6748 84.952 47.1668 84.82 47.7188 84.82C48.5188 84.82 49.1468 85.084 49.6028 85.612C50.0588 86.132 50.2868 86.852 50.2868 87.772V87.952ZM47.7308 85.576C47.2268 85.576 46.8148 85.728 46.4948 86.032C46.1828 86.336 45.9828 86.764 45.8948 87.316H49.4108C49.3628 86.748 49.1948 86.316 48.9068 86.02C48.6268 85.724 48.2348 85.576 47.7308 85.576ZM54.7742 84.82C56.2222 84.82 56.9462 85.616 56.9462 87.208V91H55.9742V87.256C55.9742 86.696 55.8622 86.288 55.6382 86.032C55.4142 85.768 55.0622 85.636 54.5822 85.636C54.0222 85.636 53.5742 85.808 53.2382 86.152C52.9022 86.496 52.7342 86.96 52.7342 87.544V91H51.7622V86.656C51.7622 86.032 51.7302 85.468 51.6662 84.964H52.5902L52.6862 86.044C52.8702 85.652 53.1462 85.352 53.5142 85.144C53.8822 84.928 54.3022 84.82 54.7742 84.82ZM60.0777 85.732V89.032C60.0777 89.48 60.1697 89.796 60.3537 89.98C60.5377 90.156 60.7977 90.244 61.1337 90.244C61.3577 90.244 61.5737 90.208 61.7817 90.136V90.964C61.5337 91.044 61.2537 91.084 60.9417 91.084C60.3657 91.084 59.9137 90.924 59.5857 90.604C59.2657 90.276 59.1057 89.796 59.1057 89.164V85.732H57.9297V84.964H59.1057V83.416L60.0777 83.068V84.964H61.8057V85.732H60.0777ZM68.029 87.952H63.601C63.609 88.72 63.785 89.3 64.129 89.692C64.481 90.084 64.989 90.28 65.653 90.28C66.357 90.28 67.005 90.044 67.597 89.572L67.921 90.28C67.657 90.528 67.317 90.724 66.901 90.868C66.493 91.012 66.073 91.084 65.641 91.084C64.697 91.084 63.957 90.808 63.421 90.256C62.885 89.696 62.617 88.932 62.617 87.964C62.617 87.348 62.737 86.804 62.977 86.332C63.217 85.852 63.553 85.48 63.985 85.216C64.417 84.952 64.909 84.82 65.461 84.82C66.261 84.82 66.889 85.084 67.345 85.612C67.801 86.132 68.029 86.852 68.029 87.772V87.952ZM65.473 85.576C64.969 85.576 64.557 85.728 64.237 86.032C63.925 86.336 63.725 86.764 63.637 87.316H67.153C67.105 86.748 66.937 86.316 66.649 86.02C66.369 85.724 65.977 85.576 65.473 85.576ZM72.3124 84.82C72.5124 84.82 72.6964 84.844 72.8644 84.892L72.8404 85.78C72.6564 85.716 72.4444 85.684 72.2044 85.684C71.6204 85.684 71.1844 85.868 70.8964 86.236C70.6164 86.596 70.4764 87.036 70.4764 87.556V91H69.5044V86.656C69.5044 86.032 69.4724 85.468 69.4084 84.964H70.3324L70.4284 86.08C70.5804 85.672 70.8244 85.36 71.1604 85.144C71.4964 84.928 71.8804 84.82 72.3124 84.82ZM22.0345 97.456H24.9025C26.2705 97.456 27.3265 97.828 28.0705 98.572C28.8225 99.308 29.1985 100.356 29.1985 101.716C29.1985 103.084 28.8225 104.14 28.0705 104.884C27.3265 105.628 26.2705 106 24.9025 106H22.0345V97.456ZM24.8425 105.16C25.9465 105.16 26.7745 104.872 27.3265 104.296C27.8865 103.72 28.1665 102.86 28.1665 101.716C28.1665 99.436 27.0585 98.296 24.8425 98.296H23.0185V105.16H24.8425ZM36.1836 99.964V106H35.2236V104.908C35.0476 105.284 34.7796 105.576 34.4196 105.784C34.0676 105.984 33.6556 106.084 33.1836 106.084C32.6476 106.084 32.1756 105.956 31.7676 105.7C31.3676 105.444 31.0556 105.084 30.8316 104.62C30.6156 104.148 30.5076 103.6 30.5076 102.976C30.5076 102.352 30.6196 101.804 30.8436 101.332C31.0676 100.852 31.3796 100.48 31.7796 100.216C32.1876 99.952 32.6556 99.82 33.1836 99.82C33.6556 99.82 34.0676 99.924 34.4196 100.132C34.7716 100.34 35.0396 100.632 35.2236 101.008V99.964H36.1836ZM33.3756 105.28C33.9676 105.28 34.4236 105.08 34.7436 104.68C35.0636 104.272 35.2236 103.696 35.2236 102.952C35.2236 102.208 35.0636 101.636 34.7436 101.236C34.4236 100.836 33.9676 100.636 33.3756 100.636C32.7836 100.636 32.3196 100.844 31.9836 101.26C31.6556 101.668 31.4916 102.24 31.4916 102.976C31.4916 103.712 31.6556 104.28 31.9836 104.68C32.3116 105.08 32.7756 105.28 33.3756 105.28ZM40.871 99.82C41.071 99.82 41.255 99.844 41.423 99.892L41.399 100.78C41.215 100.716 41.003 100.684 40.763 100.684C40.179 100.684 39.743 100.868 39.455 101.236C39.175 101.596 39.035 102.036 39.035 102.556V106H38.063V101.656C38.063 101.032 38.031 100.468 37.967 99.964H38.891L38.987 101.08C39.139 100.672 39.383 100.36 39.719 100.144C40.055 99.928 40.439 99.82 40.871 99.82ZM47.4626 99.964V106H46.5146V104.956C46.3226 105.324 46.0546 105.604 45.7106 105.796C45.3666 105.988 44.9786 106.084 44.5466 106.084C43.8346 106.084 43.2946 105.884 42.9266 105.484C42.5586 105.084 42.3746 104.492 42.3746 103.708V99.964H43.3466V103.684C43.3466 104.228 43.4586 104.628 43.6826 104.884C43.9066 105.14 44.2466 105.268 44.7026 105.268C45.2386 105.268 45.6706 105.096 45.9986 104.752C46.3266 104.4 46.4906 103.94 46.4906 103.372V99.964H47.4626ZM52.1444 99.82C52.3444 99.82 52.5284 99.844 52.6964 99.892L52.6724 100.78C52.4884 100.716 52.2764 100.684 52.0364 100.684C51.4524 100.684 51.0164 100.868 50.7284 101.236C50.4484 101.596 50.3084 102.036 50.3084 102.556V106H49.3364V101.656C49.3364 101.032 49.3044 100.468 49.2404 99.964H50.1644L50.2604 101.08C50.4124 100.672 50.6564 100.36 50.9924 100.144C51.3284 99.928 51.7124 99.82 52.1444 99.82ZM58.8829 99.964V106H57.9229V104.908C57.7469 105.284 57.4789 105.576 57.1189 105.784C56.7669 105.984 56.3549 106.084 55.8829 106.084C55.3469 106.084 54.8749 105.956 54.4669 105.7C54.0669 105.444 53.7549 105.084 53.5309 104.62C53.3149 104.148 53.2069 103.6 53.2069 102.976C53.2069 102.352 53.3189 101.804 53.5429 101.332C53.7669 100.852 54.0789 100.48 54.4789 100.216C54.8869 99.952 55.3549 99.82 55.8829 99.82C56.3549 99.82 56.7669 99.924 57.1189 100.132C57.4709 100.34 57.7389 100.632 57.9229 101.008V99.964H58.8829ZM56.0749 105.28C56.6669 105.28 57.1229 105.08 57.4429 104.68C57.7629 104.272 57.9229 103.696 57.9229 102.952C57.9229 102.208 57.7629 101.636 57.4429 101.236C57.1229 100.836 56.6669 100.636 56.0749 100.636C55.4829 100.636 55.0189 100.844 54.6829 101.26C54.3549 101.668 54.1909 102.24 54.1909 102.976C54.1909 103.712 54.3549 104.28 54.6829 104.68C55.0109 105.08 55.4749 105.28 56.0749 105.28ZM62.0582 100.732V104.032C62.0582 104.48 62.1502 104.796 62.3342 104.98C62.5182 105.156 62.7782 105.244 63.1142 105.244C63.3382 105.244 63.5542 105.208 63.7622 105.136V105.964C63.5142 106.044 63.2342 106.084 62.9222 106.084C62.3462 106.084 61.8942 105.924 61.5662 105.604C61.2462 105.276 61.0862 104.796 61.0862 104.164V100.732H59.9102V99.964H61.0862V98.416L62.0582 98.068V99.964H63.7862V100.732H62.0582Z" fill="black"/>
<defs>
<filter id="filter0_d" x="0" y="0" width="84" height="84" filterUnits="userSpaceOnUse" color-interpolation-filters="sRGB">
<feFlood flood-opacity="0" result="BackgroundImageFix"/>
<feColorMatrix in="SourceAlpha" type="matrix" values="0 0 0 0 0 0 0 0 0 0 0 0 0 0 0 0 0 0 127 0"/>
<feOffset dy="5"/>
<feGaussianBlur stdDeviation="4.5"/>
<feColorMatrix type="matrix" values="0 0 0 0 0 0 0 0 0 0 0 0 0 0 0 0 0 0 0.25 0"/>
<feBlend mode="normal" in2="BackgroundImageFix" result="effect1_dropShadow"/>
<feBlend mode="normal" in="SourceGraphic" in2="effect1_dropShadow" result="shape"/>
</filter>
<filter id="filter1_d" x="23.1249" y="22.1249" width="36.7502" height="36.7502" filterUnits="userSpaceOnUse" color-interpolation-filters="sRGB">
<feFlood flood-opacity="0" result="BackgroundImageFix"/>
<feColorMatrix in="SourceAlpha" type="matrix" values="0 0 0 0 0 0 0 0 0 0 0 0 0 0 0 0 0 0 127 0"/>
<feOffset dy="4"/>
<feGaussianBlur stdDeviation="2"/>
<feColorMatrix type="matrix" values="0 0 0 0 0 0 0 0 0 0 0 0 0 0 0 0 0 0 0.25 0"/>
<feBlend mode="normal" in2="BackgroundImageFix" result="effect1_dropShadow"/>
<feBlend mode="normal" in="SourceGraphic" in2="effect1_dropShadow" result="shape"/>
</filter>
<clipPath id="clip0">
<rect width="35" height="35" fill="white" transform="translate(24 19)"/>
</clipPath>
</defs>
</svg>
