<svg width="60" height="54" viewBox="0 0 60 54" fill="none" xmlns="http://www.w3.org/2000/svg">
<path opacity="0.15" d="M17.3333 12.8333L30 1.75L42.6667 12.8333L42.6667 28.6667H34.75V22.3333C34.75 21.0736 34.2496 19.8654 33.3588 18.9746C32.468 18.0838 31.2598 17.5833 30 17.5833C28.7402 17.5833 27.532 18.0838 26.6412 18.9746C25.7504 19.8654 25.25 21.0736 25.25 22.3333V28.6667H17.3333L17.3333 12.8333Z" fill="#001A72"/>
<path d="M17.3333 12.8333L30 1.75L42.6667 12.8333L42.6667 28.6667H34.75V22.3333C34.75 21.0736 34.2496 19.8654 33.3588 18.9746C32.468 18.0838 31.2598 17.5833 30 17.5833C28.7402 17.5833 27.532 18.0838 26.6412 18.9746C25.7504 19.8654 25.25 21.0736 25.25 22.3333V28.6667H17.3333L17.3333 12.8333Z" fill="#48C1F0" stroke="white" stroke-width="2.5" stroke-linecap="round" stroke-linejoin="round"/>
<path d="M7.67297 44.51C8.28297 44.68 8.75797 44.99 9.09797 45.44C9.43797 45.88 9.60797 46.43 9.60797 47.09C9.60797 48.02 9.29797 48.74 8.67797 49.25C8.05797 49.75 7.18297 50 6.05297 50H1.61297V39.32H5.90297C6.99297 39.32 7.83797 39.565 8.43797 40.055C9.04797 40.535 9.35297 41.22 9.35297 42.11C9.35297 42.68 9.20297 43.175 8.90297 43.595C8.61297 44.005 8.20297 44.31 7.67297 44.51ZM2.82797 44.06H5.70797C6.50797 44.06 7.11297 43.9 7.52297 43.58C7.93297 43.26 8.13797 42.79 8.13797 42.17C8.13797 40.95 7.32797 40.34 5.70797 40.34H2.82797V44.06ZM5.94797 48.98C6.78797 48.98 7.40297 48.825 7.79297 48.515C8.19297 48.195 8.39297 47.71 8.39297 47.06C8.39297 45.75 7.57797 45.095 5.94797 45.095H2.82797V48.98H5.94797ZM17.9879 46.19H12.4529C12.4629 47.15 12.6829 47.875 13.1129 48.365C13.5529 48.855 14.1879 49.1 15.0179 49.1C15.8979 49.1 16.7079 48.805 17.4479 48.215L17.8529 49.1C17.5229 49.41 17.0979 49.655 16.5779 49.835C16.0679 50.015 15.5429 50.105 15.0029 50.105C13.8229 50.105 12.8979 49.76 12.2279 49.07C11.5579 48.37 11.2229 47.415 11.2229 46.205C11.2229 45.435 11.3729 44.755 11.6729 44.165C11.9729 43.565 12.3929 43.1 12.9329 42.77C13.4729 42.44 14.0879 42.275 14.7779 42.275C15.7779 42.275 16.5629 42.605 17.1329 43.265C17.7029 43.915 17.9879 44.815 17.9879 45.965V46.19ZM14.7929 43.22C14.1629 43.22 13.6479 43.41 13.2479 43.79C12.8579 44.17 12.6079 44.705 12.4979 45.395H16.8929C16.8329 44.685 16.6229 44.145 16.2629 43.775C15.9129 43.405 15.4229 43.22 14.7929 43.22ZM23.3421 42.275C23.5921 42.275 23.8221 42.305 24.0321 42.365L24.0021 43.475C23.7721 43.395 23.5071 43.355 23.2071 43.355C22.4771 43.355 21.9321 43.585 21.5721 44.045C21.2221 44.495 21.0471 45.045 21.0471 45.695V50H19.8321V44.57C19.8321 43.79 19.7921 43.085 19.7121 42.455H20.8671L20.9871 43.85C21.1771 43.34 21.4821 42.95 21.9021 42.68C22.3221 42.41 22.8021 42.275 23.3421 42.275ZM31.7652 42.455V50H30.5652V48.635C30.3452 49.105 30.0102 49.47 29.5602 49.73C29.1202 49.98 28.6052 50.105 28.0152 50.105C27.3452 50.105 26.7552 49.945 26.2452 49.625C25.7452 49.305 25.3552 48.855 25.0752 48.275C24.8052 47.685 24.6702 47 24.6702 46.22C24.6702 45.44 24.8102 44.755 25.0902 44.165C25.3702 43.565 25.7602 43.1 26.2602 42.77C26.7702 42.44 27.3552 42.275 28.0152 42.275C28.6052 42.275 29.1202 42.405 29.5602 42.665C30.0002 42.925 30.3352 43.29 30.5652 43.76V42.455H31.7652ZM28.2552 49.1C28.9952 49.1 29.5652 48.85 29.9652 48.35C30.3652 47.84 30.5652 47.12 30.5652 46.19C30.5652 45.26 30.3652 44.545 29.9652 44.045C29.5652 43.545 28.9952 43.295 28.2552 43.295C27.5152 43.295 26.9352 43.555 26.5152 44.075C26.1052 44.585 25.9002 45.3 25.9002 46.22C25.9002 47.14 26.1052 47.85 26.5152 48.35C26.9252 48.85 27.5052 49.1 28.2552 49.1ZM37.8793 42.275C39.6893 42.275 40.5943 43.27 40.5943 45.26V50H39.3793V45.32C39.3793 44.62 39.2393 44.11 38.9593 43.79C38.6793 43.46 38.2393 43.295 37.6393 43.295C36.9393 43.295 36.3793 43.51 35.9593 43.94C35.5393 44.37 35.3293 44.95 35.3293 45.68V50H34.1143V44.57C34.1143 43.79 34.0743 43.085 33.9943 42.455H35.1493L35.2693 43.805C35.4993 43.315 35.8443 42.94 36.3043 42.68C36.7643 42.41 37.2893 42.275 37.8793 42.275ZM49.5338 38.96V50H48.3338V48.635C48.1138 49.105 47.7788 49.47 47.3288 49.73C46.8888 49.98 46.3738 50.105 45.7838 50.105C45.1238 50.105 44.5388 49.94 44.0288 49.61C43.5288 49.28 43.1388 48.82 42.8588 48.23C42.5788 47.63 42.4388 46.94 42.4388 46.16C42.4388 45.38 42.5738 44.7 42.8438 44.12C43.1238 43.53 43.5188 43.075 44.0288 42.755C44.5388 42.435 45.1238 42.275 45.7838 42.275C46.3738 42.275 46.8888 42.405 47.3288 42.665C47.7688 42.915 48.0988 43.27 48.3188 43.73V38.96H49.5338ZM46.0238 49.1C46.7638 49.1 47.3338 48.85 47.7338 48.35C48.1338 47.84 48.3338 47.12 48.3338 46.19C48.3338 45.27 48.1338 44.56 47.7338 44.06C47.3338 43.55 46.7638 43.295 46.0238 43.295C45.2838 43.295 44.7038 43.545 44.2838 44.045C43.8738 44.545 43.6688 45.25 43.6688 46.16C43.6688 47.09 43.8738 47.815 44.2838 48.335C44.7038 48.845 45.2838 49.1 46.0238 49.1ZM58.5279 42.455V50H57.3279V48.635C57.1079 49.105 56.7729 49.47 56.3229 49.73C55.8829 49.98 55.3679 50.105 54.7779 50.105C54.1079 50.105 53.5179 49.945 53.0079 49.625C52.5079 49.305 52.1179 48.855 51.8379 48.275C51.5679 47.685 51.4329 47 51.4329 46.22C51.4329 45.44 51.5729 44.755 51.8529 44.165C52.1329 43.565 52.5229 43.1 53.0229 42.77C53.5329 42.44 54.1179 42.275 54.7779 42.275C55.3679 42.275 55.8829 42.405 56.3229 42.665C56.7629 42.925 57.0979 43.29 57.3279 43.76V42.455H58.5279ZM55.0179 49.1C55.7579 49.1 56.3279 48.85 56.7279 48.35C57.1279 47.84 57.3279 47.12 57.3279 46.19C57.3279 45.26 57.1279 44.545 56.7279 44.045C56.3279 43.545 55.7579 43.295 55.0179 43.295C54.2779 43.295 53.6979 43.555 53.2779 44.075C52.8679 44.585 52.6629 45.3 52.6629 46.22C52.6629 47.14 52.8679 47.85 53.2779 48.35C53.6879 48.85 54.2679 49.1 55.0179 49.1Z" fill="white"/>
</svg>
