<svg width="39" height="58" viewBox="0 0 39 58" fill="none" xmlns="http://www.w3.org/2000/svg">
<g opacity="0.15">
<path d="M19.5819 34.1248C19.5546 34.1249 19.5273 34.125 19.5 34.125C19.4727 34.125 19.4454 34.1249 19.4181 34.1248C19.4457 34.0978 19.473 34.0705 19.5 34.0429C19.527 34.0705 19.5543 34.0978 19.5819 34.1248Z" fill="white"/>
<path fill-rule="evenodd" clip-rule="evenodd" d="M29.2395 30.4104C29.2465 30.2953 29.25 30.1793 29.25 30.0625C29.25 26.9214 26.7036 24.375 23.5625 24.375H15.4375C12.2964 24.375 9.75 26.9214 9.75 30.0625C9.75 30.1793 9.75352 30.2953 9.76047 30.4104C6.76236 27.7322 4.875 23.8365 4.875 19.5C4.875 11.4228 11.4228 4.875 19.5 4.875C27.5772 4.875 34.125 11.4228 34.125 19.5C34.125 23.8365 32.2376 27.7322 29.2395 30.4104ZM19.5 19.5C22.1924 19.5 24.375 17.3174 24.375 14.625C24.375 11.9326 22.1924 9.75 19.5 9.75C16.8076 9.75 14.625 11.9326 14.625 14.625C14.625 17.3174 16.8076 19.5 19.5 19.5Z" fill="white"/>
</g>
<path d="M15.7662 25.375H23.2338V23.375H15.7662V25.375ZM23.2338 25.375C26.0042 25.375 28.25 27.6208 28.25 30.3912H30.25C30.25 26.5163 27.1087 23.375 23.2338 23.375V25.375ZM15.7662 23.375C11.8913 23.375 8.75 26.5163 8.75 30.3912H10.75C10.75 27.6208 12.9958 25.375 15.7662 25.375V23.375ZM23.375 14.625C23.375 16.7651 21.6401 18.5 19.5 18.5V20.5C22.7447 20.5 25.375 17.8697 25.375 14.625H23.375ZM19.5 18.5C17.3599 18.5 15.625 16.7651 15.625 14.625H13.625C13.625 17.8697 16.2553 20.5 19.5 20.5V18.5ZM15.625 14.625C15.625 12.4849 17.3599 10.75 19.5 10.75V8.75C16.2553 8.75 13.625 11.3803 13.625 14.625H15.625ZM19.5 10.75C21.6401 10.75 23.375 12.4849 23.375 14.625H25.375C25.375 11.3803 22.7447 8.75 19.5 8.75V10.75ZM33.125 19.5C33.125 27.0249 27.0249 33.125 19.5 33.125V35.125C28.1294 35.125 35.125 28.1294 35.125 19.5H33.125ZM19.5 33.125C11.9751 33.125 5.875 27.0249 5.875 19.5H3.875C3.875 28.1294 10.8706 35.125 19.5 35.125V33.125ZM5.875 19.5C5.875 11.9751 11.9751 5.875 19.5 5.875V3.875C10.8706 3.875 3.875 10.8706 3.875 19.5H5.875ZM19.5 5.875C27.0249 5.875 33.125 11.9751 33.125 19.5H35.125C35.125 10.8706 28.1294 3.875 19.5 3.875V5.875Z" fill="white"/>
<path d="M9.7265 51.255H4.1465L2.9615 54H1.6865L6.3815 43.32H7.4615L12.1565 54H10.8965L9.7265 51.255ZM9.2915 50.235L6.9365 44.745L4.5815 50.235H9.2915ZM18.6871 54L14.8171 50.37V54H13.6021V42.96H14.8171V49.92L18.3721 46.47H19.9171L16.1371 50.085L20.2771 54H18.6871ZM27.6369 46.455V54H26.4519V52.695C26.2119 53.155 25.8769 53.505 25.4469 53.745C25.0169 53.985 24.5319 54.105 23.9919 54.105C23.1019 54.105 22.4269 53.855 21.9669 53.355C21.5069 52.855 21.2769 52.115 21.2769 51.135V46.455H22.4919V51.105C22.4919 51.785 22.6319 52.285 22.9119 52.605C23.1919 52.925 23.6169 53.085 24.1869 53.085C24.8569 53.085 25.3969 52.87 25.8069 52.44C26.2169 52 26.4219 51.425 26.4219 50.715V46.455H27.6369ZM33.7441 46.275C35.5541 46.275 36.4591 47.27 36.4591 49.26V54H35.2441V49.32C35.2441 48.62 35.1041 48.11 34.8241 47.79C34.5441 47.46 34.1041 47.295 33.5041 47.295C32.8041 47.295 32.2441 47.51 31.8241 47.94C31.4041 48.37 31.1941 48.95 31.1941 49.68V54H29.9791V48.57C29.9791 47.79 29.9391 47.085 29.8591 46.455H31.0141L31.1341 47.805C31.3641 47.315 31.7091 46.94 32.1691 46.68C32.6291 46.41 33.1541 46.275 33.7441 46.275Z" fill="white"/>
</svg>
