<svg width="84" height="109" viewBox="0 0 84 109" fill="none" xmlns="http://www.w3.org/2000/svg">
<g filter="url(#filter0_d)">
<rect x="9" y="4" width="66" height="66" rx="15" fill="#48C1F0"/>
</g>
<path d="M32.0378 91L27.6338 86.932V91H26.6498V82.456H27.6338V86.38L31.8338 82.456H33.0938L28.6298 86.62L33.3218 91H32.0378ZM39.3926 84.964V91H38.4326V89.908C38.2566 90.284 37.9886 90.576 37.6286 90.784C37.2766 90.984 36.8646 91.084 36.3926 91.084C35.8566 91.084 35.3846 90.956 34.9766 90.7C34.5766 90.444 34.2646 90.084 34.0406 89.62C33.8246 89.148 33.7166 88.6 33.7166 87.976C33.7166 87.352 33.8286 86.804 34.0526 86.332C34.2766 85.852 34.5886 85.48 34.9886 85.216C35.3966 84.952 35.8646 84.82 36.3926 84.82C36.8646 84.82 37.2766 84.924 37.6286 85.132C37.9806 85.34 38.2486 85.632 38.4326 86.008V84.964H39.3926ZM36.5846 90.28C37.1766 90.28 37.6326 90.08 37.9526 89.68C38.2726 89.272 38.4326 88.696 38.4326 87.952C38.4326 87.208 38.2726 86.636 37.9526 86.236C37.6326 85.836 37.1766 85.636 36.5846 85.636C35.9926 85.636 35.5286 85.844 35.1926 86.26C34.8646 86.668 34.7006 87.24 34.7006 87.976C34.7006 88.712 34.8646 89.28 35.1926 89.68C35.5206 90.08 35.9846 90.28 36.5846 90.28ZM46.5879 82.168V91H45.6279V89.908C45.4519 90.284 45.1839 90.576 44.8239 90.784C44.4719 90.984 44.0599 91.084 43.5879 91.084C43.0599 91.084 42.5919 90.952 42.1839 90.688C41.7839 90.424 41.4719 90.056 41.2479 89.584C41.0239 89.104 40.9119 88.552 40.9119 87.928C40.9119 87.304 41.0199 86.76 41.2359 86.296C41.4599 85.824 41.7759 85.46 42.1839 85.204C42.5919 84.948 43.0599 84.82 43.5879 84.82C44.0599 84.82 44.4719 84.924 44.8239 85.132C45.1759 85.332 45.4399 85.616 45.6159 85.984V82.168H46.5879ZM43.7799 90.28C44.3719 90.28 44.8279 90.08 45.1479 89.68C45.4679 89.272 45.6279 88.696 45.6279 87.952C45.6279 87.216 45.4679 86.648 45.1479 86.248C44.8279 85.84 44.3719 85.636 43.7799 85.636C43.1879 85.636 42.7239 85.836 42.3879 86.236C42.0599 86.636 41.8959 87.2 41.8959 87.928C41.8959 88.672 42.0599 89.252 42.3879 89.668C42.7239 90.076 43.1879 90.28 43.7799 90.28ZM53.5193 87.952H49.0913C49.0993 88.72 49.2753 89.3 49.6193 89.692C49.9713 90.084 50.4793 90.28 51.1433 90.28C51.8473 90.28 52.4953 90.044 53.0873 89.572L53.4113 90.28C53.1473 90.528 52.8073 90.724 52.3913 90.868C51.9833 91.012 51.5633 91.084 51.1313 91.084C50.1873 91.084 49.4473 90.808 48.9113 90.256C48.3753 89.696 48.1073 88.932 48.1073 87.964C48.1073 87.348 48.2273 86.804 48.4673 86.332C48.7073 85.852 49.0433 85.48 49.4753 85.216C49.9073 84.952 50.3993 84.82 50.9513 84.82C51.7513 84.82 52.3793 85.084 52.8353 85.612C53.2913 86.132 53.5193 86.852 53.5193 87.772V87.952ZM50.9633 85.576C50.4593 85.576 50.0473 85.728 49.7273 86.032C49.4153 86.336 49.2153 86.764 49.1273 87.316H52.6433C52.5953 86.748 52.4273 86.316 52.1393 86.02C51.8593 85.724 51.4673 85.576 50.9633 85.576ZM57.8026 84.82C58.0026 84.82 58.1866 84.844 58.3546 84.892L58.3306 85.78C58.1466 85.716 57.9346 85.684 57.6946 85.684C57.1106 85.684 56.6746 85.868 56.3866 86.236C56.1066 86.596 55.9666 87.036 55.9666 87.556V91H54.9946V86.656C54.9946 86.032 54.9626 85.468 54.8986 84.964H55.8226L55.9186 86.08C56.0706 85.672 56.3146 85.36 56.6506 85.144C56.9866 84.928 57.3706 84.82 57.8026 84.82ZM18.8542 106L14.4502 101.932V106H13.4662V97.456H14.4502V101.38L18.6502 97.456H19.9102L15.4462 101.62L20.1382 106H18.8542ZM25.945 102.952H21.517C21.525 103.72 21.701 104.3 22.045 104.692C22.397 105.084 22.905 105.28 23.569 105.28C24.273 105.28 24.921 105.044 25.513 104.572L25.837 105.28C25.573 105.528 25.233 105.724 24.817 105.868C24.409 106.012 23.989 106.084 23.557 106.084C22.613 106.084 21.873 105.808 21.337 105.256C20.801 104.696 20.533 103.932 20.533 102.964C20.533 102.348 20.653 101.804 20.893 101.332C21.133 100.852 21.469 100.48 21.901 100.216C22.333 99.952 22.825 99.82 23.377 99.82C24.177 99.82 24.805 100.084 25.261 100.612C25.717 101.132 25.945 101.852 25.945 102.772V102.952ZM23.389 100.576C22.885 100.576 22.473 100.728 22.153 101.032C21.841 101.336 21.641 101.764 21.553 102.316H25.069C25.021 101.748 24.853 101.316 24.565 101.02C24.285 100.724 23.893 100.576 23.389 100.576ZM29.4604 106.084C28.4444 106.084 27.6404 105.824 27.0484 105.304L27.3724 104.584C27.7004 104.84 28.0324 105.024 28.3684 105.136C28.7044 105.248 29.0804 105.304 29.4964 105.304C29.9524 105.304 30.2964 105.228 30.5284 105.076C30.7684 104.916 30.8884 104.688 30.8884 104.392C30.8884 104.152 30.8084 103.96 30.6484 103.816C30.4884 103.672 30.2244 103.56 29.8564 103.48L28.8364 103.24C28.3324 103.128 27.9404 102.928 27.6604 102.64C27.3884 102.352 27.2524 102.008 27.2524 101.608C27.2524 101.08 27.4644 100.652 27.8884 100.324C28.3124 99.988 28.8724 99.82 29.5684 99.82C29.9924 99.82 30.3924 99.888 30.7684 100.024C31.1444 100.16 31.4604 100.356 31.7164 100.612L31.3924 101.32C30.8244 100.848 30.2164 100.612 29.5684 100.612C29.1364 100.612 28.8004 100.696 28.5604 100.864C28.3284 101.024 28.2124 101.252 28.2124 101.548C28.2124 101.796 28.2844 101.992 28.4284 102.136C28.5804 102.28 28.8204 102.392 29.1484 102.472L30.1684 102.724C30.7284 102.852 31.1444 103.052 31.4164 103.324C31.6884 103.588 31.8244 103.936 31.8244 104.368C31.8244 104.888 31.6124 105.304 31.1884 105.616C30.7644 105.928 30.1884 106.084 29.4604 106.084ZM38.4255 102.952H33.9975C34.0055 103.72 34.1815 104.3 34.5255 104.692C34.8775 105.084 35.3855 105.28 36.0495 105.28C36.7535 105.28 37.4015 105.044 37.9935 104.572L38.3175 105.28C38.0535 105.528 37.7135 105.724 37.2975 105.868C36.8895 106.012 36.4695 106.084 36.0375 106.084C35.0935 106.084 34.3535 105.808 33.8175 105.256C33.2815 104.696 33.0135 103.932 33.0135 102.964C33.0135 102.348 33.1335 101.804 33.3735 101.332C33.6135 100.852 33.9495 100.48 34.3815 100.216C34.8135 99.952 35.3055 99.82 35.8575 99.82C36.6575 99.82 37.2855 100.084 37.7415 100.612C38.1975 101.132 38.4255 101.852 38.4255 102.772V102.952ZM35.8695 100.576C35.3655 100.576 34.9535 100.728 34.6335 101.032C34.3215 101.336 34.1215 101.764 34.0335 102.316H37.5495C37.5015 101.748 37.3335 101.316 37.0455 101.02C36.7655 100.724 36.3735 100.576 35.8695 100.576ZM42.9128 99.82C44.3608 99.82 45.0848 100.616 45.0848 102.208V106H44.1128V102.256C44.1128 101.696 44.0008 101.288 43.7768 101.032C43.5528 100.768 43.2008 100.636 42.7208 100.636C42.1608 100.636 41.7128 100.808 41.3768 101.152C41.0408 101.496 40.8728 101.96 40.8728 102.544V106H39.9008V97.168H40.8728V100.948C41.0648 100.58 41.3368 100.3 41.6888 100.108C42.0488 99.916 42.4568 99.82 42.9128 99.82ZM52.2364 99.964V106H51.2764V104.908C51.1004 105.284 50.8324 105.576 50.4724 105.784C50.1204 105.984 49.7084 106.084 49.2364 106.084C48.7004 106.084 48.2284 105.956 47.8204 105.7C47.4204 105.444 47.1084 105.084 46.8844 104.62C46.6684 104.148 46.5604 103.6 46.5604 102.976C46.5604 102.352 46.6724 101.804 46.8964 101.332C47.1204 100.852 47.4324 100.48 47.8324 100.216C48.2404 99.952 48.7084 99.82 49.2364 99.82C49.7084 99.82 50.1204 99.924 50.4724 100.132C50.8244 100.34 51.0924 100.632 51.2764 101.008V99.964H52.2364ZM49.4284 105.28C50.0204 105.28 50.4764 105.08 50.7964 104.68C51.1164 104.272 51.2764 103.696 51.2764 102.952C51.2764 102.208 51.1164 101.636 50.7964 101.236C50.4764 100.836 50.0204 100.636 49.4284 100.636C48.8364 100.636 48.3724 100.844 48.0364 101.26C47.7084 101.668 47.5444 102.24 47.5444 102.976C47.5444 103.712 47.7084 104.28 48.0364 104.68C48.3644 105.08 48.8284 105.28 49.4284 105.28ZM55.4117 100.732V104.032C55.4117 104.48 55.5037 104.796 55.6877 104.98C55.8717 105.156 56.1317 105.244 56.4677 105.244C56.6917 105.244 56.9077 105.208 57.1157 105.136V105.964C56.8677 106.044 56.5877 106.084 56.2757 106.084C55.6997 106.084 55.2477 105.924 54.9197 105.604C54.5997 105.276 54.4397 104.796 54.4397 104.164V100.732H53.2637V99.964H54.4397V98.416L55.4117 98.068V99.964H57.1397V100.732H55.4117ZM63.627 99.964V106H62.667V104.908C62.491 105.284 62.223 105.576 61.863 105.784C61.511 105.984 61.099 106.084 60.627 106.084C60.091 106.084 59.619 105.956 59.211 105.7C58.811 105.444 58.499 105.084 58.275 104.62C58.059 104.148 57.951 103.6 57.951 102.976C57.951 102.352 58.063 101.804 58.287 101.332C58.511 100.852 58.823 100.48 59.223 100.216C59.631 99.952 60.099 99.82 60.627 99.82C61.099 99.82 61.511 99.924 61.863 100.132C62.215 100.34 62.483 100.632 62.667 101.008V99.964H63.627ZM60.819 105.28C61.411 105.28 61.867 105.08 62.187 104.68C62.507 104.272 62.667 103.696 62.667 102.952C62.667 102.208 62.507 101.636 62.187 101.236C61.867 100.836 61.411 100.636 60.819 100.636C60.227 100.636 59.763 100.844 59.427 101.26C59.099 101.668 58.935 102.24 58.935 102.976C58.935 103.712 59.099 104.28 59.427 104.68C59.755 105.08 60.219 105.28 60.819 105.28ZM68.5183 99.82C69.9663 99.82 70.6903 100.616 70.6903 102.208V106H69.7183V102.256C69.7183 101.696 69.6063 101.288 69.3823 101.032C69.1583 100.768 68.8063 100.636 68.3263 100.636C67.7663 100.636 67.3183 100.808 66.9823 101.152C66.6463 101.496 66.4783 101.96 66.4783 102.544V106H65.5063V101.656C65.5063 101.032 65.4743 100.468 65.4103 99.964H66.3343L66.4303 101.044C66.6143 100.652 66.8903 100.352 67.2583 100.144C67.6263 99.928 68.0463 99.82 68.5183 99.82Z" fill="black"/>
<path d="M37.2308 20C35.6743 20 34.3846 21.2839 34.3846 22.8333V25.6667H27.2692C24.9234 25.6667 23 27.5814 23 29.9167V49.75C23 52.0853 24.9234 54 27.2692 54H55.7308C58.0766 54 60 52.0853 60 49.75V29.9167C60 27.5814 58.0766 25.6667 55.7308 25.6667H48.6154V22.8333C48.6154 21.2839 47.3257 20 45.7692 20H37.2308ZM37.2308 22.8333H45.7692V25.6667H37.2308V22.8333ZM27.2692 28.5H55.7308C56.5312 28.5 57.1538 29.1198 57.1538 29.9167V49.75C57.1538 50.5469 56.5312 51.1667 55.7308 51.1667H27.2692C26.4687 51.1667 25.8462 50.5469 25.8462 49.75V29.9167C25.8462 29.1198 26.4687 28.5 27.2692 28.5ZM40.0769 31.3333V37H34.3846V39.8333H40.0769V45.5H42.9231V39.8333H48.6154V37H42.9231V31.3333H40.0769Z" fill="white"/>
<defs>
<filter id="filter0_d" x="0" y="0" width="84" height="84" filterUnits="userSpaceOnUse" color-interpolation-filters="sRGB">
<feFlood flood-opacity="0" result="BackgroundImageFix"/>
<feColorMatrix in="SourceAlpha" type="matrix" values="0 0 0 0 0 0 0 0 0 0 0 0 0 0 0 0 0 0 127 0"/>
<feOffset dy="5"/>
<feGaussianBlur stdDeviation="4.5"/>
<feColorMatrix type="matrix" values="0 0 0 0 0 0 0 0 0 0 0 0 0 0 0 0 0 0 0.25 0"/>
<feBlend mode="normal" in2="BackgroundImageFix" result="effect1_dropShadow"/>
<feBlend mode="normal" in="SourceGraphic" in2="effect1_dropShadow" result="shape"/>
</filter>
</defs>
</svg>
