<svg width="84" height="94" viewBox="0 0 84 94" fill="none" xmlns="http://www.w3.org/2000/svg">
<g filter="url(#filter0_d)">
<rect x="9" y="4" width="66" height="66" rx="15" fill="#48C1F0"/>
</g>
<path d="M13.8053 91L9.40133 86.932V91H8.41733V82.456H9.40133V86.38L13.6013 82.456H14.8613L10.3973 86.62L15.0893 91H13.8053ZM20.8962 87.952H16.4682C16.4762 88.72 16.6522 89.3 16.9962 89.692C17.3482 90.084 17.8562 90.28 18.5202 90.28C19.2242 90.28 19.8722 90.044 20.4642 89.572L20.7882 90.28C20.5242 90.528 20.1842 90.724 19.7682 90.868C19.3602 91.012 18.9402 91.084 18.5082 91.084C17.5642 91.084 16.8242 90.808 16.2882 90.256C15.7522 89.696 15.4842 88.932 15.4842 87.964C15.4842 87.348 15.6042 86.804 15.8442 86.332C16.0842 85.852 16.4202 85.48 16.8522 85.216C17.2842 84.952 17.7762 84.82 18.3282 84.82C19.1282 84.82 19.7562 85.084 20.2122 85.612C20.6682 86.132 20.8962 86.852 20.8962 87.772V87.952ZM18.3402 85.576C17.8362 85.576 17.4242 85.728 17.1042 86.032C16.7922 86.336 16.5922 86.764 16.5042 87.316H20.0202C19.9722 86.748 19.8042 86.316 19.5162 86.02C19.2362 85.724 18.8442 85.576 18.3402 85.576ZM25.3835 84.82C25.9115 84.82 26.3795 84.952 26.7875 85.216C27.1955 85.48 27.5115 85.852 27.7355 86.332C27.9595 86.804 28.0715 87.352 28.0715 87.976C28.0715 88.6 27.9595 89.148 27.7355 89.62C27.5115 90.084 27.1955 90.444 26.7875 90.7C26.3875 90.956 25.9195 91.084 25.3835 91.084C24.9115 91.084 24.4995 90.98 24.1475 90.772C23.7955 90.564 23.5275 90.268 23.3435 89.884V93.592H22.3715V86.656C22.3715 86.032 22.3395 85.468 22.2755 84.964H23.1995L23.2955 86.128C23.4635 85.712 23.7275 85.392 24.0875 85.168C24.4555 84.936 24.8875 84.82 25.3835 84.82ZM25.2035 90.28C25.7955 90.28 26.2515 90.08 26.5715 89.68C26.8995 89.28 27.0635 88.712 27.0635 87.976C27.0635 87.24 26.8995 86.668 26.5715 86.26C26.2435 85.844 25.7875 85.636 25.2035 85.636C24.6035 85.636 24.1435 85.836 23.8235 86.236C23.5035 86.636 23.3435 87.208 23.3435 87.952C23.3435 88.696 23.5035 89.272 23.8235 89.68C24.1435 90.08 24.6035 90.28 25.2035 90.28ZM34.8829 84.964V91H33.9229V89.908C33.7469 90.284 33.4789 90.576 33.1189 90.784C32.7669 90.984 32.3549 91.084 31.8829 91.084C31.3469 91.084 30.8749 90.956 30.4669 90.7C30.0669 90.444 29.7549 90.084 29.5309 89.62C29.3149 89.148 29.2069 88.6 29.2069 87.976C29.2069 87.352 29.3189 86.804 29.5429 86.332C29.7669 85.852 30.0789 85.48 30.4789 85.216C30.8869 84.952 31.3549 84.82 31.8829 84.82C32.3549 84.82 32.7669 84.924 33.1189 85.132C33.4709 85.34 33.7389 85.632 33.9229 86.008V84.964H34.8829ZM32.0749 90.28C32.6669 90.28 33.1229 90.08 33.4429 89.68C33.7629 89.272 33.9229 88.696 33.9229 87.952C33.9229 87.208 33.7629 86.636 33.4429 86.236C33.1229 85.836 32.6669 85.636 32.0749 85.636C31.4829 85.636 31.0189 85.844 30.6829 86.26C30.3549 86.668 30.1909 87.24 30.1909 87.976C30.1909 88.712 30.3549 89.28 30.6829 89.68C31.0109 90.08 31.4749 90.28 32.0749 90.28ZM36.7622 82.168H37.7342V91H36.7622V82.168ZM44.9375 84.964V91H43.9775V89.908C43.8015 90.284 43.5335 90.576 43.1735 90.784C42.8215 90.984 42.4095 91.084 41.9375 91.084C41.4015 91.084 40.9295 90.956 40.5215 90.7C40.1215 90.444 39.8095 90.084 39.5855 89.62C39.3695 89.148 39.2615 88.6 39.2615 87.976C39.2615 87.352 39.3735 86.804 39.5975 86.332C39.8215 85.852 40.1335 85.48 40.5335 85.216C40.9415 84.952 41.4095 84.82 41.9375 84.82C42.4095 84.82 42.8215 84.924 43.1735 85.132C43.5255 85.34 43.7935 85.632 43.9775 86.008V84.964H44.9375ZM42.1295 90.28C42.7215 90.28 43.1775 90.08 43.4975 89.68C43.8175 89.272 43.9775 88.696 43.9775 87.952C43.9775 87.208 43.8175 86.636 43.4975 86.236C43.1775 85.836 42.7215 85.636 42.1295 85.636C41.5375 85.636 41.0735 85.844 40.7375 86.26C40.4095 86.668 40.2455 87.24 40.2455 87.976C40.2455 88.712 40.4095 89.28 40.7375 89.68C41.0655 90.08 41.5295 90.28 42.1295 90.28ZM50.0658 82.456H52.9338C54.3018 82.456 55.3578 82.828 56.1018 83.572C56.8538 84.308 57.2298 85.356 57.2298 86.716C57.2298 88.084 56.8538 89.14 56.1018 89.884C55.3578 90.628 54.3018 91 52.9338 91H50.0658V82.456ZM52.8738 90.16C53.9778 90.16 54.8058 89.872 55.3578 89.296C55.9178 88.72 56.1978 87.86 56.1978 86.716C56.1978 84.436 55.0898 83.296 52.8738 83.296H51.0498V90.16H52.8738ZM63.9509 87.952H59.5229C59.5309 88.72 59.7069 89.3 60.0509 89.692C60.4029 90.084 60.9109 90.28 61.5749 90.28C62.2789 90.28 62.9269 90.044 63.5189 89.572L63.8429 90.28C63.5789 90.528 63.2389 90.724 62.8229 90.868C62.4149 91.012 61.9949 91.084 61.5629 91.084C60.6189 91.084 59.8789 90.808 59.3429 90.256C58.8069 89.696 58.5389 88.932 58.5389 87.964C58.5389 87.348 58.6589 86.804 58.8989 86.332C59.1389 85.852 59.4749 85.48 59.9069 85.216C60.3389 84.952 60.8309 84.82 61.3829 84.82C62.1829 84.82 62.8109 85.084 63.2669 85.612C63.7229 86.132 63.9509 86.852 63.9509 87.772V87.952ZM61.3949 85.576C60.8909 85.576 60.4789 85.728 60.1589 86.032C59.8469 86.336 59.6469 86.764 59.5589 87.316H63.0749C63.0269 86.748 62.8589 86.316 62.5709 86.02C62.2909 85.724 61.8989 85.576 61.3949 85.576ZM67.4662 91.084C66.4502 91.084 65.6462 90.824 65.0542 90.304L65.3782 89.584C65.7062 89.84 66.0382 90.024 66.3742 90.136C66.7102 90.248 67.0862 90.304 67.5022 90.304C67.9582 90.304 68.3022 90.228 68.5342 90.076C68.7742 89.916 68.8942 89.688 68.8942 89.392C68.8942 89.152 68.8142 88.96 68.6542 88.816C68.4942 88.672 68.2302 88.56 67.8622 88.48L66.8422 88.24C66.3382 88.128 65.9462 87.928 65.6662 87.64C65.3942 87.352 65.2582 87.008 65.2582 86.608C65.2582 86.08 65.4702 85.652 65.8942 85.324C66.3182 84.988 66.8782 84.82 67.5742 84.82C67.9982 84.82 68.3982 84.888 68.7742 85.024C69.1502 85.16 69.4662 85.356 69.7222 85.612L69.3982 86.32C68.8302 85.848 68.2222 85.612 67.5742 85.612C67.1422 85.612 66.8062 85.696 66.5662 85.864C66.3342 86.024 66.2182 86.252 66.2182 86.548C66.2182 86.796 66.2902 86.992 66.4342 87.136C66.5862 87.28 66.8262 87.392 67.1542 87.472L68.1742 87.724C68.7342 87.852 69.1502 88.052 69.4222 88.324C69.6942 88.588 69.8302 88.936 69.8302 89.368C69.8302 89.888 69.6182 90.304 69.1942 90.616C68.7702 90.928 68.1942 91.084 67.4662 91.084ZM76.6954 84.964V91H75.7354V89.908C75.5594 90.284 75.2914 90.576 74.9314 90.784C74.5794 90.984 74.1674 91.084 73.6954 91.084C73.1594 91.084 72.6874 90.956 72.2794 90.7C71.8794 90.444 71.5674 90.084 71.3434 89.62C71.1274 89.148 71.0194 88.6 71.0194 87.976C71.0194 87.352 71.1314 86.804 71.3554 86.332C71.5794 85.852 71.8914 85.48 72.2914 85.216C72.6994 84.952 73.1674 84.82 73.6954 84.82C74.1674 84.82 74.5794 84.924 74.9314 85.132C75.2834 85.34 75.5514 85.632 75.7354 86.008V84.964H76.6954ZM73.8874 90.28C74.4794 90.28 74.9354 90.08 75.2554 89.68C75.5754 89.272 75.7354 88.696 75.7354 87.952C75.7354 87.208 75.5754 86.636 75.2554 86.236C74.9354 85.836 74.4794 85.636 73.8874 85.636C73.2954 85.636 72.8314 85.844 72.4954 86.26C72.1674 86.668 72.0034 87.24 72.0034 87.976C72.0034 88.712 72.1674 89.28 72.4954 89.68C72.8234 90.08 73.2874 90.28 73.8874 90.28Z" fill="black"/>
<path d="M63.5974 35.7327L63.6032 35.7172L43.8877 18.5764V18.5784C43.532 18.222 43.0434 18 42.5 18C41.9566 18 41.468 18.222 41.1123 18.5784V18.5764L21.3968 35.7172L21.4026 35.7327C21.1642 35.9119 21 36.1806 21 36.5C21 37.0375 21.4378 37.4737 21.9773 37.4737H26.8636V53.0526C26.8636 54.1276 27.7393 55 28.8182 55H56.1818C57.2607 55 58.1364 54.1276 58.1364 53.0526V37.4737H63.0227C63.5622 37.4737 64 37.0375 64 36.5C64 36.1806 63.8358 35.9119 63.5974 35.7327ZM42.5 31.6316C44.6598 31.6316 46.4091 33.3745 46.4091 35.5263C46.4091 37.6782 44.6598 39.4211 42.5 39.4211C40.3402 39.4211 38.5909 37.6782 38.5909 35.5263C38.5909 33.3745 40.3402 31.6316 42.5 31.6316ZM49.3409 47.2105H35.6591C35.1196 47.2105 34.6818 46.7743 34.6818 46.2368V45.8493C34.6818 43.2593 39.0209 41.8553 42.5 41.8553C45.9791 41.8553 50.3182 43.2593 50.3182 45.8493V46.2368C50.3182 46.7743 49.8804 47.2105 49.3409 47.2105Z" fill="white"/>
<defs>
<filter id="filter0_d" x="0" y="0" width="84" height="84" filterUnits="userSpaceOnUse" color-interpolation-filters="sRGB">
<feFlood flood-opacity="0" result="BackgroundImageFix"/>
<feColorMatrix in="SourceAlpha" type="matrix" values="0 0 0 0 0 0 0 0 0 0 0 0 0 0 0 0 0 0 127 0"/>
<feOffset dy="5"/>
<feGaussianBlur stdDeviation="4.5"/>
<feColorMatrix type="matrix" values="0 0 0 0 0 0 0 0 0 0 0 0 0 0 0 0 0 0 0.25 0"/>
<feBlend mode="normal" in2="BackgroundImageFix" result="effect1_dropShadow"/>
<feBlend mode="normal" in="SourceGraphic" in2="effect1_dropShadow" result="shape"/>
</filter>
</defs>
</svg>
