<svg width="84" height="94" viewBox="0 0 84 94" fill="none" xmlns="http://www.w3.org/2000/svg">
<g filter="url(#filter0_d)">
<rect x="9" y="4" width="66" height="66" rx="15" fill="#48C1F0"/>
</g>
<path d="M19.39 82.456H22.798C23.678 82.456 24.362 82.668 24.85 83.092C25.346 83.516 25.594 84.1 25.594 84.844C25.594 85.588 25.346 86.176 24.85 86.608C24.354 87.032 23.67 87.244 22.798 87.244H20.374V91H19.39V82.456ZM22.714 86.428C23.346 86.428 23.822 86.292 24.142 86.02C24.462 85.748 24.622 85.356 24.622 84.844C24.622 84.332 24.462 83.944 24.142 83.68C23.822 83.408 23.346 83.272 22.714 83.272H20.374V86.428H22.714ZM31.9509 87.952H27.5229C27.5309 88.72 27.7069 89.3 28.0509 89.692C28.4029 90.084 28.9109 90.28 29.5749 90.28C30.2789 90.28 30.9269 90.044 31.5189 89.572L31.8429 90.28C31.5789 90.528 31.2389 90.724 30.8229 90.868C30.4149 91.012 29.9949 91.084 29.5629 91.084C28.6189 91.084 27.8789 90.808 27.3429 90.256C26.8069 89.696 26.5389 88.932 26.5389 87.964C26.5389 87.348 26.6589 86.804 26.8989 86.332C27.1389 85.852 27.4749 85.48 27.9069 85.216C28.3389 84.952 28.8309 84.82 29.3829 84.82C30.1829 84.82 30.8109 85.084 31.2669 85.612C31.7229 86.132 31.9509 86.852 31.9509 87.772V87.952ZM29.3949 85.576C28.8909 85.576 28.4789 85.728 28.1589 86.032C27.8469 86.336 27.6469 86.764 27.5589 87.316H31.0749C31.0269 86.748 30.8589 86.316 30.5709 86.02C30.2909 85.724 29.8989 85.576 29.3949 85.576ZM36.2342 84.82C36.4342 84.82 36.6182 84.844 36.7862 84.892L36.7622 85.78C36.5782 85.716 36.3662 85.684 36.1262 85.684C35.5422 85.684 35.1062 85.868 34.8182 86.236C34.5382 86.596 34.3982 87.036 34.3982 87.556V91H33.4262V86.656C33.4262 86.032 33.3942 85.468 33.3302 84.964H34.2542L34.3502 86.08C34.5022 85.672 34.7462 85.36 35.0822 85.144C35.4182 84.928 35.8022 84.82 36.2342 84.82ZM42.9727 84.964V91H42.0127V89.908C41.8367 90.284 41.5687 90.576 41.2087 90.784C40.8567 90.984 40.4447 91.084 39.9727 91.084C39.4367 91.084 38.9647 90.956 38.5567 90.7C38.1567 90.444 37.8447 90.084 37.6207 89.62C37.4047 89.148 37.2967 88.6 37.2967 87.976C37.2967 87.352 37.4087 86.804 37.6327 86.332C37.8567 85.852 38.1687 85.48 38.5687 85.216C38.9767 84.952 39.4447 84.82 39.9727 84.82C40.4447 84.82 40.8567 84.924 41.2087 85.132C41.5607 85.34 41.8287 85.632 42.0127 86.008V84.964H42.9727ZM40.1647 90.28C40.7567 90.28 41.2127 90.08 41.5327 89.68C41.8527 89.272 42.0127 88.696 42.0127 87.952C42.0127 87.208 41.8527 86.636 41.5327 86.236C41.2127 85.836 40.7567 85.636 40.1647 85.636C39.5727 85.636 39.1087 85.844 38.7727 86.26C38.4447 86.668 38.2807 87.24 38.2807 87.976C38.2807 88.712 38.4447 89.28 38.7727 89.68C39.1007 90.08 39.5647 90.28 40.1647 90.28ZM54.02 84.964L51.788 91H50.852L49.124 86.284L47.408 91H46.472L44.24 84.964H45.26L46.964 89.836L48.728 84.964H49.58L51.32 89.848L53.06 84.964H54.02ZM60.5274 84.964V91H59.5674V89.908C59.3914 90.284 59.1234 90.576 58.7634 90.784C58.4114 90.984 57.9994 91.084 57.5274 91.084C56.9914 91.084 56.5194 90.956 56.1114 90.7C55.7114 90.444 55.3994 90.084 55.1754 89.62C54.9594 89.148 54.8514 88.6 54.8514 87.976C54.8514 87.352 54.9634 86.804 55.1874 86.332C55.4114 85.852 55.7234 85.48 56.1234 85.216C56.5314 84.952 56.9994 84.82 57.5274 84.82C57.9994 84.82 58.4114 84.924 58.7634 85.132C59.1154 85.34 59.3834 85.632 59.5674 86.008V84.964H60.5274ZM57.7194 90.28C58.3114 90.28 58.7674 90.08 59.0874 89.68C59.4074 89.272 59.5674 88.696 59.5674 87.952C59.5674 87.208 59.4074 86.636 59.0874 86.236C58.7674 85.836 58.3114 85.636 57.7194 85.636C57.1274 85.636 56.6634 85.844 56.3274 86.26C55.9994 86.668 55.8354 87.24 55.8354 87.976C55.8354 88.712 55.9994 89.28 56.3274 89.68C56.6554 90.08 57.1194 90.28 57.7194 90.28ZM63.7027 85.732V89.032C63.7027 89.48 63.7947 89.796 63.9787 89.98C64.1627 90.156 64.4227 90.244 64.7587 90.244C64.9827 90.244 65.1987 90.208 65.4067 90.136V90.964C65.1587 91.044 64.8787 91.084 64.5667 91.084C63.9907 91.084 63.5387 90.924 63.2107 90.604C62.8907 90.276 62.7307 89.796 62.7307 89.164V85.732H61.5547V84.964H62.7307V83.416L63.7027 83.068V84.964H65.4307V85.732H63.7027Z" fill="black"/>
<path d="M34.1537 20C33.6123 20 33.1321 20.3269 32.938 20.8275C32.938 20.8275 32.0696 23.1569 31.3136 26.3444C25.0409 31.9736 25 42.2308 25 50.0769C25 50.8023 25.5823 51.3846 26.3077 51.3846H36.3809C38.0972 53.0499 40.069 54 41.9998 54C43.849 54 45.9739 53.1418 47.8231 51.3846H57.692C58.4173 51.3846 58.9996 50.8023 58.9996 50.0769C58.9996 45.9802 59.0405 41.25 58.2539 36.8365C57.4774 32.5457 55.8939 28.5 52.5736 25.8029C51.8381 22.9014 51.0616 20.8377 51.0616 20.8377C50.8675 20.3269 50.3874 20 49.8459 20H34.1537ZM35.1141 22.6154H48.8958C49.2738 23.6677 50.6632 28.0913 50.9595 33.0769H48.4054C48.4871 32.6581 48.5382 32.2187 48.5382 31.7692C48.5382 28.1731 45.5959 25.2308 41.9998 25.2308C38.4037 25.2308 35.4614 28.1731 35.4614 31.7692C35.4614 32.2187 35.5125 32.6581 35.5942 33.0769H33.0402C33.3365 28.0709 34.7259 23.6575 35.1141 22.6154ZM41.9998 27.8462C44.1861 27.8462 45.9229 29.5829 45.9229 31.7692C45.9229 33.9555 44.1861 35.6923 41.9998 35.6923C39.8135 35.6923 38.0768 33.9555 38.0768 31.7692C38.0768 29.5829 39.8135 27.8462 41.9998 27.8462ZM41.9998 30.4615C41.2745 30.4615 40.6921 31.0439 40.6921 31.7692C40.6921 32.4946 41.2745 33.0769 41.9998 33.0769C42.7252 33.0769 43.3075 32.4946 43.3075 31.7692C43.3075 31.0439 42.7252 30.4615 41.9998 30.4615ZM53.534 30.9724C54.576 32.7806 55.2503 34.9261 55.6794 37.2861C56.3332 40.9435 56.3128 44.9994 56.3128 48.7692H49.9072C51.4192 46.2764 52.4612 42.8642 52.4612 38.3077H49.8459C49.8459 48.473 44.5437 51.3846 41.9998 51.3846C40.6615 51.3846 38.6489 50.3834 37.0347 48.1971C35.4103 46.0108 34.1537 42.6905 34.1537 38.3077H31.5384C31.5384 42.6496 32.6826 46.1436 34.3274 48.7692H27.7073C27.7482 43.0174 28.0751 36.622 30.3431 31.994C30.2716 32.7909 30.2307 33.5877 30.2307 34.3846C30.2307 35.11 30.813 35.6923 31.5384 35.6923H36.7691C36.7793 35.6923 36.7895 35.6923 36.81 35.6923C38.0053 37.2656 39.8748 38.3077 41.9998 38.3077C44.1146 38.3077 45.9944 37.2656 47.1897 35.6923C47.1999 35.6923 47.2203 35.6923 47.2305 35.6923H52.4612C53.1866 35.6923 53.7689 35.11 53.7689 34.3846C53.7689 33.2302 53.6668 32.0859 53.534 30.9724Z" fill="white"/>
<defs>
<filter id="filter0_d" x="0" y="0" width="84" height="84" filterUnits="userSpaceOnUse" color-interpolation-filters="sRGB">
<feFlood flood-opacity="0" result="BackgroundImageFix"/>
<feColorMatrix in="SourceAlpha" type="matrix" values="0 0 0 0 0 0 0 0 0 0 0 0 0 0 0 0 0 0 127 0"/>
<feOffset dy="5"/>
<feGaussianBlur stdDeviation="4.5"/>
<feColorMatrix type="matrix" values="0 0 0 0 0 0 0 0 0 0 0 0 0 0 0 0 0 0 0.25 0"/>
<feBlend mode="normal" in2="BackgroundImageFix" result="effect1_dropShadow"/>
<feBlend mode="normal" in="SourceGraphic" in2="effect1_dropShadow" result="shape"/>
</filter>
</defs>
</svg>
