<svg width="73" height="73" viewBox="0 0 73 73" fill="none" xmlns="http://www.w3.org/2000/svg">
<circle cx="36.5" cy="36.5" r="36.5" fill="#FF4343"/>
<path opacity="0.15" d="M49.6392 43.0359V46.9922C49.6454 48.5045 48.2855 49.7674 46.7586 49.6297C33.5801 49.64 23.3601 39.3251 23.3704 26.235C23.2329 24.7163 24.4895 23.3615 25.9999 23.3601H29.9641C30.6053 23.3538 31.227 23.5805 31.7132 23.9978C33.0956 25.1843 33.9847 29.2113 33.6426 30.8122C33.3755 32.0621 32.1156 32.9366 31.259 33.7915C33.14 37.093 35.8791 39.8267 39.1872 41.704C40.0438 40.8491 40.92 39.5916 42.1723 39.3251C43.7789 38.9831 47.8319 39.8735 49.0136 41.2655C49.4326 41.7591 49.6553 42.3892 49.6392 43.0359Z" fill="white"/>
<path d="M40.15 28.47C41.2263 28.68 42.2947 29.1546 43.07 29.93C43.8454 30.7054 44.3201 31.7737 44.53 32.85M40.88 23.36C43.1161 23.6084 45.1282 24.6902 46.72 26.28C48.3119 27.8698 49.3888 29.8843 49.64 32.12M49.6392 43.0359V46.9922C49.6454 48.5045 48.2855 49.7674 46.7586 49.6297C33.5801 49.64 23.3601 39.3251 23.3704 26.235C23.2329 24.7163 24.4895 23.3615 25.9999 23.3601H29.9641C30.6053 23.3538 31.227 23.5805 31.7132 23.9978C33.0956 25.1843 33.9847 29.2113 33.6426 30.8122C33.3755 32.0621 32.1156 32.9366 31.259 33.7915C33.14 37.093 35.8791 39.8267 39.1872 41.704C40.0438 40.8491 40.92 39.5916 42.1723 39.3251C43.7789 38.9831 47.8319 39.8735 49.0136 41.2655C49.4326 41.7591 49.6553 42.3892 49.6392 43.0359Z" stroke="white" stroke-width="1.5" stroke-linecap="round" stroke-linejoin="round"/>
</svg>
